NotoSerifKhmer-Condensed.ufo
<glyph name="quotedbl" format="2">
  <advance width="344"/>
  <unicode hex="0022"/>
  <outline>
    <contour>
      <point x="231" y="483" type="line"/>
      <point x="272" y="483" type="line"/>
      <point x="296" y="714" type="line"/>
      <point x="202" y="714" type="line"/>
    </contour>
    <contour>
      <point x="75" y="483" type="line"/>
      <point x="115" y="483" type="line"/>
      <point x="142" y="714" type="line"/>
      <point x="47" y="714" type="line"/>
    </contour>
  </outline>
</glyph>
<glyph name="quotesingle" format="2">
  <advance width="190"/>
  <unicode hex="0027"/>
  <outline>
    <contour>
      <point x="75" y="483" type="line"/>
      <point x="115" y="483" type="line"/>
      <point x="142" y="714" type="line"/>
      <point x="47" y="714" type="line"/>
    </contour>
  </outline>
</glyph>
<glyph name="uni00AD" format="2">
  <advance width="310"/>
  <unicode hex="00AD"/>
  <outline>
    <contour>
      <point x="20" y="236" type="line"/>
      <point x="226" y="236" type="line"/>
      <point x="226" y="309" type="line"/>
      <point x="20" y="309" type="line"/>
    </contour>
  </outline>
</glyph>
<glyph name="uni1780" format="2">
  <advance width="542"/>
  <unicode hex="1780"/>
  <anchor x="274" y="760" name="abvm"/>
  <anchor x="274" y="728" name="abvm_high"/>
  <anchor x="274" y="0" name="blwm"/>
  <outline>
    <contour>
      <point x="459" y="316" type="line" smooth="yes"/>
      <point x="459" y="390"/>
      <point x="379" y="459"/>
      <point x="274" y="459" type="curve" smooth="yes"/>
      <point x="172" y="459"/>
      <point x="89" y="392"/>
      <point x="89" y="316" type="curve" smooth="yes"/>
      <point x="89" y="0" type="line"/>
      <point x="166" y="0" type="line"/>
      <point x="166" y="316" type="line" smooth="yes"/>
      <point x="166" y="354"/>
      <point x="211" y="392"/>
      <point x="274" y="392" type="curve" smooth="yes"/>
      <point x="334" y="392"/>
      <point x="382" y="356"/>
      <point x="382" y="316" type="curve" smooth="yes"/>
      <point x="382" y="0" type="line"/>
      <point x="459" y="0" type="line"/>
    </contour>
    <contour>
      <point x="159" y="471" type="line"/>
      <point x="123" y="497"/>
      <point x="112" y="510"/>
      <point x="112" y="536" type="curve" smooth="yes"/>
      <point x="112" y="553"/>
      <point x="116" y="564"/>
      <point x="123" y="574" type="curve" smooth="yes"/>
      <point x="131" y="585"/>
      <point x="141" y="590"/>
      <point x="151" y="590" type="curve" smooth="yes"/>
      <point x="162" y="590"/>
      <point x="172" y="583"/>
      <point x="197" y="558" type="curve" smooth="yes"/>
      <point x="222" y="533"/>
      <point x="237" y="520"/>
      <point x="255" y="520" type="curve" smooth="yes"/>
      <point x="272" y="520"/>
      <point x="291" y="532"/>
      <point x="312" y="553" type="curve" smooth="yes"/>
      <point x="329" y="570"/>
      <point x="347" y="588"/>
      <point x="357" y="588" type="curve" smooth="yes"/>
      <point x="386" y="588"/>
      <point x="404" y="520"/>
      <point x="448" y="520" type="curve" smooth="yes"/>
      <point x="466" y="520"/>
      <point x="496" y="532"/>
      <point x="498" y="586" type="curve"/>
      <point x="474" y="583"/>
      <point x="452" y="591"/>
      <point x="440" y="606" type="curve" smooth="yes"/>
      <point x="407" y="649" type="line" smooth="yes"/>
      <point x="386" y="677"/>
      <point x="372" y="685"/>
      <point x="364" y="685" type="curve" smooth="yes"/>
      <point x="354" y="685"/>
      <point x="336" y="665"/>
      <point x="311" y="637" type="curve" smooth="yes"/>
      <point x="289" y="612"/>
      <point x="275" y="598"/>
      <point x="264" y="598" type="curve" smooth="yes"/>
      <point x="253" y="598"/>
      <point x="238" y="612"/>
      <point x="221" y="632" type="curve" smooth="yes"/>
      <point x="191" y="668"/>
      <point x="173" y="686"/>
      <point x="162" y="686" type="curve" smooth="yes"/>
      <point x="147" y="686"/>
      <point x="122" y="660"/>
      <point x="85" y="618" type="curve" smooth="yes"/>
      <point x="54" y="582"/>
      <point x="44" y="555"/>
      <point x="44" y="525" type="curve" smooth="yes"/>
      <point x="44" y="478"/>
      <point x="67" y="453"/>
      <point x="107" y="426" type="curve"/>
    </contour>
  </outline>
</glyph>
<glyph name="uni1781" format="2">
  <advance width="553"/>
  <unicode hex="1781"/>
  <note>
uni1781
</note>
  <anchor x="274" y="760" name="abvm"/>
  <anchor x="273" y="0" name="blwm"/>
  <outline>
    <contour>
      <point x="80" y="514" type="line"/>
      <point x="157" y="514" type="line"/>
      <point x="157" y="536" type="line" smooth="yes"/>
      <point x="157" y="576"/>
      <point x="206" y="615"/>
      <point x="273" y="615" type="curve" smooth="yes"/>
      <point x="338" y="615"/>
      <point x="390" y="579"/>
      <point x="390" y="536" type="curve" smooth="yes"/>
      <point x="390" y="463" type="line" smooth="yes"/>
      <point x="390" y="428"/>
      <point x="352" y="386"/>
      <point x="273" y="338" type="curve" smooth="yes"/>
      <point x="80" y="219" type="line"/>
      <point x="80" y="146" type="line" smooth="yes"/>
      <point x="80" y="70"/>
      <point x="165" y="0"/>
      <point x="273" y="0" type="curve" smooth="yes"/>
      <point x="379" y="0"/>
      <point x="467" y="68"/>
      <point x="467" y="146" type="curve" smooth="yes"/>
      <point x="467" y="292" type="line"/>
      <point x="390" y="243" type="line"/>
      <point x="390" y="146" type="line" smooth="yes"/>
      <point x="390" y="106"/>
      <point x="340" y="67"/>
      <point x="273" y="67" type="curve" smooth="yes"/>
      <point x="208" y="67"/>
      <point x="157" y="104"/>
      <point x="157" y="146" type="curve" smooth="yes"/>
      <point x="157" y="187" type="line"/>
      <point x="312" y="283" type="line" smooth="yes"/>
      <point x="415" y="347"/>
      <point x="467" y="407"/>
      <point x="467" y="463" type="curve" smooth="yes"/>
      <point x="467" y="536" type="line" smooth="yes"/>
      <point x="467" y="612"/>
      <point x="382" y="682"/>
      <point x="273" y="682" type="curve" smooth="yes"/>
      <point x="167" y="682"/>
      <point x="80" y="614"/>
      <point x="80" y="536" type="curve" smooth="yes"/>
    </contour>
    <contour>
      <point x="157" y="526" type="line"/>
      <point x="80" y="526" type="line"/>
      <point x="80" y="412" type="line" smooth="yes"/>
      <point x="80" y="379"/>
      <point x="105" y="360"/>
      <point x="146" y="360" type="curve" smooth="yes"/>
      <point x="196" y="360"/>
      <point x="222" y="388"/>
      <point x="222" y="438" type="curve" smooth="yes"/>
      <point x="222" y="488"/>
      <point x="197" y="509"/>
      <point x="157" y="509" type="curve"/>
    </contour>
    <contour>
      <point x="157" y="470" type="line"/>
      <point x="173" y="470"/>
      <point x="181" y="459"/>
      <point x="181" y="437" type="curve" smooth="yes"/>
      <point x="181" y="416"/>
      <point x="173" y="401"/>
      <point x="157" y="401" type="curve"/>
    </contour>
  </outline>
</glyph>
<glyph name="uni1782" format="2">
  <advance width="542"/>
  <unicode hex="1782"/>
  <note>
uni1782
</note>
  <anchor x="274" y="760" name="abvm"/>
  <anchor x="274" y="728" name="abvm_high"/>
  <anchor x="274" y="0" name="blwm"/>
  <outline>
    <contour>
      <point x="169" y="316" type="line" smooth="yes"/>
      <point x="169" y="354"/>
      <point x="214" y="392"/>
      <point x="277" y="392" type="curve" smooth="yes"/>
      <point x="337" y="392"/>
      <point x="385" y="356"/>
      <point x="385" y="316" type="curve" smooth="yes"/>
      <point x="385" y="0" type="line"/>
      <point x="462" y="0" type="line"/>
      <point x="462" y="316" type="line" smooth="yes"/>
      <point x="462" y="390"/>
      <point x="382" y="459"/>
      <point x="277" y="459" type="curve" smooth="yes"/>
      <point x="175" y="459"/>
      <point x="92" y="392"/>
      <point x="92" y="316" type="curve" smooth="yes"/>
      <point x="92" y="0" type="line"/>
      <point x="169" y="0" type="line"/>
      <point x="169" y="53" type="line"/>
      <point x="214" y="138" type="line" smooth="yes"/>
      <point x="228" y="164"/>
      <point x="236" y="166"/>
      <point x="243" y="166" type="curve" smooth="yes"/>
      <point x="255" y="166"/>
      <point x="256" y="158"/>
      <point x="273" y="158" type="curve" smooth="yes"/>
      <point x="300" y="158"/>
      <point x="314" y="178"/>
      <point x="314" y="202" type="curve" smooth="yes"/>
      <point x="314" y="229"/>
      <point x="296" y="246"/>
      <point x="267" y="246" type="curve" smooth="yes"/>
      <point x="229" y="246"/>
      <point x="207" y="216"/>
      <point x="169" y="146" type="curve"/>
    </contour>
    <contour>
      <point x="159" y="471" type="line"/>
      <point x="123" y="497"/>
      <point x="112" y="510"/>
      <point x="112" y="536" type="curve" smooth="yes"/>
      <point x="112" y="553"/>
      <point x="116" y="564"/>
      <point x="123" y="574" type="curve" smooth="yes"/>
      <point x="131" y="585"/>
      <point x="141" y="590"/>
      <point x="151" y="590" type="curve" smooth="yes"/>
      <point x="162" y="590"/>
      <point x="172" y="583"/>
      <point x="197" y="558" type="curve" smooth="yes"/>
      <point x="222" y="533"/>
      <point x="237" y="520"/>
      <point x="255" y="520" type="curve" smooth="yes"/>
      <point x="272" y="520"/>
      <point x="291" y="532"/>
      <point x="312" y="553" type="curve" smooth="yes"/>
      <point x="329" y="570"/>
      <point x="347" y="588"/>
      <point x="357" y="588" type="curve" smooth="yes"/>
      <point x="386" y="588"/>
      <point x="404" y="520"/>
      <point x="448" y="520" type="curve" smooth="yes"/>
      <point x="466" y="520"/>
      <point x="496" y="532"/>
      <point x="498" y="586" type="curve"/>
      <point x="474" y="583"/>
      <point x="452" y="591"/>
      <point x="440" y="606" type="curve" smooth="yes"/>
      <point x="407" y="649" type="line" smooth="yes"/>
      <point x="386" y="677"/>
      <point x="372" y="685"/>
      <point x="364" y="685" type="curve" smooth="yes"/>
      <point x="354" y="685"/>
      <point x="336" y="665"/>
      <point x="311" y="637" type="curve" smooth="yes"/>
      <point x="289" y="612"/>
      <point x="275" y="598"/>
      <point x="264" y="598" type="curve" smooth="yes"/>
      <point x="253" y="598"/>
      <point x="238" y="612"/>
      <point x="221" y="632" type="curve" smooth="yes"/>
      <point x="191" y="668"/>
      <point x="173" y="686"/>
      <point x="162" y="686" type="curve" smooth="yes"/>
      <point x="147" y="686"/>
      <point x="122" y="660"/>
      <point x="85" y="618" type="curve" smooth="yes"/>
      <point x="54" y="582"/>
      <point x="44" y="555"/>
      <point x="44" y="525" type="curve" smooth="yes"/>
      <point x="44" y="478"/>
      <point x="67" y="453"/>
      <point x="107" y="426" type="curve"/>
    </contour>
  </outline>
</glyph>
<glyph name="uni1783" format="2">
  <advance width="899"/>
  <unicode hex="1783"/>
  <note>
uni1783
</note>
  <anchor x="606" y="760" name="abvm"/>
  <anchor x="618" y="0" name="blwm"/>
  <outline>
    <contour>
      <point x="791" y="401" type="line"/>
      <point x="714" y="401" type="line"/>
      <point x="714" y="146" type="line" smooth="yes"/>
      <point x="714" y="109"/>
      <point x="665" y="67"/>
      <point x="607" y="67" type="curve" smooth="yes"/>
      <point x="550" y="67"/>
      <point x="501" y="109"/>
      <point x="501" y="146" type="curve" smooth="yes"/>
      <point x="501" y="401" type="line"/>
      <point x="424" y="401" type="line"/>
      <point x="424" y="146" type="line" smooth="yes"/>
      <point x="424" y="109"/>
      <point x="375" y="67"/>
      <point x="317" y="67" type="curve" smooth="yes"/>
      <point x="260" y="67"/>
      <point x="211" y="109"/>
      <point x="211" y="146" type="curve" smooth="yes"/>
      <point x="211" y="401" type="line"/>
      <point x="134" y="401" type="line"/>
      <point x="134" y="146" type="line" smooth="yes"/>
      <point x="134" y="82"/>
      <point x="209" y="0"/>
      <point x="317" y="0" type="curve" smooth="yes"/>
      <point x="382" y="0"/>
      <point x="414" y="16"/>
      <point x="462" y="62" type="curve"/>
      <point x="499" y="18"/>
      <point x="552" y="0"/>
      <point x="607" y="0" type="curve" smooth="yes"/>
      <point x="716" y="0"/>
      <point x="791" y="82"/>
      <point x="791" y="146" type="curve" smooth="yes"/>
    </contour>
    <contour>
      <point x="501" y="350" type="line"/>
      <point x="501" y="447" type="line"/>
      <point x="413" y="532" type="line"/>
      <point x="449" y="590" type="line"/>
      <point x="478" y="565"/>
      <point x="494" y="557"/>
      <point x="509" y="557" type="curve" smooth="yes"/>
      <point x="541" y="557"/>
      <point x="564" y="596"/>
      <point x="564" y="629" type="curve"/>
      <point x="521" y="625"/>
      <point x="502" y="638"/>
      <point x="449" y="680" type="curve"/>
      <point x="371" y="552"/>
      <point x="353" y="534"/>
      <point x="353" y="514" type="curve" smooth="yes"/>
      <point x="353" y="499"/>
      <point x="363" y="484"/>
      <point x="424" y="424" type="curve"/>
      <point x="424" y="350" type="line"/>
    </contour>
    <contour>
      <point x="211" y="340" type="line"/>
      <point x="211" y="629" type="line" smooth="yes"/>
      <point x="211" y="661"/>
      <point x="190" y="677"/>
      <point x="158" y="677" type="curve" smooth="yes"/>
      <point x="94" y="677"/>
      <point x="32" y="615"/>
      <point x="32" y="535" type="curve" smooth="yes"/>
      <point x="32" y="487"/>
      <point x="55" y="418"/>
      <point x="134" y="418" type="curve"/>
      <point x="134" y="340" type="line"/>
    </contour>
    <contour>
      <point x="134" y="486" type="line"/>
      <point x="101" y="486"/>
      <point x="92" y="517"/>
      <point x="92" y="536" type="curve" smooth="yes"/>
      <point x="92" y="557"/>
      <point x="103" y="588"/>
      <point x="134" y="600" type="curve"/>
    </contour>
    <contour>
      <point x="791" y="350" type="line"/>
      <point x="791" y="447" type="line"/>
      <point x="703" y="532" type="line"/>
      <point x="739" y="590" type="line"/>
      <point x="768" y="565"/>
      <point x="784" y="557"/>
      <point x="799" y="557" type="curve" smooth="yes"/>
      <point x="831" y="557"/>
      <point x="854" y="596"/>
      <point x="854" y="629" type="curve"/>
      <point x="811" y="625"/>
      <point x="792" y="638"/>
      <point x="739" y="680" type="curve"/>
      <point x="661" y="552"/>
      <point x="643" y="534"/>
      <point x="643" y="514" type="curve" smooth="yes"/>
      <point x="643" y="499"/>
      <point x="653" y="484"/>
      <point x="714" y="424" type="curve"/>
      <point x="714" y="350" type="line"/>
    </contour>
  </outline>
</glyph>
<glyph name="uni1785" format="2">
  <advance width="571"/>
  <unicode hex="1785"/>
  <note>
uni1785
</note>
  <anchor x="299" y="760" name="abvm"/>
  <anchor x="299" y="0" name="blwm"/>
  <outline>
    <contour>
      <point x="484" y="192" type="line"/>
      <point x="407" y="192" type="line"/>
      <point x="407" y="146" type="line" smooth="yes"/>
      <point x="407" y="108"/>
      <point x="370" y="67"/>
      <point x="299" y="67" type="curve" smooth="yes"/>
      <point x="231" y="67"/>
      <point x="191" y="106"/>
      <point x="191" y="146" type="curve" smooth="yes"/>
      <point x="191" y="415" type="line"/>
      <point x="114" y="415" type="line"/>
      <point x="114" y="146" type="line" smooth="yes"/>
      <point x="114" y="72"/>
      <point x="187" y="0"/>
      <point x="299" y="0" type="curve" smooth="yes"/>
      <point x="409" y="0"/>
      <point x="484" y="70"/>
      <point x="484" y="146" type="curve" smooth="yes"/>
    </contour>
    <contour>
      <point x="484" y="186" type="line"/>
      <point x="484" y="395" type="line" smooth="yes"/>
      <point x="484" y="428"/>
      <point x="467" y="448"/>
      <point x="429" y="448" type="curve" smooth="yes"/>
      <point x="368" y="448"/>
      <point x="315" y="404"/>
      <point x="315" y="333" type="curve" smooth="yes"/>
      <point x="315" y="269"/>
      <point x="358" y="228"/>
      <point x="407" y="228" type="curve"/>
      <point x="407" y="186" type="line"/>
    </contour>
    <contour>
      <point x="407" y="295" type="line"/>
      <point x="389" y="295"/>
      <point x="369" y="308"/>
      <point x="369" y="338" type="curve" smooth="yes"/>
      <point x="369" y="368"/>
      <point x="388" y="386"/>
      <point x="407" y="386" type="curve"/>
    </contour>
    <contour>
      <point x="114" y="401" type="line"/>
      <point x="191" y="401" type="line"/>
      <point x="191" y="471" type="line"/>
      <point x="151" y="523"/>
      <point x="148" y="530"/>
      <point x="148" y="540" type="curve" smooth="yes"/>
      <point x="148" y="550"/>
      <point x="152" y="558"/>
      <point x="161" y="567" type="curve" smooth="yes"/>
      <point x="168" y="575"/>
      <point x="176" y="579"/>
      <point x="184" y="579" type="curve" smooth="yes"/>
      <point x="196" y="579"/>
      <point x="202" y="574"/>
      <point x="233" y="540" type="curve" smooth="yes"/>
      <point x="256" y="514"/>
      <point x="276" y="500"/>
      <point x="294" y="500" type="curve" smooth="yes"/>
      <point x="310" y="500"/>
      <point x="327" y="510"/>
      <point x="345" y="535" type="curve" smooth="yes"/>
      <point x="362" y="560"/>
      <point x="374" y="574"/>
      <point x="390" y="574" type="curve" smooth="yes"/>
      <point x="429" y="574"/>
      <point x="436" y="500"/>
      <point x="482" y="500" type="curve" smooth="yes"/>
      <point x="504" y="500"/>
      <point x="533" y="533"/>
      <point x="541" y="582" type="curve"/>
      <point x="516" y="573"/>
      <point x="496" y="585"/>
      <point x="481" y="604" type="curve" smooth="yes"/>
      <point x="444" y="652" type="line" smooth="yes"/>
      <point x="428" y="672"/>
      <point x="417" y="680"/>
      <point x="408" y="680" type="curve" smooth="yes"/>
      <point x="395" y="680"/>
      <point x="377" y="663"/>
      <point x="351" y="628" type="curve" smooth="yes"/>
      <point x="326" y="596"/>
      <point x="318" y="586"/>
      <point x="309" y="586" type="curve" smooth="yes"/>
      <point x="298" y="586"/>
      <point x="291" y="595"/>
      <point x="264" y="628" type="curve" smooth="yes"/>
      <point x="233" y="664"/>
      <point x="217" y="680"/>
      <point x="204" y="680" type="curve" smooth="yes"/>
      <point x="193" y="680"/>
      <point x="169" y="670"/>
      <point x="123" y="617" type="curve" smooth="yes"/>
      <point x="92" y="582"/>
      <point x="73" y="557"/>
      <point x="73" y="519" type="curve" smooth="yes"/>
      <point x="73" y="491"/>
      <point x="87" y="473"/>
      <point x="114" y="443" type="curve"/>
    </contour>
  </outline>
</glyph>
<glyph name="uni1786" format="2">
  <advance width="567"/>
  <unicode hex="1786"/>
  <note>
uni1786
</note>
  <anchor x="295" y="760" name="abvm"/>
  <anchor x="295" y="0" name="blwm"/>
  <outline>
    <contour>
      <point x="184" y="427" type="line"/>
      <point x="107" y="427" type="line"/>
      <point x="107" y="224" type="line"/>
      <point x="60" y="224"/>
      <point x="30" y="190"/>
      <point x="30" y="140" type="curve" smooth="yes"/>
      <point x="30" y="100"/>
      <point x="49" y="62"/>
      <point x="107" y="0" type="curve"/>
      <point x="184" y="0" type="line"/>
      <point x="184" y="157" type="line"/>
      <point x="214" y="155"/>
      <point x="238" y="139"/>
      <point x="264" y="78" type="curve" smooth="yes"/>
      <point x="277" y="49"/>
      <point x="299" y="0"/>
      <point x="369" y="0" type="curve" smooth="yes"/>
      <point x="446" y="0"/>
      <point x="494" y="55"/>
      <point x="494" y="143" type="curve" smooth="yes"/>
      <point x="494" y="194" type="line"/>
      <point x="417" y="194" type="line"/>
      <point x="417" y="122" type="line" smooth="yes"/>
      <point x="417" y="87"/>
      <point x="402" y="57"/>
      <point x="365" y="57" type="curve" smooth="yes"/>
      <point x="326" y="57"/>
      <point x="323" y="89"/>
      <point x="303" y="134" type="curve" smooth="yes"/>
      <point x="276" y="196"/>
      <point x="245" y="220"/>
      <point x="184" y="224" type="curve"/>
    </contour>
    <contour>
      <point x="107" y="94" type="line"/>
      <point x="93" y="110"/>
      <point x="86" y="121"/>
      <point x="86" y="135" type="curve" smooth="yes"/>
      <point x="86" y="149"/>
      <point x="93" y="156"/>
      <point x="107" y="157" type="curve"/>
    </contour>
    <contour>
      <point x="494" y="176" type="line"/>
      <point x="494" y="385" type="line" smooth="yes"/>
      <point x="494" y="418"/>
      <point x="477" y="438"/>
      <point x="439" y="438" type="curve" smooth="yes"/>
      <point x="378" y="438"/>
      <point x="325" y="394"/>
      <point x="325" y="323" type="curve" smooth="yes"/>
      <point x="325" y="259"/>
      <point x="368" y="218"/>
      <point x="417" y="218" type="curve"/>
      <point x="417" y="176" type="line"/>
    </contour>
    <contour>
      <point x="417" y="285" type="line"/>
      <point x="399" y="285"/>
      <point x="379" y="298"/>
      <point x="379" y="328" type="curve" smooth="yes"/>
      <point x="379" y="358"/>
      <point x="398" y="376"/>
      <point x="417" y="376" type="curve"/>
    </contour>
    <contour>
      <point x="107" y="401" type="line"/>
      <point x="184" y="401" type="line"/>
      <point x="184" y="471" type="line"/>
      <point x="144" y="523"/>
      <point x="141" y="530"/>
      <point x="141" y="540" type="curve" smooth="yes"/>
      <point x="141" y="550"/>
      <point x="145" y="558"/>
      <point x="154" y="567" type="curve" smooth="yes"/>
      <point x="161" y="575"/>
      <point x="169" y="579"/>
      <point x="177" y="579" type="curve" smooth="yes"/>
      <point x="189" y="579"/>
      <point x="195" y="574"/>
      <point x="226" y="540" type="curve" smooth="yes"/>
      <point x="249" y="514"/>
      <point x="269" y="500"/>
      <point x="287" y="500" type="curve" smooth="yes"/>
      <point x="303" y="500"/>
      <point x="320" y="510"/>
      <point x="338" y="535" type="curve" smooth="yes"/>
      <point x="355" y="560"/>
      <point x="367" y="574"/>
      <point x="383" y="574" type="curve" smooth="yes"/>
      <point x="422" y="574"/>
      <point x="429" y="500"/>
      <point x="475" y="500" type="curve" smooth="yes"/>
      <point x="497" y="500"/>
      <point x="526" y="533"/>
      <point x="534" y="582" type="curve"/>
      <point x="509" y="573"/>
      <point x="489" y="585"/>
      <point x="474" y="604" type="curve" smooth="yes"/>
      <point x="437" y="652" type="line" smooth="yes"/>
      <point x="421" y="672"/>
      <point x="410" y="680"/>
      <point x="401" y="680" type="curve" smooth="yes"/>
      <point x="388" y="680"/>
      <point x="370" y="663"/>
      <point x="344" y="628" type="curve" smooth="yes"/>
      <point x="319" y="596"/>
      <point x="311" y="586"/>
      <point x="302" y="586" type="curve" smooth="yes"/>
      <point x="291" y="586"/>
      <point x="284" y="595"/>
      <point x="257" y="628" type="curve" smooth="yes"/>
      <point x="226" y="664"/>
      <point x="210" y="680"/>
      <point x="197" y="680" type="curve" smooth="yes"/>
      <point x="186" y="680"/>
      <point x="162" y="670"/>
      <point x="116" y="617" type="curve" smooth="yes"/>
      <point x="85" y="582"/>
      <point x="66" y="557"/>
      <point x="66" y="519" type="curve" smooth="yes"/>
      <point x="66" y="491"/>
      <point x="80" y="473"/>
      <point x="107" y="443" type="curve"/>
    </contour>
  </outline>
</glyph>
<glyph name="uni1787" format="2">
  <advance width="555"/>
  <unicode hex="1787"/>
  <note>
uni1787
</note>
  <anchor x="284" y="860" name="abvm"/>
  <anchor x="284" y="830" name="abvm_high"/>
  <anchor x="284" y="0" name="blwm"/>
  <outline>
    <contour>
      <point x="168" y="404" type="line"/>
      <point x="91" y="404" type="line"/>
      <point x="91" y="0" type="line"/>
      <point x="168" y="0" type="line"/>
      <point x="284" y="115" type="line"/>
      <point x="401" y="0" type="line"/>
      <point x="478" y="0" type="line"/>
      <point x="478" y="428" type="line"/>
      <point x="401" y="428" type="line"/>
      <point x="401" y="91" type="line"/>
      <point x="284" y="207" type="line"/>
      <point x="168" y="91" type="line"/>
    </contour>
    <contour>
      <point x="168" y="374" type="line"/>
      <point x="168" y="471" type="line"/>
      <point x="133" y="518"/>
      <point x="123" y="531"/>
      <point x="123" y="539" type="curve" smooth="yes"/>
      <point x="123" y="548"/>
      <point x="133" y="564"/>
      <point x="145" y="577" type="curve" smooth="yes"/>
      <point x="153" y="586"/>
      <point x="163" y="595"/>
      <point x="173" y="595" type="curve" smooth="yes"/>
      <point x="181" y="595"/>
      <point x="194" y="584"/>
      <point x="228" y="556" type="curve" smooth="yes"/>
      <point x="267" y="524"/>
      <point x="303" y="499"/>
      <point x="352" y="499" type="curve" smooth="yes"/>
      <point x="430" y="499"/>
      <point x="493" y="563"/>
      <point x="493" y="643" type="curve" smooth="yes"/>
      <point x="493" y="732"/>
      <point x="420" y="780"/>
      <point x="371" y="780" type="curve" smooth="yes"/>
      <point x="332" y="780"/>
      <point x="322" y="749"/>
      <point x="323" y="704" type="curve"/>
      <point x="370" y="715"/>
      <point x="427" y="687"/>
      <point x="427" y="633" type="curve" smooth="yes"/>
      <point x="427" y="594"/>
      <point x="396" y="568"/>
      <point x="358" y="568" type="curve" smooth="yes"/>
      <point x="326" y="568"/>
      <point x="296" y="587"/>
      <point x="253" y="624" type="curve" smooth="yes"/>
      <point x="213" y="659"/>
      <point x="193" y="682"/>
      <point x="180" y="682" type="curve" smooth="yes"/>
      <point x="163" y="682"/>
      <point x="129" y="646"/>
      <point x="98" y="610" type="curve" smooth="yes"/>
      <point x="66" y="573"/>
      <point x="50" y="551"/>
      <point x="50" y="523" type="curve" smooth="yes"/>
      <point x="50" y="497"/>
      <point x="64" y="473"/>
      <point x="91" y="443" type="curve"/>
      <point x="91" y="374" type="line"/>
    </contour>
  </outline>
</glyph>
<glyph name="uni1788" format="2">
  <advance width="1143"/>
  <unicode hex="1788"/>
  <note>
uni1788
</note>
  <anchor x="863" y="760" name="abvm"/>
  <anchor x="875" y="0" name="blwm"/>
  <outline>
    <contour>
      <point x="91" y="305" type="line"/>
      <point x="168" y="305" type="line"/>
      <point x="168" y="463" type="line"/>
      <point x="113" y="515" type="line"/>
      <point x="164" y="578"/>
      <point x="203" y="615"/>
      <point x="242" y="615" type="curve" smooth="yes"/>
      <point x="261" y="615"/>
      <point x="289" y="606"/>
      <point x="329" y="573" type="curve" smooth="yes"/>
      <point x="383" y="528"/>
      <point x="401" y="488"/>
      <point x="401" y="463" type="curve" smooth="yes"/>
      <point x="401" y="146" type="line" smooth="yes"/>
      <point x="401" y="82"/>
      <point x="466" y="0"/>
      <point x="585" y="0" type="curve" smooth="yes"/>
      <point x="640" y="0"/>
      <point x="681" y="16"/>
      <point x="729" y="62" type="curve"/>
      <point x="766" y="18"/>
      <point x="822" y="0"/>
      <point x="874" y="0" type="curve" smooth="yes"/>
      <point x="986" y="0"/>
      <point x="1057" y="82"/>
      <point x="1057" y="146" type="curve" smooth="yes"/>
      <point x="1057" y="389" type="line"/>
      <point x="980" y="389" type="line"/>
      <point x="980" y="146" type="line" smooth="yes"/>
      <point x="980" y="109"/>
      <point x="931" y="67"/>
      <point x="874" y="67" type="curve" smooth="yes"/>
      <point x="817" y="67"/>
      <point x="768" y="109"/>
      <point x="768" y="146" type="curve" smooth="yes"/>
      <point x="768" y="389" type="line"/>
      <point x="691" y="389" type="line"/>
      <point x="691" y="146" type="line" smooth="yes"/>
      <point x="691" y="109"/>
      <point x="642" y="67"/>
      <point x="584" y="67" type="curve" smooth="yes"/>
      <point x="527" y="67"/>
      <point x="478" y="109"/>
      <point x="478" y="146" type="curve" smooth="yes"/>
      <point x="478" y="453" type="line" smooth="yes"/>
      <point x="478" y="543"/>
      <point x="461" y="561"/>
      <point x="387" y="623" type="curve" smooth="yes"/>
      <point x="325" y="675"/>
      <point x="286" y="682"/>
      <point x="257" y="682" type="curve" smooth="yes"/>
      <point x="210" y="682"/>
      <point x="179" y="664"/>
      <point x="125" y="614" type="curve" smooth="yes"/>
      <point x="58" y="551"/>
      <point x="46" y="526"/>
      <point x="46" y="508" type="curve" smooth="yes"/>
      <point x="46" y="493"/>
      <point x="54" y="476"/>
      <point x="91" y="438" type="curve"/>
    </contour>
    <contour>
      <point x="768" y="350" type="line"/>
      <point x="768" y="447" type="line"/>
      <point x="680" y="532" type="line"/>
      <point x="716" y="590" type="line"/>
      <point x="745" y="565"/>
      <point x="761" y="557"/>
      <point x="776" y="557" type="curve" smooth="yes"/>
      <point x="808" y="557"/>
      <point x="831" y="596"/>
      <point x="831" y="629" type="curve"/>
      <point x="788" y="625"/>
      <point x="769" y="638"/>
      <point x="716" y="680" type="curve"/>
      <point x="638" y="552"/>
      <point x="620" y="534"/>
      <point x="620" y="514" type="curve" smooth="yes"/>
      <point x="620" y="499"/>
      <point x="630" y="484"/>
      <point x="691" y="424" type="curve"/>
      <point x="691" y="350" type="line"/>
    </contour>
    <contour>
      <point x="91" y="316" type="line"/>
      <point x="91" y="0" type="line"/>
      <point x="168" y="0" type="line"/>
      <point x="249" y="59"/>
      <point x="260" y="115"/>
      <point x="260" y="151" type="curve" smooth="yes"/>
      <point x="260" y="211"/>
      <point x="230" y="250"/>
      <point x="168" y="246" type="curve"/>
      <point x="168" y="316" type="line"/>
    </contour>
    <contour>
      <point x="168" y="181" type="line"/>
      <point x="187" y="181"/>
      <point x="201" y="175"/>
      <point x="201" y="150" type="curve" smooth="yes"/>
      <point x="201" y="127"/>
      <point x="189" y="105"/>
      <point x="168" y="89" type="curve"/>
    </contour>
    <contour>
      <point x="1057" y="350" type="line"/>
      <point x="1057" y="447" type="line"/>
      <point x="969" y="532" type="line"/>
      <point x="1005" y="590" type="line"/>
      <point x="1034" y="565"/>
      <point x="1050" y="557"/>
      <point x="1065" y="557" type="curve" smooth="yes"/>
      <point x="1097" y="557"/>
      <point x="1120" y="596"/>
      <point x="1120" y="629" type="curve"/>
      <point x="1077" y="625"/>
      <point x="1058" y="638"/>
      <point x="1005" y="680" type="curve"/>
      <point x="927" y="552"/>
      <point x="909" y="534"/>
      <point x="909" y="514" type="curve" smooth="yes"/>
      <point x="909" y="499"/>
      <point x="919" y="484"/>
      <point x="980" y="424" type="curve"/>
      <point x="980" y="350" type="line"/>
    </contour>
  </outline>
</glyph>
<glyph name="uni1789" format="2">
  <advance width="821"/>
  <unicode hex="1789"/>
  <note>
uni1789
</note>
  <anchor x="604" y="760" name="abvm"/>
  <anchor x="567" y="-293" name="blwm"/>
  <anchor x="414" y="0" name="blwm_self"/>
  <outline>
    <contour>
      <point x="640" y="-108" type="curve"/>
      <point x="668" y="-108"/>
      <point x="681" y="-123"/>
      <point x="681" y="-154" type="curve" smooth="yes"/>
      <point x="681" y="-204"/>
      <point x="646" y="-228"/>
      <point x="603" y="-228" type="curve" smooth="yes"/>
      <point x="564" y="-228"/>
      <point x="527" y="-209"/>
      <point x="455" y="-146" type="curve" smooth="yes"/>
      <point x="383" y="-83"/>
      <point x="325" y="-49"/>
      <point x="247" y="-49" type="curve" smooth="yes"/>
      <point x="166" y="-49"/>
      <point x="97" y="-86"/>
      <point x="76" y="-165" type="curve"/>
      <point x="93" y="-165" type="line"/>
      <point x="131" y="-128"/>
      <point x="184" y="-106"/>
      <point x="239" y="-106" type="curve" smooth="yes"/>
      <point x="291" y="-106"/>
      <point x="349" y="-126"/>
      <point x="414" y="-182" type="curve" smooth="yes"/>
      <point x="480" y="-239"/>
      <point x="524" y="-293"/>
      <point x="599" y="-293" type="curve" smooth="yes"/>
      <point x="672" y="-293"/>
      <point x="743" y="-244"/>
      <point x="743" y="-134" type="curve" smooth="yes"/>
      <point x="743" y="-82"/>
      <point x="728" y="-49"/>
      <point x="689" y="-49" type="curve" smooth="yes"/>
      <point x="657" y="-49"/>
      <point x="640" y="-73"/>
    </contour>
    <contour>
      <point x="376" y="512" type="curve" smooth="yes"/>
      <point x="376" y="0" type="line"/>
      <point x="453" y="0" type="line"/>
      <point x="453" y="512" type="line" smooth="yes"/>
      <point x="453" y="582"/>
      <point x="504" y="615"/>
      <point x="559" y="615" type="curve" smooth="yes"/>
      <point x="614" y="615"/>
      <point x="666" y="582"/>
      <point x="666" y="512" type="curve" smooth="yes"/>
      <point x="666" y="0" type="line"/>
      <point x="743" y="0" type="line"/>
      <point x="743" y="512" type="line" smooth="yes"/>
      <point x="743" y="628"/>
      <point x="668" y="682"/>
      <point x="559" y="682" type="curve" smooth="yes"/>
      <point x="451" y="682"/>
      <point x="376" y="628"/>
    </contour>
    <contour>
      <point x="66" y="305" type="line"/>
      <point x="143" y="305" type="line"/>
      <point x="143" y="499" type="line"/>
      <point x="118" y="526"/>
      <point x="104" y="547"/>
      <point x="104" y="558" type="curve" smooth="yes"/>
      <point x="104" y="563"/>
      <point x="107" y="570"/>
      <point x="114" y="577" type="curve" smooth="yes"/>
      <point x="120" y="583"/>
      <point x="128" y="588"/>
      <point x="134" y="588" type="curve" smooth="yes"/>
      <point x="158" y="588"/>
      <point x="188" y="518"/>
      <point x="228" y="518" type="curve" smooth="yes"/>
      <point x="268" y="518"/>
      <point x="296" y="591"/>
      <point x="327" y="591" type="curve" smooth="yes"/>
      <point x="348" y="591"/>
      <point x="376" y="557"/>
      <point x="376" y="521" type="curve" smooth="yes"/>
      <point x="376" y="0" type="line"/>
      <point x="453" y="0" type="line"/>
      <point x="453" y="521" type="line" smooth="yes"/>
      <point x="453" y="598"/>
      <point x="393" y="682"/>
      <point x="340" y="682" type="curve" smooth="yes"/>
      <point x="321" y="682"/>
      <point x="310" y="672"/>
      <point x="287" y="644" type="curve" smooth="yes"/>
      <point x="267" y="619"/>
      <point x="253" y="602"/>
      <point x="247" y="602" type="curve" smooth="yes"/>
      <point x="242" y="602"/>
      <point x="228" y="618"/>
      <point x="210" y="639" type="curve" smooth="yes"/>
      <point x="185" y="669"/>
      <point x="167" y="682"/>
      <point x="154" y="682" type="curve" smooth="yes"/>
      <point x="136" y="682"/>
      <point x="102" y="657"/>
      <point x="76" y="628" type="curve" smooth="yes"/>
      <point x="45" y="595"/>
      <point x="23" y="558"/>
      <point x="23" y="543" type="curve" smooth="yes"/>
      <point x="23" y="530"/>
      <point x="38" y="503"/>
      <point x="66" y="469" type="curve"/>
    </contour>
    <contour>
      <point x="66" y="316" type="line"/>
      <point x="66" y="0" type="line"/>
      <point x="143" y="0" type="line"/>
      <point x="224" y="59"/>
      <point x="235" y="115"/>
      <point x="235" y="151" type="curve" smooth="yes"/>
      <point x="235" y="211"/>
      <point x="205" y="250"/>
      <point x="143" y="246" type="curve"/>
      <point x="143" y="316" type="line"/>
    </contour>
    <contour>
      <point x="143" y="181" type="line"/>
      <point x="162" y="181"/>
      <point x="176" y="175"/>
      <point x="176" y="150" type="curve" smooth="yes"/>
      <point x="176" y="127"/>
      <point x="164" y="105"/>
      <point x="143" y="89" type="curve"/>
    </contour>
  </outline>
</glyph>
<glyph name="uni178A" format="2">
  <advance width="567"/>
  <unicode hex="178A"/>
  <note>
uni178A
</note>
  <anchor x="283" y="840" name="abvm"/>
  <anchor x="262" y="770" name="abvm_high"/>
  <anchor x="283" y="0" name="blwm"/>
  <outline>
    <contour>
      <point x="90" y="447" type="line"/>
      <point x="90" y="0" type="line"/>
      <point x="167" y="0" type="line"/>
      <point x="283" y="115" type="line"/>
      <point x="400" y="0" type="line"/>
      <point x="477" y="0" type="line"/>
      <point x="477" y="437" type="line"/>
      <point x="400" y="437" type="line"/>
      <point x="400" y="91" type="line"/>
      <point x="283" y="207" type="line"/>
      <point x="167" y="91" type="line"/>
      <point x="167" y="413" type="line"/>
    </contour>
    <contour>
      <point x="211" y="610" type="curve" smooth="yes"/>
      <point x="211" y="590"/>
      <point x="193" y="568"/>
      <point x="176" y="558" type="curve"/>
      <point x="231" y="524" type="line"/>
      <point x="260" y="560"/>
      <point x="270" y="582"/>
      <point x="270" y="614" type="curve" smooth="yes"/>
      <point x="270" y="667"/>
      <point x="241" y="705"/>
      <point x="186" y="705" type="curve" smooth="yes"/>
      <point x="122" y="705"/>
      <point x="90" y="654"/>
      <point x="90" y="599" type="curve" smooth="yes"/>
      <point x="90" y="513"/>
      <point x="162" y="466"/>
      <point x="262" y="466" type="curve" smooth="yes"/>
      <point x="405" y="466"/>
      <point x="477" y="559"/>
      <point x="477" y="659" type="curve" smooth="yes"/>
      <point x="477" y="722"/>
      <point x="448" y="783"/>
      <point x="401" y="783" type="curve" smooth="yes"/>
      <point x="363" y="783"/>
      <point x="326" y="743"/>
      <point x="345" y="694" type="curve"/>
      <point x="382" y="701"/>
      <point x="400" y="668"/>
      <point x="400" y="629" type="curve" smooth="yes"/>
      <point x="400" y="572"/>
      <point x="361" y="532"/>
      <point x="280" y="532" type="curve" smooth="yes"/>
      <point x="204" y="532"/>
      <point x="149" y="567"/>
      <point x="149" y="607" type="curve" smooth="yes"/>
      <point x="149" y="628"/>
      <point x="163" y="638"/>
      <point x="180" y="638" type="curve" smooth="yes"/>
      <point x="200" y="638"/>
      <point x="211" y="626"/>
    </contour>
  </outline>
</glyph>
<glyph name="uni178B" format="2">
  <advance width="579"/>
  <unicode hex="178B"/>
  <note>
uni178B
</note>
  <anchor x="300" y="850" name="abvm"/>
  <anchor x="300" y="0" name="blwm"/>
  <outline>
    <contour>
      <point x="485" y="379" type="line"/>
      <point x="408" y="379" type="line"/>
      <point x="408" y="146" type="line" smooth="yes"/>
      <point x="408" y="108"/>
      <point x="361" y="67"/>
      <point x="300" y="67" type="curve" smooth="yes"/>
      <point x="242" y="67"/>
      <point x="192" y="106"/>
      <point x="192" y="146" type="curve" smooth="yes"/>
      <point x="192" y="379" type="line"/>
      <point x="115" y="379" type="line"/>
      <point x="115" y="146" type="line" smooth="yes"/>
      <point x="115" y="72"/>
      <point x="198" y="0"/>
      <point x="300" y="0" type="curve" smooth="yes"/>
      <point x="400" y="0"/>
      <point x="485" y="70"/>
      <point x="485" y="146" type="curve" smooth="yes"/>
    </contour>
    <contour>
      <point x="192" y="342" type="line"/>
      <point x="192" y="631" type="line" smooth="yes"/>
      <point x="192" y="663"/>
      <point x="171" y="679"/>
      <point x="139" y="679" type="curve" smooth="yes"/>
      <point x="75" y="679"/>
      <point x="13" y="617"/>
      <point x="13" y="537" type="curve" smooth="yes"/>
      <point x="13" y="489"/>
      <point x="36" y="420"/>
      <point x="115" y="420" type="curve"/>
      <point x="115" y="342" type="line"/>
    </contour>
    <contour>
      <point x="115" y="488" type="line"/>
      <point x="82" y="488"/>
      <point x="73" y="519"/>
      <point x="73" y="538" type="curve" smooth="yes"/>
      <point x="73" y="559"/>
      <point x="84" y="590"/>
      <point x="115" y="602" type="curve"/>
    </contour>
    <contour>
      <point x="408" y="326" type="line"/>
      <point x="485" y="326" type="line"/>
      <point x="485" y="447" type="line"/>
      <point x="397" y="532" type="line"/>
      <point x="434" y="591" type="line"/>
      <point x="445" y="583"/>
      <point x="460" y="580"/>
      <point x="474" y="580" type="curve" smooth="yes"/>
      <point x="526" y="580"/>
      <point x="569" y="622"/>
      <point x="569" y="687" type="curve" smooth="yes"/>
      <point x="569" y="748"/>
      <point x="527" y="779"/>
      <point x="500" y="779" type="curve" smooth="yes"/>
      <point x="484" y="779"/>
      <point x="456" y="764"/>
      <point x="459" y="722" type="curve"/>
      <point x="497" y="722"/>
      <point x="519" y="701"/>
      <point x="519" y="680" type="curve" smooth="yes"/>
      <point x="519" y="659"/>
      <point x="497" y="650"/>
      <point x="481" y="650" type="curve" smooth="yes"/>
      <point x="468" y="650"/>
      <point x="456" y="655"/>
      <point x="433" y="679" type="curve"/>
      <point x="355" y="551"/>
      <point x="337" y="521"/>
      <point x="337" y="510" type="curve" smooth="yes"/>
      <point x="337" y="493"/>
      <point x="347" y="484"/>
      <point x="408" y="424" type="curve"/>
    </contour>
  </outline>
</glyph>
<glyph name="uni178E" format="2">
  <advance width="1142"/>
  <unicode hex="178E"/>
  <note>
uni178E
</note>
  <anchor x="586" y="760" name="abvm"/>
  <anchor x="586" y="0" name="blwm"/>
  <outline>
    <contour>
      <point x="113" y="306" type="line"/>
      <point x="190" y="306" type="line"/>
      <point x="190" y="463" type="line"/>
      <point x="135" y="515" type="line"/>
      <point x="199" y="587"/>
      <point x="233" y="615"/>
      <point x="268" y="615" type="curve" smooth="yes"/>
      <point x="329" y="615"/>
      <point x="403" y="530"/>
      <point x="403" y="464" type="curve" smooth="yes"/>
      <point x="403" y="0" type="line"/>
      <point x="480" y="0" type="line"/>
      <point x="586" y="105" type="line"/>
      <point x="692" y="0" type="line"/>
      <point x="769" y="0" type="line"/>
      <point x="769" y="463" type="line"/>
      <point x="714" y="515" type="line"/>
      <point x="778" y="587"/>
      <point x="812" y="615"/>
      <point x="847" y="615" type="curve" smooth="yes"/>
      <point x="908" y="615"/>
      <point x="982" y="530"/>
      <point x="982" y="464" type="curve" smooth="yes"/>
      <point x="982" y="0" type="line"/>
      <point x="1059" y="0" type="line"/>
      <point x="1059" y="463" type="line" smooth="yes"/>
      <point x="1059" y="524"/>
      <point x="1038" y="573"/>
      <point x="993" y="618" type="curve" smooth="yes"/>
      <point x="941" y="669"/>
      <point x="899" y="682"/>
      <point x="866" y="682" type="curve" smooth="yes"/>
      <point x="822" y="682"/>
      <point x="781" y="660"/>
      <point x="731" y="616" type="curve" smooth="yes"/>
      <point x="659" y="552"/>
      <point x="647" y="523"/>
      <point x="647" y="505" type="curve" smooth="yes"/>
      <point x="647" y="490"/>
      <point x="656" y="476"/>
      <point x="692" y="438" type="curve"/>
      <point x="692" y="91" type="line"/>
      <point x="586" y="196" type="line"/>
      <point x="480" y="91" type="line"/>
      <point x="480" y="463" type="line" smooth="yes"/>
      <point x="480" y="524"/>
      <point x="459" y="573"/>
      <point x="414" y="618" type="curve" smooth="yes"/>
      <point x="362" y="670"/>
      <point x="320" y="682"/>
      <point x="287" y="682" type="curve" smooth="yes"/>
      <point x="243" y="682"/>
      <point x="202" y="660"/>
      <point x="151" y="616" type="curve" smooth="yes"/>
      <point x="79" y="554"/>
      <point x="68" y="523"/>
      <point x="68" y="505" type="curve" smooth="yes"/>
      <point x="68" y="490"/>
      <point x="76" y="476"/>
      <point x="113" y="438" type="curve"/>
    </contour>
    <contour>
      <point x="113" y="316" type="line"/>
      <point x="113" y="0" type="line"/>
      <point x="190" y="0" type="line"/>
      <point x="271" y="59"/>
      <point x="282" y="115"/>
      <point x="282" y="151" type="curve" smooth="yes"/>
      <point x="282" y="211"/>
      <point x="252" y="250"/>
      <point x="190" y="246" type="curve"/>
      <point x="190" y="316" type="line"/>
    </contour>
    <contour>
      <point x="190" y="181" type="line"/>
      <point x="209" y="181"/>
      <point x="223" y="175"/>
      <point x="223" y="150" type="curve" smooth="yes"/>
      <point x="223" y="127"/>
      <point x="211" y="105"/>
      <point x="190" y="89" type="curve"/>
    </contour>
  </outline>
</glyph>
<glyph name="uni1790" format="2">
  <advance width="565"/>
  <unicode hex="1790"/>
  <note>
uni1790
</note>
  <anchor x="283" y="860" name="abvm"/>
  <anchor x="284" y="840" name="abvm_high"/>
  <anchor x="289" y="0" name="blwm"/>
  <outline>
    <contour>
      <point x="172" y="410" type="line"/>
      <point x="95" y="410" type="line"/>
      <point x="95" y="146" type="line" smooth="yes"/>
      <point x="95" y="70"/>
      <point x="183" y="0"/>
      <point x="288" y="0" type="curve" smooth="yes"/>
      <point x="393" y="0"/>
      <point x="482" y="70"/>
      <point x="482" y="146" type="curve" smooth="yes"/>
      <point x="482" y="204" type="line"/>
      <point x="405" y="204" type="line"/>
      <point x="405" y="146" type="line" smooth="yes"/>
      <point x="405" y="104"/>
      <point x="353" y="67"/>
      <point x="288" y="67" type="curve" smooth="yes"/>
      <point x="223" y="67"/>
      <point x="172" y="104"/>
      <point x="172" y="146" type="curve" smooth="yes"/>
    </contour>
    <contour>
      <point x="482" y="176" type="line"/>
      <point x="482" y="385" type="line" smooth="yes"/>
      <point x="482" y="418"/>
      <point x="465" y="438"/>
      <point x="427" y="438" type="curve" smooth="yes"/>
      <point x="366" y="438"/>
      <point x="313" y="394"/>
      <point x="313" y="323" type="curve" smooth="yes"/>
      <point x="313" y="259"/>
      <point x="356" y="218"/>
      <point x="405" y="218" type="curve"/>
      <point x="405" y="176" type="line"/>
    </contour>
    <contour>
      <point x="405" y="285" type="line"/>
      <point x="387" y="285"/>
      <point x="367" y="298"/>
      <point x="367" y="328" type="curve" smooth="yes"/>
      <point x="367" y="358"/>
      <point x="386" y="376"/>
      <point x="405" y="376" type="curve"/>
    </contour>
    <contour>
      <point x="172" y="374" type="line"/>
      <point x="172" y="471" type="line"/>
      <point x="137" y="518"/>
      <point x="127" y="531"/>
      <point x="127" y="539" type="curve" smooth="yes"/>
      <point x="127" y="548"/>
      <point x="137" y="564"/>
      <point x="149" y="577" type="curve" smooth="yes"/>
      <point x="157" y="586"/>
      <point x="167" y="595"/>
      <point x="177" y="595" type="curve" smooth="yes"/>
      <point x="185" y="595"/>
      <point x="198" y="584"/>
      <point x="232" y="556" type="curve" smooth="yes"/>
      <point x="271" y="524"/>
      <point x="307" y="499"/>
      <point x="356" y="499" type="curve" smooth="yes"/>
      <point x="434" y="499"/>
      <point x="497" y="563"/>
      <point x="497" y="643" type="curve" smooth="yes"/>
      <point x="497" y="732"/>
      <point x="424" y="780"/>
      <point x="375" y="780" type="curve" smooth="yes"/>
      <point x="336" y="780"/>
      <point x="326" y="749"/>
      <point x="327" y="704" type="curve"/>
      <point x="374" y="715"/>
      <point x="431" y="687"/>
      <point x="431" y="633" type="curve" smooth="yes"/>
      <point x="431" y="594"/>
      <point x="400" y="568"/>
      <point x="362" y="568" type="curve" smooth="yes"/>
      <point x="330" y="568"/>
      <point x="300" y="587"/>
      <point x="257" y="624" type="curve" smooth="yes"/>
      <point x="217" y="659"/>
      <point x="197" y="682"/>
      <point x="184" y="682" type="curve" smooth="yes"/>
      <point x="167" y="682"/>
      <point x="133" y="646"/>
      <point x="102" y="610" type="curve" smooth="yes"/>
      <point x="70" y="573"/>
      <point x="54" y="551"/>
      <point x="54" y="523" type="curve" smooth="yes"/>
      <point x="54" y="497"/>
      <point x="68" y="473"/>
      <point x="95" y="443" type="curve"/>
      <point x="95" y="374" type="line"/>
    </contour>
  </outline>
</glyph>
<glyph name="uni1791" format="2">
  <advance width="513"/>
  <unicode hex="1791"/>
  <note>
uni1791
</note>
  <anchor x="242" y="760" name="abvm"/>
  <anchor x="237" y="0" name="blwm"/>
  <outline>
    <contour>
      <point x="112" y="180" type="line"/>
      <point x="112" y="137" type="line" smooth="yes"/>
      <point x="112" y="57"/>
      <point x="149" y="0"/>
      <point x="233" y="0" type="curve" smooth="yes"/>
      <point x="317" y="0"/>
      <point x="358" y="57"/>
      <point x="358" y="137" type="curve" smooth="yes"/>
      <point x="358" y="221" type="line"/>
      <point x="418" y="229"/>
      <point x="446" y="266"/>
      <point x="446" y="305" type="curve" smooth="yes"/>
      <point x="446" y="341"/>
      <point x="423" y="366"/>
      <point x="381" y="366" type="curve" smooth="yes"/>
      <point x="322" y="366"/>
      <point x="290" y="319"/>
      <point x="282" y="288" type="curve"/>
      <point x="247" y="288" type="line" smooth="yes"/>
      <point x="177" y="288"/>
      <point x="131" y="339"/>
      <point x="131" y="421" type="curve" smooth="yes"/>
      <point x="131" y="536" type="line" smooth="yes"/>
      <point x="131" y="576"/>
      <point x="180" y="615"/>
      <point x="253" y="615" type="curve" smooth="yes"/>
      <point x="316" y="615"/>
      <point x="364" y="586"/>
      <point x="364" y="546" type="curve"/>
      <point x="327" y="546"/>
      <point x="300" y="528"/>
      <point x="300" y="480" type="curve" smooth="yes"/>
      <point x="300" y="437"/>
      <point x="319" y="413"/>
      <point x="371" y="413" type="curve" smooth="yes"/>
      <point x="415" y="413"/>
      <point x="441" y="430"/>
      <point x="441" y="485" type="curve" smooth="yes"/>
      <point x="441" y="539" type="line" smooth="yes"/>
      <point x="441" y="615"/>
      <point x="364" y="682"/>
      <point x="251" y="682" type="curve" smooth="yes"/>
      <point x="139" y="682"/>
      <point x="54" y="614"/>
      <point x="54" y="536" type="curve" smooth="yes"/>
      <point x="54" y="421" type="line" smooth="yes"/>
      <point x="54" y="306"/>
      <point x="129" y="221"/>
      <point x="247" y="221" type="curve" smooth="yes"/>
      <point x="282" y="221" type="line"/>
      <point x="282" y="137" type="line" smooth="yes"/>
      <point x="282" y="87"/>
      <point x="267" y="67"/>
      <point x="233" y="67" type="curve" smooth="yes"/>
      <point x="199" y="67"/>
      <point x="184" y="87"/>
      <point x="184" y="137" type="curve" smooth="yes"/>
      <point x="184" y="180" type="line"/>
    </contour>
    <contour>
      <point x="387" y="319" type="curve" smooth="yes"/>
      <point x="394" y="319"/>
      <point x="398" y="314"/>
      <point x="398" y="309" type="curve" smooth="yes"/>
      <point x="398" y="300"/>
      <point x="386" y="288"/>
      <point x="358" y="288" type="curve"/>
      <point x="363" y="304"/>
      <point x="374" y="319"/>
    </contour>
    <contour>
      <point x="364" y="451" type="line"/>
      <point x="347" y="451"/>
      <point x="341" y="465"/>
      <point x="341" y="481" type="curve" smooth="yes"/>
      <point x="341" y="497"/>
      <point x="347" y="510"/>
      <point x="364" y="510" type="curve"/>
    </contour>
  </outline>
</glyph>
<glyph name="uni1792" format="2">
  <advance width="561"/>
  <unicode hex="1792"/>
  <note>
uni1792
</note>
  <anchor x="284" y="760" name="abvm"/>
  <anchor x="284" y="0" name="blwm"/>
  <outline>
    <contour>
      <point x="91" y="401" type="line"/>
      <point x="168" y="401" type="line"/>
      <point x="168" y="471" type="line"/>
      <point x="128" y="523"/>
      <point x="125" y="530"/>
      <point x="125" y="540" type="curve" smooth="yes"/>
      <point x="125" y="550"/>
      <point x="129" y="558"/>
      <point x="138" y="567" type="curve" smooth="yes"/>
      <point x="145" y="575"/>
      <point x="153" y="579"/>
      <point x="161" y="579" type="curve" smooth="yes"/>
      <point x="173" y="579"/>
      <point x="179" y="574"/>
      <point x="210" y="540" type="curve" smooth="yes"/>
      <point x="233" y="514"/>
      <point x="253" y="500"/>
      <point x="271" y="500" type="curve" smooth="yes"/>
      <point x="287" y="500"/>
      <point x="304" y="510"/>
      <point x="322" y="535" type="curve" smooth="yes"/>
      <point x="339" y="560"/>
      <point x="351" y="574"/>
      <point x="367" y="574" type="curve" smooth="yes"/>
      <point x="406" y="574"/>
      <point x="413" y="500"/>
      <point x="459" y="500" type="curve" smooth="yes"/>
      <point x="481" y="500"/>
      <point x="510" y="533"/>
      <point x="518" y="582" type="curve"/>
      <point x="493" y="573"/>
      <point x="473" y="585"/>
      <point x="458" y="604" type="curve" smooth="yes"/>
      <point x="421" y="652" type="line" smooth="yes"/>
      <point x="405" y="672"/>
      <point x="394" y="680"/>
      <point x="385" y="680" type="curve" smooth="yes"/>
      <point x="372" y="680"/>
      <point x="354" y="663"/>
      <point x="328" y="628" type="curve" smooth="yes"/>
      <point x="303" y="596"/>
      <point x="295" y="586"/>
      <point x="286" y="586" type="curve" smooth="yes"/>
      <point x="275" y="586"/>
      <point x="268" y="595"/>
      <point x="241" y="628" type="curve" smooth="yes"/>
      <point x="210" y="664"/>
      <point x="194" y="680"/>
      <point x="181" y="680" type="curve" smooth="yes"/>
      <point x="170" y="680"/>
      <point x="146" y="670"/>
      <point x="100" y="617" type="curve" smooth="yes"/>
      <point x="69" y="582"/>
      <point x="50" y="557"/>
      <point x="50" y="519" type="curve" smooth="yes"/>
      <point x="50" y="491"/>
      <point x="64" y="473"/>
      <point x="91" y="443" type="curve"/>
    </contour>
    <contour>
      <point x="168" y="425" type="line"/>
      <point x="91" y="425" type="line"/>
      <point x="91" y="0" type="line"/>
      <point x="168" y="0" type="line"/>
      <point x="284" y="115" type="line"/>
      <point x="401" y="0" type="line"/>
      <point x="478" y="0" type="line"/>
      <point x="478" y="196" type="line"/>
      <point x="401" y="196" type="line"/>
      <point x="401" y="91" type="line"/>
      <point x="284" y="207" type="line"/>
      <point x="168" y="91" type="line"/>
    </contour>
    <contour>
      <point x="478" y="186" type="line"/>
      <point x="478" y="395" type="line" smooth="yes"/>
      <point x="478" y="428"/>
      <point x="461" y="448"/>
      <point x="423" y="448" type="curve" smooth="yes"/>
      <point x="362" y="448"/>
      <point x="309" y="404"/>
      <point x="309" y="333" type="curve" smooth="yes"/>
      <point x="309" y="269"/>
      <point x="352" y="228"/>
      <point x="401" y="228" type="curve"/>
      <point x="401" y="186" type="line"/>
    </contour>
    <contour>
      <point x="401" y="295" type="line"/>
      <point x="383" y="295"/>
      <point x="363" y="308"/>
      <point x="363" y="338" type="curve" smooth="yes"/>
      <point x="363" y="368"/>
      <point x="382" y="386"/>
      <point x="401" y="386" type="curve"/>
    </contour>
  </outline>
</glyph>
<glyph name="uni1793" format="2">
  <advance width="560"/>
  <unicode hex="1793"/>
  <note>
uni1793
</note>
  <anchor x="282" y="760" name="abvm"/>
  <anchor x="282" y="0" name="blwm"/>
  <outline>
    <contour>
      <point x="400" y="525" type="line"/>
      <point x="477" y="525" type="line"/>
      <point x="477" y="536" type="line" smooth="yes"/>
      <point x="477" y="612"/>
      <point x="400" y="682"/>
      <point x="283" y="682" type="curve" smooth="yes"/>
      <point x="168" y="682"/>
      <point x="90" y="614"/>
      <point x="90" y="536" type="curve" smooth="yes"/>
      <point x="90" y="463" type="line" smooth="yes"/>
      <point x="90" y="390"/>
      <point x="144" y="330"/>
      <point x="251" y="286" type="curve" smooth="yes"/>
      <point x="400" y="224" type="line"/>
      <point x="400" y="135" type="line" smooth="yes"/>
      <point x="400" y="96"/>
      <point x="389" y="67"/>
      <point x="353" y="67" type="curve" smooth="yes"/>
      <point x="324" y="67"/>
      <point x="312" y="87"/>
      <point x="280" y="116" type="curve" smooth="yes"/>
      <point x="243" y="150"/>
      <point x="203" y="183"/>
      <point x="167" y="185" type="curve"/>
      <point x="167" y="235" type="line"/>
      <point x="90" y="279" type="line"/>
      <point x="90" y="0" type="line"/>
      <point x="167" y="0" type="line"/>
      <point x="167" y="118" type="line"/>
      <point x="194" y="116"/>
      <point x="218" y="97"/>
      <point x="238" y="76" type="curve" smooth="yes"/>
      <point x="272" y="40"/>
      <point x="310" y="0"/>
      <point x="368" y="0" type="curve" smooth="yes"/>
      <point x="428" y="0"/>
      <point x="477" y="36"/>
      <point x="477" y="122" type="curve" smooth="yes"/>
      <point x="477" y="263" type="line"/>
      <point x="282" y="345" type="line" smooth="yes"/>
      <point x="205" y="377"/>
      <point x="167" y="418"/>
      <point x="167" y="463" type="curve" smooth="yes"/>
      <point x="167" y="536" type="line" smooth="yes"/>
      <point x="167" y="576"/>
      <point x="216" y="615"/>
      <point x="283" y="615" type="curve" smooth="yes"/>
      <point x="348" y="615"/>
      <point x="400" y="578"/>
      <point x="400" y="536" type="curve" smooth="yes"/>
    </contour>
    <contour>
      <point x="400" y="534" type="line"/>
      <point x="400" y="507" type="line"/>
      <point x="360" y="506"/>
      <point x="334" y="476"/>
      <point x="334" y="432" type="curve" smooth="yes"/>
      <point x="334" y="386"/>
      <point x="362" y="353"/>
      <point x="412" y="353" type="curve" smooth="yes"/>
      <point x="453" y="353"/>
      <point x="477" y="374"/>
      <point x="477" y="407" type="curve" smooth="yes"/>
      <point x="477" y="534" type="line"/>
    </contour>
    <contour>
      <point x="400" y="468" type="curve"/>
      <point x="400" y="394" type="line"/>
      <point x="384" y="394"/>
      <point x="375" y="414"/>
      <point x="375" y="433" type="curve" smooth="yes"/>
      <point x="375" y="453"/>
      <point x="385" y="467"/>
    </contour>
  </outline>
</glyph>
<glyph name="uni1795" format="2">
  <advance width="561"/>
  <unicode hex="1795"/>
  <note>
uni1795
</note>
  <anchor x="264" y="860" name="abvm"/>
  <anchor x="265" y="810" name="abvm_high"/>
  <anchor x="290" y="0" name="blwm"/>
  <outline>
    <contour>
      <point x="168" y="374" type="line"/>
      <point x="168" y="471" type="line"/>
      <point x="133" y="518"/>
      <point x="123" y="531"/>
      <point x="123" y="539" type="curve" smooth="yes"/>
      <point x="123" y="548"/>
      <point x="133" y="564"/>
      <point x="145" y="577" type="curve" smooth="yes"/>
      <point x="153" y="586"/>
      <point x="163" y="595"/>
      <point x="173" y="595" type="curve" smooth="yes"/>
      <point x="181" y="595"/>
      <point x="194" y="584"/>
      <point x="228" y="556" type="curve" smooth="yes"/>
      <point x="267" y="524"/>
      <point x="303" y="499"/>
      <point x="352" y="499" type="curve" smooth="yes"/>
      <point x="430" y="499"/>
      <point x="493" y="563"/>
      <point x="493" y="643" type="curve" smooth="yes"/>
      <point x="493" y="732"/>
      <point x="420" y="780"/>
      <point x="371" y="780" type="curve" smooth="yes"/>
      <point x="332" y="780"/>
      <point x="322" y="749"/>
      <point x="323" y="704" type="curve"/>
      <point x="370" y="715"/>
      <point x="427" y="687"/>
      <point x="427" y="633" type="curve" smooth="yes"/>
      <point x="427" y="594"/>
      <point x="396" y="568"/>
      <point x="358" y="568" type="curve" smooth="yes"/>
      <point x="326" y="568"/>
      <point x="296" y="587"/>
      <point x="253" y="624" type="curve" smooth="yes"/>
      <point x="213" y="659"/>
      <point x="193" y="682"/>
      <point x="180" y="682" type="curve" smooth="yes"/>
      <point x="163" y="682"/>
      <point x="129" y="646"/>
      <point x="98" y="610" type="curve" smooth="yes"/>
      <point x="66" y="573"/>
      <point x="50" y="551"/>
      <point x="50" y="523" type="curve" smooth="yes"/>
      <point x="50" y="497"/>
      <point x="64" y="473"/>
      <point x="91" y="443" type="curve"/>
      <point x="91" y="374" type="line"/>
    </contour>
    <contour>
      <point x="168" y="425" type="line"/>
      <point x="91" y="425" type="line"/>
      <point x="91" y="0" type="line"/>
      <point x="168" y="0" type="line"/>
      <point x="284" y="115" type="line"/>
      <point x="401" y="0" type="line"/>
      <point x="478" y="0" type="line"/>
      <point x="478" y="196" type="line"/>
      <point x="401" y="196" type="line"/>
      <point x="401" y="91" type="line"/>
      <point x="284" y="207" type="line"/>
      <point x="168" y="91" type="line"/>
    </contour>
    <contour>
      <point x="478" y="186" type="line"/>
      <point x="478" y="395" type="line" smooth="yes"/>
      <point x="478" y="428"/>
      <point x="461" y="448"/>
      <point x="423" y="448" type="curve" smooth="yes"/>
      <point x="362" y="448"/>
      <point x="309" y="404"/>
      <point x="309" y="333" type="curve" smooth="yes"/>
      <point x="309" y="269"/>
      <point x="352" y="228"/>
      <point x="401" y="228" type="curve"/>
      <point x="401" y="186" type="line"/>
    </contour>
    <contour>
      <point x="401" y="295" type="line"/>
      <point x="383" y="295"/>
      <point x="363" y="308"/>
      <point x="363" y="338" type="curve" smooth="yes"/>
      <point x="363" y="368"/>
      <point x="382" y="386"/>
      <point x="401" y="386" type="curve"/>
    </contour>
  </outline>
</glyph>
<glyph name="uni1796" format="2">
  <advance width="562"/>
  <unicode hex="1796"/>
  <note>
uni1796
</note>
  <anchor x="261" y="760" name="abvm"/>
  <anchor x="288" y="0" name="blwm"/>
  <outline>
    <contour>
      <point x="95" y="305" type="line"/>
      <point x="172" y="305" type="line"/>
      <point x="172" y="499" type="line"/>
      <point x="147" y="526"/>
      <point x="133" y="547"/>
      <point x="133" y="558" type="curve" smooth="yes"/>
      <point x="133" y="563"/>
      <point x="136" y="570"/>
      <point x="143" y="577" type="curve" smooth="yes"/>
      <point x="149" y="583"/>
      <point x="157" y="588"/>
      <point x="163" y="588" type="curve" smooth="yes"/>
      <point x="187" y="588"/>
      <point x="217" y="518"/>
      <point x="257" y="518" type="curve" smooth="yes"/>
      <point x="297" y="518"/>
      <point x="325" y="591"/>
      <point x="356" y="591" type="curve" smooth="yes"/>
      <point x="377" y="591"/>
      <point x="405" y="557"/>
      <point x="405" y="521" type="curve" smooth="yes"/>
      <point x="405" y="0" type="line"/>
      <point x="482" y="0" type="line"/>
      <point x="482" y="521" type="line" smooth="yes"/>
      <point x="482" y="598"/>
      <point x="422" y="682"/>
      <point x="369" y="682" type="curve" smooth="yes"/>
      <point x="350" y="682"/>
      <point x="339" y="672"/>
      <point x="316" y="644" type="curve" smooth="yes"/>
      <point x="296" y="619"/>
      <point x="282" y="602"/>
      <point x="276" y="602" type="curve" smooth="yes"/>
      <point x="271" y="602"/>
      <point x="257" y="618"/>
      <point x="239" y="639" type="curve" smooth="yes"/>
      <point x="214" y="669"/>
      <point x="196" y="682"/>
      <point x="183" y="682" type="curve" smooth="yes"/>
      <point x="165" y="682"/>
      <point x="131" y="657"/>
      <point x="105" y="628" type="curve" smooth="yes"/>
      <point x="74" y="595"/>
      <point x="52" y="558"/>
      <point x="52" y="543" type="curve" smooth="yes"/>
      <point x="52" y="530"/>
      <point x="67" y="503"/>
      <point x="95" y="469" type="curve"/>
    </contour>
    <contour>
      <point x="95" y="316" type="line"/>
      <point x="95" y="0" type="line"/>
      <point x="172" y="0" type="line"/>
      <point x="253" y="59"/>
      <point x="264" y="115"/>
      <point x="264" y="151" type="curve" smooth="yes"/>
      <point x="264" y="211"/>
      <point x="234" y="250"/>
      <point x="172" y="246" type="curve"/>
      <point x="172" y="316" type="line"/>
    </contour>
    <contour>
      <point x="172" y="181" type="line"/>
      <point x="191" y="181"/>
      <point x="205" y="175"/>
      <point x="205" y="150" type="curve" smooth="yes"/>
      <point x="205" y="127"/>
      <point x="193" y="105"/>
      <point x="172" y="89" type="curve"/>
    </contour>
  </outline>
</glyph>
<glyph name="uni1797" format="2">
  <advance width="597"/>
  <unicode hex="1797"/>
  <note>
uni1797
</note>
  <anchor x="314" y="760" name="abvm"/>
  <anchor x="309" y="728" name="abvm_high"/>
  <anchor x="329" y="0" name="blwm"/>
  <outline>
    <contour>
      <point x="141" y="278" type="line"/>
      <point x="217" y="278" type="line"/>
      <point x="217" y="316" type="line" smooth="yes"/>
      <point x="217" y="355"/>
      <point x="265" y="392"/>
      <point x="324" y="392" type="curve" smooth="yes"/>
      <point x="380" y="392"/>
      <point x="431" y="358"/>
      <point x="431" y="316" type="curve" smooth="yes"/>
      <point x="431" y="0" type="line"/>
      <point x="507" y="0" type="line"/>
      <point x="507" y="316" type="line" smooth="yes"/>
      <point x="507" y="391"/>
      <point x="424" y="459"/>
      <point x="324" y="459" type="curve" smooth="yes"/>
      <point x="227" y="459"/>
      <point x="141" y="393"/>
      <point x="141" y="316" type="curve" smooth="yes"/>
    </contour>
    <contour>
      <point x="217" y="296" type="line"/>
      <point x="141" y="296" type="line"/>
      <point x="141" y="244" type="line"/>
      <point x="66" y="242"/>
      <point x="48" y="183"/>
      <point x="48" y="145" type="curve" smooth="yes"/>
      <point x="48" y="111"/>
      <point x="62" y="67"/>
      <point x="141" y="0" type="curve"/>
      <point x="217" y="0" type="line"/>
    </contour>
    <contour>
      <point x="141" y="84" type="line"/>
      <point x="116" y="101"/>
      <point x="104" y="121"/>
      <point x="104" y="143" type="curve" smooth="yes"/>
      <point x="104" y="162"/>
      <point x="113" y="175"/>
      <point x="141" y="176" type="curve"/>
    </contour>
    <contour>
      <point x="198" y="471" type="line"/>
      <point x="162" y="497"/>
      <point x="151" y="510"/>
      <point x="151" y="536" type="curve" smooth="yes"/>
      <point x="151" y="553"/>
      <point x="155" y="564"/>
      <point x="162" y="574" type="curve" smooth="yes"/>
      <point x="170" y="585"/>
      <point x="180" y="590"/>
      <point x="190" y="590" type="curve" smooth="yes"/>
      <point x="201" y="590"/>
      <point x="211" y="583"/>
      <point x="236" y="558" type="curve" smooth="yes"/>
      <point x="261" y="533"/>
      <point x="276" y="520"/>
      <point x="294" y="520" type="curve" smooth="yes"/>
      <point x="311" y="520"/>
      <point x="330" y="532"/>
      <point x="351" y="553" type="curve" smooth="yes"/>
      <point x="368" y="570"/>
      <point x="386" y="588"/>
      <point x="396" y="588" type="curve" smooth="yes"/>
      <point x="425" y="588"/>
      <point x="443" y="520"/>
      <point x="487" y="520" type="curve" smooth="yes"/>
      <point x="505" y="520"/>
      <point x="535" y="532"/>
      <point x="537" y="586" type="curve"/>
      <point x="513" y="583"/>
      <point x="491" y="591"/>
      <point x="479" y="606" type="curve" smooth="yes"/>
      <point x="446" y="649" type="line" smooth="yes"/>
      <point x="425" y="677"/>
      <point x="411" y="685"/>
      <point x="403" y="685" type="curve" smooth="yes"/>
      <point x="393" y="685"/>
      <point x="375" y="665"/>
      <point x="350" y="637" type="curve" smooth="yes"/>
      <point x="328" y="612"/>
      <point x="314" y="598"/>
      <point x="303" y="598" type="curve" smooth="yes"/>
      <point x="292" y="598"/>
      <point x="277" y="612"/>
      <point x="260" y="632" type="curve" smooth="yes"/>
      <point x="230" y="668"/>
      <point x="212" y="686"/>
      <point x="201" y="686" type="curve" smooth="yes"/>
      <point x="186" y="686"/>
      <point x="161" y="660"/>
      <point x="124" y="618" type="curve" smooth="yes"/>
      <point x="93" y="582"/>
      <point x="83" y="555"/>
      <point x="83" y="525" type="curve" smooth="yes"/>
      <point x="83" y="478"/>
      <point x="106" y="453"/>
      <point x="146" y="426" type="curve"/>
    </contour>
  </outline>
</glyph>
<glyph name="uni1799" format="2">
  <advance width="885"/>
  <unicode hex="1799"/>
  <note>
uni1799
</note>
  <anchor x="614" y="760" name="abvm"/>
  <anchor x="622" y="0" name="blwm"/>
  <outline>
    <contour>
      <point x="799" y="350" type="line"/>
      <point x="799" y="447" type="line"/>
      <point x="711" y="532" type="line"/>
      <point x="747" y="590" type="line"/>
      <point x="776" y="565"/>
      <point x="792" y="557"/>
      <point x="807" y="557" type="curve" smooth="yes"/>
      <point x="839" y="557"/>
      <point x="862" y="596"/>
      <point x="862" y="629" type="curve"/>
      <point x="819" y="625"/>
      <point x="800" y="638"/>
      <point x="747" y="680" type="curve"/>
      <point x="669" y="552"/>
      <point x="651" y="534"/>
      <point x="651" y="514" type="curve" smooth="yes"/>
      <point x="651" y="499"/>
      <point x="661" y="484"/>
      <point x="722" y="424" type="curve"/>
      <point x="722" y="350" type="line"/>
    </contour>
    <contour>
      <point x="799" y="390" type="line"/>
      <point x="722" y="390" type="line"/>
      <point x="722" y="146" type="line" smooth="yes"/>
      <point x="722" y="109"/>
      <point x="673" y="67"/>
      <point x="615" y="67" type="curve" smooth="yes"/>
      <point x="558" y="67"/>
      <point x="509" y="109"/>
      <point x="509" y="146" type="curve" smooth="yes"/>
      <point x="509" y="390" type="line"/>
      <point x="432" y="390" type="line"/>
      <point x="432" y="146" type="line" smooth="yes"/>
      <point x="432" y="109"/>
      <point x="383" y="67"/>
      <point x="315" y="67" type="curve" smooth="yes"/>
      <point x="251" y="67"/>
      <point x="199" y="103"/>
      <point x="199" y="146" type="curve" smooth="yes"/>
      <point x="199" y="438" type="line"/>
      <point x="257" y="451"/>
      <point x="294" y="508"/>
      <point x="294" y="568" type="curve" smooth="yes"/>
      <point x="294" y="632"/>
      <point x="254" y="682"/>
      <point x="191" y="682" type="curve" smooth="yes"/>
      <point x="148" y="682"/>
      <point x="122" y="659"/>
      <point x="122" y="621" type="curve" smooth="yes"/>
      <point x="122" y="146" type="line" smooth="yes"/>
      <point x="122" y="82"/>
      <point x="196" y="0"/>
      <point x="315" y="0" type="curve" smooth="yes"/>
      <point x="375" y="0"/>
      <point x="427" y="10"/>
      <point x="470" y="62" type="curve"/>
      <point x="506" y="19"/>
      <point x="560" y="0"/>
      <point x="615" y="0" type="curve" smooth="yes"/>
      <point x="724" y="0"/>
      <point x="799" y="82"/>
      <point x="799" y="146" type="curve" smooth="yes"/>
    </contour>
    <contour>
      <point x="199" y="621" type="line"/>
      <point x="227" y="618"/>
      <point x="240" y="592"/>
      <point x="240" y="565" type="curve" smooth="yes"/>
      <point x="240" y="529"/>
      <point x="218" y="507"/>
      <point x="199" y="506" type="curve"/>
    </contour>
    <contour>
      <point x="509" y="350" type="line"/>
      <point x="509" y="447" type="line"/>
      <point x="421" y="532" type="line"/>
      <point x="457" y="590" type="line"/>
      <point x="486" y="565"/>
      <point x="502" y="557"/>
      <point x="517" y="557" type="curve" smooth="yes"/>
      <point x="549" y="557"/>
      <point x="572" y="596"/>
      <point x="572" y="629" type="curve"/>
      <point x="529" y="625"/>
      <point x="510" y="638"/>
      <point x="457" y="680" type="curve"/>
      <point x="379" y="552"/>
      <point x="361" y="534"/>
      <point x="361" y="514" type="curve" smooth="yes"/>
      <point x="361" y="499"/>
      <point x="371" y="484"/>
      <point x="432" y="424" type="curve"/>
      <point x="432" y="350" type="line"/>
    </contour>
  </outline>
</glyph>
<glyph name="uni179A" format="2">
  <advance width="333"/>
  <unicode hex="179A"/>
  <note>
uni179A
</note>
  <anchor x="202" y="760" name="abvm"/>
  <anchor x="206" y="0" name="blwm"/>
  <outline>
    <contour>
      <point x="250" y="392" type="line"/>
      <point x="173" y="392" type="line"/>
      <point x="173" y="244" type="line"/>
      <point x="98" y="242"/>
      <point x="80" y="184"/>
      <point x="80" y="146" type="curve" smooth="yes"/>
      <point x="80" y="112"/>
      <point x="94" y="67"/>
      <point x="173" y="0" type="curve"/>
      <point x="250" y="0" type="line"/>
    </contour>
    <contour>
      <point x="173" y="84" type="line"/>
      <point x="148" y="101"/>
      <point x="136" y="121"/>
      <point x="136" y="143" type="curve" smooth="yes"/>
      <point x="136" y="162"/>
      <point x="145" y="175"/>
      <point x="173" y="176" type="curve"/>
    </contour>
    <contour>
      <point x="250" y="350" type="line"/>
      <point x="250" y="447" type="line"/>
      <point x="162" y="532" type="line"/>
      <point x="198" y="590" type="line"/>
      <point x="227" y="565"/>
      <point x="243" y="557"/>
      <point x="258" y="557" type="curve" smooth="yes"/>
      <point x="290" y="557"/>
      <point x="313" y="596"/>
      <point x="313" y="629" type="curve"/>
      <point x="270" y="625"/>
      <point x="251" y="638"/>
      <point x="198" y="680" type="curve"/>
      <point x="120" y="552"/>
      <point x="102" y="534"/>
      <point x="102" y="514" type="curve" smooth="yes"/>
      <point x="102" y="499"/>
      <point x="112" y="484"/>
      <point x="173" y="424" type="curve"/>
      <point x="173" y="350" type="line"/>
    </contour>
  </outline>
</glyph>
<glyph name="uni179B" format="2">
  <advance width="854"/>
  <unicode hex="179B"/>
  <note>
uni179B
</note>
  <anchor x="584" y="760" name="abvm"/>
  <anchor x="584" y="0" name="blwm"/>
  <outline>
    <contour>
      <point x="91" y="297" type="line"/>
      <point x="168" y="297" type="line"/>
      <point x="168" y="463" type="line"/>
      <point x="113" y="515" type="line"/>
      <point x="177" y="586"/>
      <point x="219" y="615"/>
      <point x="259" y="615" type="curve" smooth="yes"/>
      <point x="327" y="615"/>
      <point x="401" y="530"/>
      <point x="401" y="463" type="curve" smooth="yes"/>
      <point x="401" y="146" type="line" smooth="yes"/>
      <point x="401" y="82"/>
      <point x="475" y="0"/>
      <point x="584" y="0" type="curve" smooth="yes"/>
      <point x="693" y="0"/>
      <point x="768" y="82"/>
      <point x="768" y="146" type="curve" smooth="yes"/>
      <point x="768" y="394" type="line"/>
      <point x="691" y="394" type="line"/>
      <point x="691" y="146" type="line" smooth="yes"/>
      <point x="691" y="109"/>
      <point x="642" y="67"/>
      <point x="584" y="67" type="curve" smooth="yes"/>
      <point x="527" y="67"/>
      <point x="478" y="109"/>
      <point x="478" y="146" type="curve" smooth="yes"/>
      <point x="478" y="463" type="line" smooth="yes"/>
      <point x="478" y="524"/>
      <point x="453" y="569"/>
      <point x="392" y="619" type="curve" smooth="yes"/>
      <point x="328" y="671"/>
      <point x="294" y="682"/>
      <point x="261" y="682" type="curve" smooth="yes"/>
      <point x="218" y="682"/>
      <point x="183" y="664"/>
      <point x="129" y="614" type="curve" smooth="yes"/>
      <point x="63" y="554"/>
      <point x="46" y="526"/>
      <point x="46" y="506" type="curve" smooth="yes"/>
      <point x="46" y="493"/>
      <point x="54" y="476"/>
      <point x="91" y="438" type="curve"/>
    </contour>
    <contour>
      <point x="91" y="316" type="line"/>
      <point x="91" y="0" type="line"/>
      <point x="168" y="0" type="line"/>
      <point x="249" y="59"/>
      <point x="260" y="115"/>
      <point x="260" y="151" type="curve" smooth="yes"/>
      <point x="260" y="211"/>
      <point x="230" y="250"/>
      <point x="168" y="246" type="curve"/>
      <point x="168" y="316" type="line"/>
    </contour>
    <contour>
      <point x="168" y="181" type="line"/>
      <point x="187" y="181"/>
      <point x="201" y="175"/>
      <point x="201" y="150" type="curve" smooth="yes"/>
      <point x="201" y="127"/>
      <point x="189" y="105"/>
      <point x="168" y="89" type="curve"/>
    </contour>
    <contour>
      <point x="768" y="350" type="line"/>
      <point x="768" y="447" type="line"/>
      <point x="680" y="532" type="line"/>
      <point x="716" y="590" type="line"/>
      <point x="745" y="565"/>
      <point x="761" y="557"/>
      <point x="776" y="557" type="curve" smooth="yes"/>
      <point x="808" y="557"/>
      <point x="831" y="596"/>
      <point x="831" y="629" type="curve"/>
      <point x="788" y="625"/>
      <point x="769" y="638"/>
      <point x="716" y="680" type="curve"/>
      <point x="638" y="552"/>
      <point x="620" y="534"/>
      <point x="620" y="514" type="curve" smooth="yes"/>
      <point x="620" y="499"/>
      <point x="630" y="484"/>
      <point x="691" y="424" type="curve"/>
      <point x="691" y="350" type="line"/>
    </contour>
  </outline>
</glyph>
<glyph name="uni179C" format="2">
  <advance width="277"/>
  <unicode hex="179C"/>
  <note>
uni179C
</note>
  <anchor x="150" y="840" name="abvm"/>
  <anchor x="150" y="0" name="blwm"/>
  <outline>
    <contour>
      <point x="193" y="392" type="line"/>
      <point x="116" y="392" type="line"/>
      <point x="116" y="244" type="line"/>
      <point x="41" y="242"/>
      <point x="23" y="184"/>
      <point x="23" y="146" type="curve" smooth="yes"/>
      <point x="23" y="112"/>
      <point x="37" y="67"/>
      <point x="116" y="0" type="curve"/>
      <point x="193" y="0" type="line"/>
    </contour>
    <contour>
      <point x="116" y="84" type="line"/>
      <point x="91" y="101"/>
      <point x="79" y="121"/>
      <point x="79" y="143" type="curve" smooth="yes"/>
      <point x="79" y="162"/>
      <point x="88" y="175"/>
      <point x="116" y="176" type="curve"/>
    </contour>
    <contour>
      <point x="116" y="326" type="line"/>
      <point x="193" y="326" type="line"/>
      <point x="193" y="447" type="line"/>
      <point x="105" y="532" type="line"/>
      <point x="142" y="591" type="line"/>
      <point x="153" y="583"/>
      <point x="168" y="580"/>
      <point x="182" y="580" type="curve" smooth="yes"/>
      <point x="234" y="580"/>
      <point x="277" y="622"/>
      <point x="277" y="687" type="curve" smooth="yes"/>
      <point x="277" y="748"/>
      <point x="235" y="779"/>
      <point x="208" y="779" type="curve" smooth="yes"/>
      <point x="192" y="779"/>
      <point x="164" y="764"/>
      <point x="167" y="722" type="curve"/>
      <point x="205" y="722"/>
      <point x="227" y="701"/>
      <point x="227" y="680" type="curve" smooth="yes"/>
      <point x="227" y="659"/>
      <point x="205" y="650"/>
      <point x="189" y="650" type="curve" smooth="yes"/>
      <point x="176" y="650"/>
      <point x="164" y="655"/>
      <point x="141" y="679" type="curve"/>
      <point x="63" y="551"/>
      <point x="45" y="521"/>
      <point x="45" y="510" type="curve" smooth="yes"/>
      <point x="45" y="493"/>
      <point x="55" y="484"/>
      <point x="116" y="424" type="curve"/>
    </contour>
  </outline>
</glyph>
<glyph name="uni179E" format="2">
  <advance width="581"/>
  <unicode hex="179E"/>
  <note>
uni179E
</note>
  <anchor x="296" y="760" name="abvm"/>
  <anchor x="311" y="0" name="blwm"/>
  <outline>
    <contour>
      <point x="355" y="286" type="line"/>
      <point x="558" y="286" type="line"/>
      <point x="558" y="353" type="line"/>
      <point x="355" y="353" type="line"/>
    </contour>
    <contour>
      <point x="489" y="379" type="line"/>
      <point x="412" y="379" type="line"/>
      <point x="412" y="146" type="line" smooth="yes"/>
      <point x="412" y="108"/>
      <point x="365" y="67"/>
      <point x="304" y="67" type="curve" smooth="yes"/>
      <point x="246" y="67"/>
      <point x="196" y="106"/>
      <point x="196" y="146" type="curve" smooth="yes"/>
      <point x="196" y="379" type="line"/>
      <point x="119" y="379" type="line"/>
      <point x="119" y="146" type="line" smooth="yes"/>
      <point x="119" y="72"/>
      <point x="202" y="0"/>
      <point x="304" y="0" type="curve" smooth="yes"/>
      <point x="404" y="0"/>
      <point x="489" y="70"/>
      <point x="489" y="146" type="curve" smooth="yes"/>
    </contour>
    <contour>
      <point x="196" y="350" type="line"/>
      <point x="196" y="447" type="line"/>
      <point x="108" y="532" type="line"/>
      <point x="144" y="590" type="line"/>
      <point x="173" y="565"/>
      <point x="189" y="557"/>
      <point x="204" y="557" type="curve" smooth="yes"/>
      <point x="236" y="557"/>
      <point x="259" y="596"/>
      <point x="259" y="629" type="curve"/>
      <point x="216" y="625"/>
      <point x="197" y="638"/>
      <point x="144" y="680" type="curve"/>
      <point x="66" y="552"/>
      <point x="48" y="534"/>
      <point x="48" y="514" type="curve" smooth="yes"/>
      <point x="48" y="499"/>
      <point x="58" y="484"/>
      <point x="119" y="424" type="curve"/>
      <point x="119" y="350" type="line"/>
    </contour>
    <contour>
      <point x="489" y="350" type="line"/>
      <point x="489" y="447" type="line"/>
      <point x="401" y="532" type="line"/>
      <point x="437" y="590" type="line"/>
      <point x="466" y="565"/>
      <point x="482" y="557"/>
      <point x="497" y="557" type="curve" smooth="yes"/>
      <point x="529" y="557"/>
      <point x="552" y="596"/>
      <point x="552" y="629" type="curve"/>
      <point x="509" y="625"/>
      <point x="490" y="638"/>
      <point x="437" y="680" type="curve"/>
      <point x="359" y="552"/>
      <point x="341" y="534"/>
      <point x="341" y="514" type="curve" smooth="yes"/>
      <point x="341" y="499"/>
      <point x="351" y="484"/>
      <point x="412" y="424" type="curve"/>
      <point x="412" y="350" type="line"/>
    </contour>
  </outline>
</glyph>
<glyph name="uni179F" format="2">
  <advance width="861"/>
  <unicode hex="179F"/>
  <note>
uni179F
</note>
  <anchor x="562" y="760" name="abvm"/>
  <anchor x="588" y="0" name="blwm"/>
  <anchor x="437" y="0" name="blwm_nno"/>
  <outline>
    <contour>
      <point x="294" y="462" type="curve" smooth="yes"/>
      <point x="177" y="462"/>
      <point x="98" y="399"/>
      <point x="98" y="316" type="curve" smooth="yes"/>
      <point x="98" y="268" type="line"/>
      <point x="175" y="268" type="line"/>
      <point x="175" y="319" type="line" smooth="yes"/>
      <point x="175" y="359"/>
      <point x="223" y="395"/>
      <point x="292" y="395" type="curve" smooth="yes"/>
      <point x="357" y="395"/>
      <point x="408" y="360"/>
      <point x="408" y="319" type="curve" smooth="yes"/>
      <point x="408" y="146" type="line" smooth="yes"/>
      <point x="408" y="82"/>
      <point x="472" y="0"/>
      <point x="591" y="0" type="curve" smooth="yes"/>
      <point x="710" y="0"/>
      <point x="775" y="82"/>
      <point x="775" y="146" type="curve" smooth="yes"/>
      <point x="775" y="396" type="line"/>
      <point x="698" y="396" type="line"/>
      <point x="698" y="146" type="line" smooth="yes"/>
      <point x="698" y="109"/>
      <point x="659" y="67"/>
      <point x="591" y="67" type="curve" smooth="yes"/>
      <point x="524" y="67"/>
      <point x="485" y="109"/>
      <point x="485" y="146" type="curve" smooth="yes"/>
      <point x="485" y="316" type="line" smooth="yes"/>
      <point x="485" y="399"/>
      <point x="411" y="462"/>
    </contour>
    <contour>
      <point x="295" y="448" type="line"/>
      <point x="208" y="534" type="line"/>
      <point x="245" y="592" type="line"/>
      <point x="261" y="579"/>
      <point x="288" y="558"/>
      <point x="306" y="558" type="curve" smooth="yes"/>
      <point x="331" y="558"/>
      <point x="354" y="593"/>
      <point x="354" y="630" type="curve"/>
      <point x="315" y="630"/>
      <point x="284" y="652"/>
      <point x="242" y="682" type="curve"/>
      <point x="152" y="540"/>
      <point x="146" y="526"/>
      <point x="146" y="509" type="curve" smooth="yes"/>
      <point x="146" y="494"/>
      <point x="171" y="468"/>
      <point x="211" y="428" type="curve"/>
    </contour>
    <contour>
      <point x="98" y="316" type="line"/>
      <point x="98" y="0" type="line"/>
      <point x="175" y="0" type="line"/>
      <point x="256" y="59"/>
      <point x="267" y="115"/>
      <point x="267" y="151" type="curve" smooth="yes"/>
      <point x="267" y="211"/>
      <point x="237" y="250"/>
      <point x="175" y="246" type="curve"/>
      <point x="175" y="316" type="line"/>
    </contour>
    <contour>
      <point x="175" y="181" type="line"/>
      <point x="194" y="181"/>
      <point x="208" y="175"/>
      <point x="208" y="150" type="curve" smooth="yes"/>
      <point x="208" y="127"/>
      <point x="196" y="105"/>
      <point x="175" y="89" type="curve"/>
    </contour>
    <contour>
      <point x="775" y="350" type="line"/>
      <point x="775" y="447" type="line"/>
      <point x="687" y="532" type="line"/>
      <point x="723" y="590" type="line"/>
      <point x="752" y="565"/>
      <point x="768" y="557"/>
      <point x="783" y="557" type="curve" smooth="yes"/>
      <point x="815" y="557"/>
      <point x="838" y="596"/>
      <point x="838" y="629" type="curve"/>
      <point x="795" y="625"/>
      <point x="776" y="638"/>
      <point x="723" y="680" type="curve"/>
      <point x="645" y="552"/>
      <point x="627" y="534"/>
      <point x="627" y="514" type="curve" smooth="yes"/>
      <point x="627" y="499"/>
      <point x="637" y="484"/>
      <point x="698" y="424" type="curve"/>
      <point x="698" y="350" type="line"/>
    </contour>
  </outline>
</glyph>
<glyph name="uni17A1" format="2">
  <advance width="813"/>
  <unicode hex="17A1"/>
  <note>
uni17A1
</note>
  <anchor x="559" y="760" name="abvm"/>
  <anchor x="493" y="-320" name="blwm"/>
  <outline>
    <contour>
      <point x="674" y="350" type="line"/>
      <point x="674" y="447" type="line"/>
      <point x="586" y="532" type="line"/>
      <point x="622" y="590" type="line"/>
      <point x="651" y="565"/>
      <point x="667" y="557"/>
      <point x="682" y="557" type="curve" smooth="yes"/>
      <point x="714" y="557"/>
      <point x="737" y="596"/>
      <point x="737" y="629" type="curve"/>
      <point x="694" y="625"/>
      <point x="675" y="638"/>
      <point x="622" y="680" type="curve"/>
      <point x="544" y="552"/>
      <point x="526" y="534"/>
      <point x="526" y="514" type="curve" smooth="yes"/>
      <point x="526" y="499"/>
      <point x="536" y="484"/>
      <point x="597" y="424" type="curve"/>
      <point x="597" y="350" type="line"/>
    </contour>
    <contour>
      <point x="112" y="180" type="line"/>
      <point x="112" y="137" type="line" smooth="yes"/>
      <point x="112" y="57"/>
      <point x="149" y="0"/>
      <point x="233" y="0" type="curve" smooth="yes"/>
      <point x="317" y="0"/>
      <point x="358" y="57"/>
      <point x="358" y="137" type="curve" smooth="yes"/>
      <point x="358" y="221" type="line"/>
      <point x="418" y="229"/>
      <point x="446" y="266"/>
      <point x="446" y="305" type="curve" smooth="yes"/>
      <point x="446" y="341"/>
      <point x="423" y="366"/>
      <point x="381" y="366" type="curve" smooth="yes"/>
      <point x="322" y="366"/>
      <point x="290" y="319"/>
      <point x="282" y="288" type="curve"/>
      <point x="247" y="288" type="line" smooth="yes"/>
      <point x="177" y="288"/>
      <point x="131" y="339"/>
      <point x="131" y="421" type="curve" smooth="yes"/>
      <point x="131" y="536" type="line" smooth="yes"/>
      <point x="131" y="576"/>
      <point x="180" y="615"/>
      <point x="253" y="615" type="curve" smooth="yes"/>
      <point x="316" y="615"/>
      <point x="364" y="586"/>
      <point x="364" y="546" type="curve"/>
      <point x="327" y="546"/>
      <point x="300" y="528"/>
      <point x="300" y="480" type="curve" smooth="yes"/>
      <point x="300" y="437"/>
      <point x="319" y="413"/>
      <point x="371" y="413" type="curve" smooth="yes"/>
      <point x="415" y="413"/>
      <point x="441" y="430"/>
      <point x="441" y="485" type="curve" smooth="yes"/>
      <point x="441" y="539" type="line" smooth="yes"/>
      <point x="441" y="615"/>
      <point x="364" y="682"/>
      <point x="251" y="682" type="curve" smooth="yes"/>
      <point x="139" y="682"/>
      <point x="54" y="614"/>
      <point x="54" y="536" type="curve" smooth="yes"/>
      <point x="54" y="421" type="line" smooth="yes"/>
      <point x="54" y="306"/>
      <point x="129" y="221"/>
      <point x="247" y="221" type="curve" smooth="yes"/>
      <point x="282" y="221" type="line"/>
      <point x="282" y="137" type="line" smooth="yes"/>
      <point x="282" y="87"/>
      <point x="267" y="67"/>
      <point x="233" y="67" type="curve" smooth="yes"/>
      <point x="199" y="67"/>
      <point x="184" y="87"/>
      <point x="184" y="137" type="curve" smooth="yes"/>
      <point x="184" y="180" type="line"/>
    </contour>
    <contour>
      <point x="387" y="319" type="curve" smooth="yes"/>
      <point x="394" y="319"/>
      <point x="398" y="314"/>
      <point x="398" y="309" type="curve" smooth="yes"/>
      <point x="398" y="300"/>
      <point x="386" y="288"/>
      <point x="358" y="288" type="curve"/>
      <point x="363" y="304"/>
      <point x="374" y="319"/>
    </contour>
    <contour>
      <point x="364" y="451" type="line"/>
      <point x="347" y="451"/>
      <point x="341" y="465"/>
      <point x="341" y="481" type="curve" smooth="yes"/>
      <point x="341" y="497"/>
      <point x="347" y="510"/>
      <point x="364" y="510" type="curve"/>
    </contour>
    <contour>
      <point x="383" y="-177" type="line"/>
      <point x="306" y="-177" type="line"/>
      <point x="306" y="-317" type="line"/>
      <point x="383" y="-317" type="line"/>
      <point x="490" y="-212" type="line"/>
      <point x="597" y="-317" type="line"/>
      <point x="674" y="-317" type="line"/>
      <point x="674" y="384" type="line"/>
      <point x="597" y="384" type="line"/>
      <point x="597" y="-227" type="line"/>
      <point x="490" y="-121" type="line"/>
      <point x="383" y="-227" type="line"/>
    </contour>
    <contour>
      <point x="306" y="-191" type="line"/>
      <point x="383" y="-191" type="line"/>
      <point x="383" y="-98" type="line" smooth="yes"/>
      <point x="383" y="-65"/>
      <point x="363" y="-49"/>
      <point x="330" y="-49" type="curve" smooth="yes"/>
      <point x="287" y="-49"/>
      <point x="260" y="-78"/>
      <point x="260" y="-118" type="curve" smooth="yes"/>
      <point x="260" y="-149"/>
      <point x="276" y="-177"/>
      <point x="306" y="-178" type="curve"/>
    </contour>
  </outline>
</glyph>
<glyph name="uni17A3" format="2">
  <advance width="586"/>
  <unicode hex="17A3"/>
  <note>
uni17A3
</note>
  <anchor x="292" y="760" name="abvm"/>
  <anchor x="303" y="0" name="blwm"/>
  <outline>
    <contour>
      <point x="503" y="350" type="line"/>
      <point x="503" y="447" type="line"/>
      <point x="415" y="532" type="line"/>
      <point x="451" y="590" type="line"/>
      <point x="480" y="565"/>
      <point x="496" y="557"/>
      <point x="511" y="557" type="curve" smooth="yes"/>
      <point x="543" y="557"/>
      <point x="566" y="596"/>
      <point x="566" y="629" type="curve"/>
      <point x="523" y="625"/>
      <point x="504" y="638"/>
      <point x="451" y="680" type="curve"/>
      <point x="373" y="552"/>
      <point x="355" y="534"/>
      <point x="355" y="514" type="curve" smooth="yes"/>
      <point x="355" y="499"/>
      <point x="365" y="484"/>
      <point x="426" y="424" type="curve"/>
      <point x="426" y="350" type="line"/>
    </contour>
    <contour>
      <point x="426" y="284" type="line"/>
      <point x="503" y="284" type="line"/>
      <point x="503" y="407" type="line"/>
      <point x="426" y="407" type="line"/>
      <point x="426" y="374" type="line"/>
      <point x="193" y="374" type="line"/>
      <point x="193" y="407" type="line"/>
      <point x="116" y="407" type="line"/>
      <point x="116" y="284" type="line"/>
      <point x="193" y="284" type="line"/>
      <point x="193" y="307" type="line"/>
      <point x="426" y="307" type="line"/>
    </contour>
    <contour>
      <point x="193" y="350" type="line"/>
      <point x="193" y="447" type="line"/>
      <point x="105" y="532" type="line"/>
      <point x="141" y="590" type="line"/>
      <point x="170" y="565"/>
      <point x="186" y="557"/>
      <point x="201" y="557" type="curve" smooth="yes"/>
      <point x="233" y="557"/>
      <point x="256" y="596"/>
      <point x="256" y="629" type="curve"/>
      <point x="213" y="625"/>
      <point x="194" y="638"/>
      <point x="141" y="680" type="curve"/>
      <point x="63" y="552"/>
      <point x="45" y="534"/>
      <point x="45" y="514" type="curve" smooth="yes"/>
      <point x="45" y="499"/>
      <point x="55" y="484"/>
      <point x="116" y="424" type="curve"/>
      <point x="116" y="350" type="line"/>
    </contour>
    <contour>
      <point x="503" y="392" type="line"/>
      <point x="426" y="392" type="line"/>
      <point x="426" y="244" type="line"/>
      <point x="351" y="242"/>
      <point x="333" y="184"/>
      <point x="333" y="146" type="curve" smooth="yes"/>
      <point x="333" y="112"/>
      <point x="347" y="67"/>
      <point x="426" y="0" type="curve"/>
      <point x="503" y="0" type="line"/>
    </contour>
    <contour>
      <point x="426" y="84" type="line"/>
      <point x="401" y="101"/>
      <point x="389" y="121"/>
      <point x="389" y="143" type="curve" smooth="yes"/>
      <point x="389" y="162"/>
      <point x="398" y="175"/>
      <point x="426" y="176" type="curve"/>
    </contour>
    <contour>
      <point x="193" y="392" type="line"/>
      <point x="116" y="392" type="line"/>
      <point x="116" y="244" type="line"/>
      <point x="41" y="242"/>
      <point x="23" y="184"/>
      <point x="23" y="146" type="curve" smooth="yes"/>
      <point x="23" y="112"/>
      <point x="37" y="67"/>
      <point x="116" y="0" type="curve"/>
      <point x="193" y="0" type="line"/>
    </contour>
    <contour>
      <point x="116" y="84" type="line"/>
      <point x="91" y="101"/>
      <point x="79" y="121"/>
      <point x="79" y="143" type="curve" smooth="yes"/>
      <point x="79" y="162"/>
      <point x="88" y="175"/>
      <point x="116" y="176" type="curve"/>
    </contour>
  </outline>
</glyph>
<glyph name="uni17A5" format="2">
  <advance width="590"/>
  <unicode hex="17A5"/>
  <note>
uni17A5
</note>
  <outline>
    <contour>
      <point x="122" y="280" type="line"/>
      <point x="199" y="280" type="line"/>
      <point x="199" y="366" type="line" smooth="yes"/>
      <point x="199" y="406"/>
      <point x="247" y="446"/>
      <point x="315" y="446" type="curve" smooth="yes"/>
      <point x="381" y="446"/>
      <point x="432" y="408"/>
      <point x="432" y="366" type="curve" smooth="yes"/>
      <point x="432" y="0" type="line"/>
      <point x="509" y="0" type="line"/>
      <point x="509" y="366" type="line" smooth="yes"/>
      <point x="509" y="442"/>
      <point x="425" y="513"/>
      <point x="315" y="513" type="curve" smooth="yes"/>
      <point x="208" y="513"/>
      <point x="122" y="444"/>
      <point x="122" y="366" type="curve" smooth="yes"/>
    </contour>
    <contour>
      <point x="122" y="316" type="line"/>
      <point x="122" y="0" type="line"/>
      <point x="199" y="0" type="line"/>
      <point x="280" y="59"/>
      <point x="291" y="115"/>
      <point x="291" y="151" type="curve" smooth="yes"/>
      <point x="291" y="211"/>
      <point x="261" y="250"/>
      <point x="199" y="246" type="curve"/>
      <point x="199" y="316" type="line"/>
    </contour>
    <contour>
      <point x="199" y="181" type="line"/>
      <point x="218" y="181"/>
      <point x="232" y="175"/>
      <point x="232" y="150" type="curve" smooth="yes"/>
      <point x="232" y="127"/>
      <point x="220" y="105"/>
      <point x="199" y="89" type="curve"/>
    </contour>
    <contour>
      <point x="136" y="498" type="curve"/>
      <point x="199" y="543" type="line"/>
      <point x="176" y="566"/>
      <point x="168" y="580"/>
      <point x="168" y="592" type="curve" smooth="yes"/>
      <point x="168" y="600"/>
      <point x="176" y="611"/>
      <point x="185" y="621" type="curve" smooth="yes"/>
      <point x="194" y="631"/>
      <point x="205" y="638"/>
      <point x="212" y="638" type="curve" smooth="yes"/>
      <point x="225" y="638"/>
      <point x="234" y="631"/>
      <point x="268" y="603" type="curve" smooth="yes"/>
      <point x="306" y="571"/>
      <point x="345" y="555"/>
      <point x="397" y="555" type="curve" smooth="yes"/>
      <point x="472" y="555"/>
      <point x="524" y="610"/>
      <point x="524" y="702" type="curve" smooth="yes"/>
      <point x="524" y="779"/>
      <point x="474" y="835"/>
      <point x="403" y="835" type="curve" smooth="yes"/>
      <point x="377" y="835"/>
      <point x="363" y="793"/>
      <point x="368" y="759" type="curve"/>
      <point x="415" y="770"/>
      <point x="468" y="745"/>
      <point x="468" y="698" type="curve" smooth="yes"/>
      <point x="468" y="653"/>
      <point x="447" y="620"/>
      <point x="408" y="620" type="curve" smooth="yes"/>
      <point x="376" y="620"/>
      <point x="342" y="648"/>
      <point x="299" y="683" type="curve" smooth="yes"/>
      <point x="258" y="717"/>
      <point x="247" y="737"/>
      <point x="229" y="737" type="curve" smooth="yes"/>
      <point x="217" y="737"/>
      <point x="175" y="699"/>
      <point x="143" y="665" type="curve" smooth="yes"/>
      <point x="114" y="635"/>
      <point x="95" y="604"/>
      <point x="95" y="583" type="curve" smooth="yes"/>
      <point x="95" y="550"/>
      <point x="109" y="528"/>
    </contour>
  </outline>
</glyph>
<glyph name="uni17A6" format="2">
  <advance width="894"/>
  <unicode hex="17A6"/>
  <note>
uni17A6
</note>
  <outline>
    <contour>
      <point x="722" y="359" type="line"/>
      <point x="722" y="-130" type="line" smooth="yes"/>
      <point x="722" y="-205"/>
      <point x="697" y="-250"/>
      <point x="601" y="-250" type="curve" smooth="yes"/>
      <point x="538" y="-250"/>
      <point x="489" y="-233"/>
      <point x="489" y="-165" type="curve" smooth="yes"/>
      <point x="489" y="-100"/>
      <point x="427" y="-24"/>
      <point x="315" y="-24" type="curve" smooth="yes"/>
      <point x="204" y="-24"/>
      <point x="142" y="-106"/>
      <point x="142" y="-171" type="curve" smooth="yes"/>
      <point x="142" y="-269" type="line" smooth="yes"/>
      <point x="142" y="-301"/>
      <point x="160" y="-317"/>
      <point x="193" y="-317" type="curve" smooth="yes"/>
      <point x="228" y="-317"/>
      <point x="270" y="-291"/>
      <point x="270" y="-241" type="curve" smooth="yes"/>
      <point x="270" y="-207"/>
      <point x="251" y="-195"/>
      <point x="219" y="-195" type="curve"/>
      <point x="219" y="-171" type="line" smooth="yes"/>
      <point x="219" y="-133"/>
      <point x="255" y="-91"/>
      <point x="315" y="-91" type="curve" smooth="yes"/>
      <point x="376" y="-91"/>
      <point x="412" y="-127"/>
      <point x="412" y="-165" type="curve" smooth="yes"/>
      <point x="412" y="-255"/>
      <point x="475" y="-317"/>
      <point x="596" y="-317" type="curve" smooth="yes"/>
      <point x="734" y="-317"/>
      <point x="799" y="-230"/>
      <point x="799" y="-130" type="curve" smooth="yes"/>
      <point x="799" y="359" type="line"/>
    </contour>
    <contour>
      <point x="122" y="288" type="line"/>
      <point x="199" y="288" type="line"/>
      <point x="199" y="534" type="line" smooth="yes"/>
      <point x="199" y="574"/>
      <point x="247" y="614"/>
      <point x="315" y="614" type="curve" smooth="yes"/>
      <point x="381" y="614"/>
      <point x="432" y="576"/>
      <point x="432" y="534" type="curve" smooth="yes"/>
      <point x="432" y="0" type="line"/>
      <point x="509" y="0" type="line"/>
      <point x="509" y="534" type="line" smooth="yes"/>
      <point x="509" y="610"/>
      <point x="425" y="681"/>
      <point x="315" y="681" type="curve" smooth="yes"/>
      <point x="208" y="681"/>
      <point x="122" y="612"/>
      <point x="122" y="534" type="curve" smooth="yes"/>
    </contour>
    <contour>
      <point x="722" y="326" type="line"/>
      <point x="799" y="326" type="line"/>
      <point x="799" y="447" type="line"/>
      <point x="711" y="532" type="line"/>
      <point x="748" y="591" type="line"/>
      <point x="759" y="583"/>
      <point x="774" y="580"/>
      <point x="788" y="580" type="curve" smooth="yes"/>
      <point x="840" y="580"/>
      <point x="883" y="622"/>
      <point x="883" y="687" type="curve" smooth="yes"/>
      <point x="883" y="748"/>
      <point x="841" y="779"/>
      <point x="814" y="779" type="curve" smooth="yes"/>
      <point x="798" y="779"/>
      <point x="770" y="764"/>
      <point x="773" y="722" type="curve"/>
      <point x="811" y="722"/>
      <point x="833" y="701"/>
      <point x="833" y="680" type="curve" smooth="yes"/>
      <point x="833" y="659"/>
      <point x="811" y="650"/>
      <point x="795" y="650" type="curve" smooth="yes"/>
      <point x="782" y="650"/>
      <point x="770" y="655"/>
      <point x="747" y="679" type="curve"/>
      <point x="669" y="551"/>
      <point x="651" y="521"/>
      <point x="651" y="510" type="curve" smooth="yes"/>
      <point x="651" y="493"/>
      <point x="661" y="484"/>
      <point x="722" y="424" type="curve"/>
    </contour>
    <contour>
      <point x="122" y="316" type="line"/>
      <point x="122" y="0" type="line"/>
      <point x="199" y="0" type="line"/>
      <point x="280" y="59"/>
      <point x="291" y="115"/>
      <point x="291" y="151" type="curve" smooth="yes"/>
      <point x="291" y="211"/>
      <point x="261" y="250"/>
      <point x="199" y="246" type="curve"/>
      <point x="199" y="316" type="line"/>
    </contour>
    <contour>
      <point x="199" y="181" type="line"/>
      <point x="218" y="181"/>
      <point x="232" y="175"/>
      <point x="232" y="150" type="curve" smooth="yes"/>
      <point x="232" y="127"/>
      <point x="220" y="105"/>
      <point x="199" y="89" type="curve"/>
    </contour>
  </outline>
</glyph>
<glyph name="uni17A8" format="2">
  <advance width="586"/>
  <unicode hex="17A8"/>
  <note>
uni17A8
</note>
  <anchor x="310" y="943" name="abvm"/>
  <anchor x="319" y="-49" name="blwm"/>
  <outline>
    <contour>
      <point x="122" y="513" type="line"/>
      <point x="199" y="513" type="line"/>
      <point x="199" y="536" type="line" smooth="yes"/>
      <point x="199" y="577"/>
      <point x="248" y="615"/>
      <point x="316" y="615" type="curve" smooth="yes"/>
      <point x="380" y="615"/>
      <point x="432" y="578"/>
      <point x="432" y="536" type="curve" smooth="yes"/>
      <point x="432" y="463" type="line" smooth="yes"/>
      <point x="432" y="428"/>
      <point x="394" y="386"/>
      <point x="315" y="338" type="curve" smooth="yes"/>
      <point x="122" y="219" type="line"/>
      <point x="122" y="122" type="line" smooth="yes"/>
      <point x="122" y="36"/>
      <point x="166" y="0"/>
      <point x="220" y="0" type="curve" smooth="yes"/>
      <point x="276" y="0"/>
      <point x="307" y="39"/>
      <point x="362" y="87" type="curve" smooth="yes"/>
      <point x="406" y="125"/>
      <point x="420" y="130"/>
      <point x="432" y="130" type="curve"/>
      <point x="432" y="49" type="line" smooth="yes"/>
      <point x="432" y="31"/>
      <point x="425" y="13"/>
      <point x="407" y="-4" type="curve"/>
      <point x="407" y="-27"/>
      <point x="425" y="-49"/>
      <point x="454" y="-49" type="curve" smooth="yes"/>
      <point x="485" y="-49"/>
      <point x="509" y="-24"/>
      <point x="509" y="24" type="curve" smooth="yes"/>
      <point x="509" y="279" type="line"/>
      <point x="432" y="235" type="line"/>
      <point x="432" y="200" type="line"/>
      <point x="381" y="195"/>
      <point x="340" y="152"/>
      <point x="280" y="91" type="curve" smooth="yes"/>
      <point x="265" y="77"/>
      <point x="250" y="70"/>
      <point x="235" y="70" type="curve" smooth="yes"/>
      <point x="212" y="70"/>
      <point x="199" y="87"/>
      <point x="199" y="122" type="curve" smooth="yes"/>
      <point x="199" y="187" type="line"/>
      <point x="354" y="282" type="line" smooth="yes"/>
      <point x="457" y="345"/>
      <point x="509" y="407"/>
      <point x="509" y="463" type="curve" smooth="yes"/>
      <point x="509" y="536" type="line" smooth="yes"/>
      <point x="509" y="612"/>
      <point x="424" y="682"/>
      <point x="315" y="682" type="curve" smooth="yes"/>
      <point x="209" y="682"/>
      <point x="122" y="614"/>
      <point x="122" y="536" type="curve" smooth="yes"/>
    </contour>
    <contour>
      <point x="199" y="526" type="line"/>
      <point x="122" y="526" type="line"/>
      <point x="122" y="412" type="line" smooth="yes"/>
      <point x="122" y="379"/>
      <point x="147" y="360"/>
      <point x="188" y="360" type="curve" smooth="yes"/>
      <point x="238" y="360"/>
      <point x="264" y="388"/>
      <point x="264" y="438" type="curve" smooth="yes"/>
      <point x="264" y="488"/>
      <point x="239" y="509"/>
      <point x="199" y="509" type="curve"/>
    </contour>
    <contour>
      <point x="199" y="470" type="line"/>
      <point x="215" y="470"/>
      <point x="223" y="459"/>
      <point x="223" y="437" type="curve" smooth="yes"/>
      <point x="223" y="416"/>
      <point x="215" y="401"/>
      <point x="199" y="401" type="curve"/>
    </contour>
    <contour>
      <point x="205" y="688" type="line"/>
      <point x="169" y="714"/>
      <point x="158" y="727"/>
      <point x="158" y="753" type="curve" smooth="yes"/>
      <point x="158" y="770"/>
      <point x="162" y="781"/>
      <point x="169" y="791" type="curve" smooth="yes"/>
      <point x="177" y="802"/>
      <point x="187" y="807"/>
      <point x="197" y="807" type="curve" smooth="yes"/>
      <point x="208" y="807"/>
      <point x="218" y="800"/>
      <point x="243" y="775" type="curve" smooth="yes"/>
      <point x="268" y="750"/>
      <point x="283" y="737"/>
      <point x="301" y="737" type="curve" smooth="yes"/>
      <point x="318" y="737"/>
      <point x="337" y="749"/>
      <point x="358" y="770" type="curve" smooth="yes"/>
      <point x="375" y="787"/>
      <point x="393" y="805"/>
      <point x="403" y="805" type="curve" smooth="yes"/>
      <point x="432" y="805"/>
      <point x="450" y="737"/>
      <point x="494" y="737" type="curve" smooth="yes"/>
      <point x="512" y="737"/>
      <point x="542" y="749"/>
      <point x="544" y="803" type="curve"/>
      <point x="520" y="800"/>
      <point x="498" y="808"/>
      <point x="486" y="823" type="curve" smooth="yes"/>
      <point x="453" y="866" type="line" smooth="yes"/>
      <point x="432" y="894"/>
      <point x="418" y="902"/>
      <point x="410" y="902" type="curve" smooth="yes"/>
      <point x="400" y="902"/>
      <point x="382" y="882"/>
      <point x="357" y="854" type="curve" smooth="yes"/>
      <point x="335" y="829"/>
      <point x="321" y="815"/>
      <point x="310" y="815" type="curve" smooth="yes"/>
      <point x="299" y="815"/>
      <point x="284" y="829"/>
      <point x="267" y="849" type="curve" smooth="yes"/>
      <point x="237" y="885"/>
      <point x="219" y="903"/>
      <point x="208" y="903" type="curve" smooth="yes"/>
      <point x="193" y="903"/>
      <point x="168" y="877"/>
      <point x="131" y="835" type="curve" smooth="yes"/>
      <point x="100" y="799"/>
      <point x="90" y="772"/>
      <point x="90" y="742" type="curve" smooth="yes"/>
      <point x="90" y="695"/>
      <point x="113" y="670"/>
      <point x="153" y="643" type="curve"/>
    </contour>
  </outline>
</glyph>
<glyph name="uni17AA" format="2">
  <advance width="708"/>
  <unicode hex="17AA"/>
  <note>
uni17AA
</note>
  <anchor x="303" y="1060" name="abvm"/>
  <anchor x="319" y="-49" name="blwm"/>
  <outline>
    <contour>
      <point x="122" y="513" type="line"/>
      <point x="199" y="513" type="line"/>
      <point x="199" y="536" type="line" smooth="yes"/>
      <point x="199" y="577"/>
      <point x="248" y="615"/>
      <point x="316" y="615" type="curve" smooth="yes"/>
      <point x="380" y="615"/>
      <point x="432" y="578"/>
      <point x="432" y="536" type="curve" smooth="yes"/>
      <point x="432" y="463" type="line" smooth="yes"/>
      <point x="432" y="428"/>
      <point x="394" y="386"/>
      <point x="315" y="338" type="curve" smooth="yes"/>
      <point x="122" y="219" type="line"/>
      <point x="122" y="122" type="line" smooth="yes"/>
      <point x="122" y="36"/>
      <point x="166" y="0"/>
      <point x="220" y="0" type="curve" smooth="yes"/>
      <point x="276" y="0"/>
      <point x="307" y="39"/>
      <point x="362" y="87" type="curve" smooth="yes"/>
      <point x="406" y="125"/>
      <point x="420" y="130"/>
      <point x="432" y="130" type="curve"/>
      <point x="432" y="49" type="line" smooth="yes"/>
      <point x="432" y="31"/>
      <point x="425" y="13"/>
      <point x="407" y="-4" type="curve"/>
      <point x="407" y="-27"/>
      <point x="425" y="-49"/>
      <point x="454" y="-49" type="curve" smooth="yes"/>
      <point x="485" y="-49"/>
      <point x="509" y="-24"/>
      <point x="509" y="24" type="curve" smooth="yes"/>
      <point x="509" y="279" type="line"/>
      <point x="432" y="235" type="line"/>
      <point x="432" y="200" type="line"/>
      <point x="381" y="195"/>
      <point x="340" y="152"/>
      <point x="280" y="91" type="curve" smooth="yes"/>
      <point x="265" y="77"/>
      <point x="250" y="70"/>
      <point x="235" y="70" type="curve" smooth="yes"/>
      <point x="212" y="70"/>
      <point x="199" y="87"/>
      <point x="199" y="122" type="curve" smooth="yes"/>
      <point x="199" y="187" type="line"/>
      <point x="354" y="282" type="line" smooth="yes"/>
      <point x="457" y="345"/>
      <point x="509" y="407"/>
      <point x="509" y="463" type="curve" smooth="yes"/>
      <point x="509" y="536" type="line" smooth="yes"/>
      <point x="509" y="612"/>
      <point x="424" y="682"/>
      <point x="315" y="682" type="curve" smooth="yes"/>
      <point x="209" y="682"/>
      <point x="122" y="614"/>
      <point x="122" y="536" type="curve" smooth="yes"/>
    </contour>
    <contour>
      <point x="199" y="526" type="line"/>
      <point x="122" y="526" type="line"/>
      <point x="122" y="412" type="line" smooth="yes"/>
      <point x="122" y="379"/>
      <point x="147" y="360"/>
      <point x="188" y="360" type="curve" smooth="yes"/>
      <point x="238" y="360"/>
      <point x="264" y="388"/>
      <point x="264" y="438" type="curve" smooth="yes"/>
      <point x="264" y="488"/>
      <point x="239" y="509"/>
      <point x="199" y="509" type="curve"/>
    </contour>
    <contour>
      <point x="199" y="470" type="line"/>
      <point x="215" y="470"/>
      <point x="223" y="459"/>
      <point x="223" y="437" type="curve" smooth="yes"/>
      <point x="223" y="416"/>
      <point x="215" y="401"/>
      <point x="199" y="401" type="curve"/>
    </contour>
    <contour>
      <point x="135" y="662" type="curve"/>
      <point x="198" y="707" type="line"/>
      <point x="175" y="730"/>
      <point x="167" y="744"/>
      <point x="167" y="756" type="curve" smooth="yes"/>
      <point x="167" y="764"/>
      <point x="175" y="775"/>
      <point x="184" y="785" type="curve" smooth="yes"/>
      <point x="193" y="795"/>
      <point x="204" y="802"/>
      <point x="211" y="802" type="curve" smooth="yes"/>
      <point x="224" y="802"/>
      <point x="233" y="795"/>
      <point x="267" y="767" type="curve" smooth="yes"/>
      <point x="305" y="735"/>
      <point x="344" y="719"/>
      <point x="396" y="719" type="curve" smooth="yes"/>
      <point x="471" y="719"/>
      <point x="523" y="774"/>
      <point x="523" y="866" type="curve" smooth="yes"/>
      <point x="523" y="943"/>
      <point x="473" y="999"/>
      <point x="402" y="999" type="curve" smooth="yes"/>
      <point x="376" y="999"/>
      <point x="362" y="957"/>
      <point x="367" y="923" type="curve"/>
      <point x="414" y="934"/>
      <point x="467" y="909"/>
      <point x="467" y="862" type="curve" smooth="yes"/>
      <point x="467" y="817"/>
      <point x="446" y="784"/>
      <point x="407" y="784" type="curve" smooth="yes"/>
      <point x="375" y="784"/>
      <point x="341" y="812"/>
      <point x="298" y="847" type="curve" smooth="yes"/>
      <point x="257" y="881"/>
      <point x="246" y="901"/>
      <point x="228" y="901" type="curve" smooth="yes"/>
      <point x="216" y="901"/>
      <point x="174" y="863"/>
      <point x="142" y="829" type="curve" smooth="yes"/>
      <point x="113" y="799"/>
      <point x="94" y="768"/>
      <point x="94" y="747" type="curve" smooth="yes"/>
      <point x="94" y="714"/>
      <point x="108" y="692"/>
    </contour>
  </outline>
</glyph>
<glyph name="uni17AC" format="2">
  <advance width="644"/>
  <unicode hex="17AC"/>
  <note>
uni17AC
</note>
  <anchor x="338" y="760" name="abvm"/>
  <anchor x="305" y="0" name="blwm"/>
  <outline>
    <contour>
      <point x="489" y="379" type="line"/>
      <point x="412" y="379" type="line"/>
      <point x="412" y="146" type="line" smooth="yes"/>
      <point x="412" y="108"/>
      <point x="365" y="67"/>
      <point x="304" y="67" type="curve" smooth="yes"/>
      <point x="246" y="67"/>
      <point x="196" y="106"/>
      <point x="196" y="146" type="curve" smooth="yes"/>
      <point x="196" y="379" type="line"/>
      <point x="119" y="379" type="line"/>
      <point x="119" y="146" type="line" smooth="yes"/>
      <point x="119" y="72"/>
      <point x="202" y="0"/>
      <point x="304" y="0" type="curve" smooth="yes"/>
      <point x="404" y="0"/>
      <point x="489" y="70"/>
      <point x="489" y="146" type="curve" smooth="yes"/>
    </contour>
    <contour>
      <point x="196" y="350" type="line"/>
      <point x="196" y="447" type="line"/>
      <point x="108" y="532" type="line"/>
      <point x="144" y="590" type="line"/>
      <point x="173" y="565"/>
      <point x="189" y="557"/>
      <point x="204" y="557" type="curve" smooth="yes"/>
      <point x="236" y="557"/>
      <point x="259" y="596"/>
      <point x="259" y="629" type="curve"/>
      <point x="216" y="625"/>
      <point x="197" y="638"/>
      <point x="144" y="680" type="curve"/>
      <point x="66" y="552"/>
      <point x="48" y="534"/>
      <point x="48" y="514" type="curve" smooth="yes"/>
      <point x="48" y="499"/>
      <point x="58" y="484"/>
      <point x="119" y="424" type="curve"/>
      <point x="119" y="350" type="line"/>
    </contour>
    <contour>
      <point x="489" y="350" type="line"/>
      <point x="489" y="447" type="line"/>
      <point x="401" y="532" type="line"/>
      <point x="437" y="590" type="line"/>
      <point x="466" y="565"/>
      <point x="482" y="557"/>
      <point x="497" y="557" type="curve" smooth="yes"/>
      <point x="529" y="557"/>
      <point x="552" y="596"/>
      <point x="552" y="629" type="curve"/>
      <point x="509" y="625"/>
      <point x="490" y="638"/>
      <point x="437" y="680" type="curve"/>
      <point x="359" y="552"/>
      <point x="341" y="534"/>
      <point x="341" y="514" type="curve" smooth="yes"/>
      <point x="341" y="499"/>
      <point x="351" y="484"/>
      <point x="412" y="424" type="curve"/>
      <point x="412" y="350" type="line"/>
    </contour>
    <contour>
      <point x="415" y="-238" type="line"/>
      <point x="432" y="-258"/>
      <point x="460" y="-269"/>
      <point x="499" y="-269" type="curve" smooth="yes"/>
      <point x="547" y="-269"/>
      <point x="577" y="-252"/>
      <point x="577" y="-220" type="curve"/>
      <point x="524" y="-220"/>
      <point x="493" y="-208"/>
      <point x="487" y="-183" type="curve"/>
    </contour>
    <contour>
      <point x="504" y="-122" type="curve" smooth="yes"/>
      <point x="504" y="-74"/>
      <point x="486" y="-41"/>
      <point x="450" y="-41" type="curve" smooth="yes"/>
      <point x="418" y="-41"/>
      <point x="401" y="-67"/>
      <point x="401" y="-100" type="curve"/>
      <point x="429" y="-100"/>
      <point x="442" y="-116"/>
      <point x="442" y="-144" type="curve" smooth="yes"/>
      <point x="442" y="-200"/>
      <point x="388" y="-220"/>
      <point x="330" y="-220" type="curve" smooth="yes"/>
      <point x="233" y="-220"/>
      <point x="165" y="-158"/>
      <point x="137" y="-126" type="curve"/>
      <point x="111" y="-126" type="line"/>
      <point x="135" y="-175"/>
      <point x="194" y="-269"/>
      <point x="325" y="-269" type="curve" smooth="yes"/>
      <point x="420" y="-269"/>
      <point x="504" y="-219"/>
    </contour>
  </outline>
</glyph>
<glyph name="uni17AD" format="2">
  <advance width="591"/>
  <unicode hex="17AD"/>
  <note>
uni17AD
</note>
  <anchor x="261" y="760" name="abvm"/>
  <anchor x="288" y="0" name="blwm"/>
  <outline>
    <contour>
      <point x="95" y="305" type="line"/>
      <point x="172" y="305" type="line"/>
      <point x="172" y="499" type="line"/>
      <point x="147" y="526"/>
      <point x="133" y="547"/>
      <point x="133" y="558" type="curve" smooth="yes"/>
      <point x="133" y="563"/>
      <point x="136" y="570"/>
      <point x="143" y="577" type="curve" smooth="yes"/>
      <point x="149" y="583"/>
      <point x="157" y="588"/>
      <point x="163" y="588" type="curve" smooth="yes"/>
      <point x="187" y="588"/>
      <point x="217" y="518"/>
      <point x="257" y="518" type="curve" smooth="yes"/>
      <point x="297" y="518"/>
      <point x="325" y="591"/>
      <point x="356" y="591" type="curve" smooth="yes"/>
      <point x="377" y="591"/>
      <point x="405" y="557"/>
      <point x="405" y="521" type="curve" smooth="yes"/>
      <point x="405" y="0" type="line"/>
      <point x="482" y="0" type="line"/>
      <point x="482" y="521" type="line" smooth="yes"/>
      <point x="482" y="598"/>
      <point x="422" y="682"/>
      <point x="369" y="682" type="curve" smooth="yes"/>
      <point x="350" y="682"/>
      <point x="339" y="672"/>
      <point x="316" y="644" type="curve" smooth="yes"/>
      <point x="296" y="619"/>
      <point x="282" y="602"/>
      <point x="276" y="602" type="curve" smooth="yes"/>
      <point x="271" y="602"/>
      <point x="257" y="618"/>
      <point x="239" y="639" type="curve" smooth="yes"/>
      <point x="214" y="669"/>
      <point x="196" y="682"/>
      <point x="183" y="682" type="curve" smooth="yes"/>
      <point x="165" y="682"/>
      <point x="131" y="657"/>
      <point x="105" y="628" type="curve" smooth="yes"/>
      <point x="74" y="595"/>
      <point x="52" y="558"/>
      <point x="52" y="543" type="curve" smooth="yes"/>
      <point x="52" y="530"/>
      <point x="67" y="503"/>
      <point x="95" y="469" type="curve"/>
    </contour>
    <contour>
      <point x="95" y="316" type="line"/>
      <point x="95" y="0" type="line"/>
      <point x="172" y="0" type="line"/>
      <point x="253" y="59"/>
      <point x="264" y="115"/>
      <point x="264" y="151" type="curve" smooth="yes"/>
      <point x="264" y="211"/>
      <point x="234" y="250"/>
      <point x="172" y="246" type="curve"/>
      <point x="172" y="316" type="line"/>
    </contour>
    <contour>
      <point x="172" y="181" type="line"/>
      <point x="191" y="181"/>
      <point x="205" y="175"/>
      <point x="205" y="150" type="curve" smooth="yes"/>
      <point x="205" y="127"/>
      <point x="193" y="105"/>
      <point x="172" y="89" type="curve"/>
    </contour>
    <contour>
      <point x="511" y="-122" type="curve" smooth="yes"/>
      <point x="511" y="-74"/>
      <point x="493" y="-41"/>
      <point x="457" y="-41" type="curve" smooth="yes"/>
      <point x="425" y="-41"/>
      <point x="408" y="-67"/>
      <point x="408" y="-100" type="curve"/>
      <point x="436" y="-100"/>
      <point x="449" y="-116"/>
      <point x="449" y="-144" type="curve" smooth="yes"/>
      <point x="449" y="-200"/>
      <point x="395" y="-220"/>
      <point x="337" y="-220" type="curve" smooth="yes"/>
      <point x="240" y="-220"/>
      <point x="172" y="-158"/>
      <point x="144" y="-126" type="curve"/>
      <point x="118" y="-126" type="line"/>
      <point x="142" y="-175"/>
      <point x="201" y="-269"/>
      <point x="332" y="-269" type="curve" smooth="yes"/>
      <point x="427" y="-269"/>
      <point x="511" y="-219"/>
    </contour>
  </outline>
</glyph>
<glyph name="uni17AE" format="2">
  <advance width="587"/>
  <unicode hex="17AE"/>
  <note>
uni17AE
</note>
  <anchor x="261" y="760" name="abvm"/>
  <anchor x="288" y="0" name="blwm"/>
  <outline>
    <contour>
      <point x="95" y="305" type="line"/>
      <point x="172" y="305" type="line"/>
      <point x="172" y="499" type="line"/>
      <point x="147" y="526"/>
      <point x="133" y="547"/>
      <point x="133" y="558" type="curve" smooth="yes"/>
      <point x="133" y="563"/>
      <point x="136" y="570"/>
      <point x="143" y="577" type="curve" smooth="yes"/>
      <point x="149" y="583"/>
      <point x="157" y="588"/>
      <point x="163" y="588" type="curve" smooth="yes"/>
      <point x="187" y="588"/>
      <point x="217" y="518"/>
      <point x="257" y="518" type="curve" smooth="yes"/>
      <point x="297" y="518"/>
      <point x="325" y="591"/>
      <point x="356" y="591" type="curve" smooth="yes"/>
      <point x="377" y="591"/>
      <point x="405" y="557"/>
      <point x="405" y="521" type="curve" smooth="yes"/>
      <point x="405" y="0" type="line"/>
      <point x="482" y="0" type="line"/>
      <point x="482" y="521" type="line" smooth="yes"/>
      <point x="482" y="598"/>
      <point x="422" y="682"/>
      <point x="369" y="682" type="curve" smooth="yes"/>
      <point x="350" y="682"/>
      <point x="339" y="672"/>
      <point x="316" y="644" type="curve" smooth="yes"/>
      <point x="296" y="619"/>
      <point x="282" y="602"/>
      <point x="276" y="602" type="curve" smooth="yes"/>
      <point x="271" y="602"/>
      <point x="257" y="618"/>
      <point x="239" y="639" type="curve" smooth="yes"/>
      <point x="214" y="669"/>
      <point x="196" y="682"/>
      <point x="183" y="682" type="curve" smooth="yes"/>
      <point x="165" y="682"/>
      <point x="131" y="657"/>
      <point x="105" y="628" type="curve" smooth="yes"/>
      <point x="74" y="595"/>
      <point x="52" y="558"/>
      <point x="52" y="543" type="curve" smooth="yes"/>
      <point x="52" y="530"/>
      <point x="67" y="503"/>
      <point x="95" y="469" type="curve"/>
    </contour>
    <contour>
      <point x="95" y="316" type="line"/>
      <point x="95" y="0" type="line"/>
      <point x="172" y="0" type="line"/>
      <point x="253" y="59"/>
      <point x="264" y="115"/>
      <point x="264" y="151" type="curve" smooth="yes"/>
      <point x="264" y="211"/>
      <point x="234" y="250"/>
      <point x="172" y="246" type="curve"/>
      <point x="172" y="316" type="line"/>
    </contour>
    <contour>
      <point x="172" y="181" type="line"/>
      <point x="191" y="181"/>
      <point x="205" y="175"/>
      <point x="205" y="150" type="curve" smooth="yes"/>
      <point x="205" y="127"/>
      <point x="193" y="105"/>
      <point x="172" y="89" type="curve"/>
    </contour>
    <contour>
      <point x="425" y="-238" type="line"/>
      <point x="442" y="-258"/>
      <point x="470" y="-269"/>
      <point x="509" y="-269" type="curve" smooth="yes"/>
      <point x="557" y="-269"/>
      <point x="587" y="-252"/>
      <point x="587" y="-220" type="curve"/>
      <point x="534" y="-220"/>
      <point x="503" y="-208"/>
      <point x="497" y="-183" type="curve"/>
    </contour>
    <contour>
      <point x="514" y="-122" type="curve" smooth="yes"/>
      <point x="514" y="-74"/>
      <point x="496" y="-41"/>
      <point x="460" y="-41" type="curve" smooth="yes"/>
      <point x="428" y="-41"/>
      <point x="411" y="-67"/>
      <point x="411" y="-100" type="curve"/>
      <point x="439" y="-100"/>
      <point x="452" y="-116"/>
      <point x="452" y="-144" type="curve" smooth="yes"/>
      <point x="452" y="-200"/>
      <point x="398" y="-220"/>
      <point x="340" y="-220" type="curve" smooth="yes"/>
      <point x="243" y="-220"/>
      <point x="175" y="-158"/>
      <point x="147" y="-126" type="curve"/>
      <point x="121" y="-126" type="line"/>
      <point x="145" y="-175"/>
      <point x="204" y="-269"/>
      <point x="335" y="-269" type="curve" smooth="yes"/>
      <point x="430" y="-269"/>
      <point x="514" y="-219"/>
    </contour>
  </outline>
</glyph>
<glyph name="uni17AF" format="2">
  <advance width="581"/>
  <unicode hex="17AF"/>
  <note>
uni17AF
</note>
  <outline>
    <contour>
      <point x="195" y="252" type="line"/>
      <point x="118" y="252" type="line"/>
      <point x="118" y="0" type="line"/>
      <point x="195" y="0" type="line"/>
      <point x="311" y="115" type="line"/>
      <point x="428" y="0" type="line"/>
      <point x="505" y="0" type="line"/>
      <point x="505" y="514" type="line" smooth="yes"/>
      <point x="505" y="550"/>
      <point x="491" y="577"/>
      <point x="466" y="598" type="curve" smooth="yes"/>
      <point x="383" y="668" type="line" smooth="yes"/>
      <point x="350" y="696"/>
      <point x="326" y="702"/>
      <point x="307" y="702" type="curve" smooth="yes"/>
      <point x="268" y="702"/>
      <point x="246" y="678"/>
      <point x="195" y="613" type="curve"/>
      <point x="195" y="705"/>
      <point x="209" y="702"/>
      <point x="209" y="758" type="curve" smooth="yes"/>
      <point x="209" y="833"/>
      <point x="177" y="849"/>
      <point x="150" y="849" type="curve" smooth="yes"/>
      <point x="115" y="849"/>
      <point x="98" y="823"/>
      <point x="98" y="790" type="curve"/>
      <point x="125" y="782"/>
      <point x="138" y="774"/>
      <point x="138" y="740" type="curve" smooth="yes"/>
      <point x="138" y="697"/>
      <point x="118" y="679"/>
      <point x="118" y="629" type="curve" smooth="yes"/>
      <point x="118" y="567"/>
      <point x="150" y="527"/>
      <point x="183" y="527" type="curve" smooth="yes"/>
      <point x="232" y="527"/>
      <point x="250" y="616"/>
      <point x="296" y="616" type="curve" smooth="yes"/>
      <point x="313" y="616"/>
      <point x="327" y="604"/>
      <point x="428" y="519" type="curve"/>
      <point x="428" y="91" type="line"/>
      <point x="311" y="207" type="line"/>
      <point x="195" y="91" type="line"/>
    </contour>
    <contour>
      <point x="195" y="176" type="line"/>
      <point x="195" y="385" type="line" smooth="yes"/>
      <point x="195" y="418"/>
      <point x="178" y="438"/>
      <point x="140" y="438" type="curve" smooth="yes"/>
      <point x="79" y="438"/>
      <point x="26" y="394"/>
      <point x="26" y="323" type="curve" smooth="yes"/>
      <point x="26" y="259"/>
      <point x="69" y="218"/>
      <point x="118" y="218" type="curve"/>
      <point x="118" y="176" type="line"/>
    </contour>
    <contour>
      <point x="118" y="285" type="line"/>
      <point x="100" y="285"/>
      <point x="80" y="298"/>
      <point x="80" y="328" type="curve" smooth="yes"/>
      <point x="80" y="358"/>
      <point x="99" y="376"/>
      <point x="118" y="376" type="curve"/>
    </contour>
  </outline>
</glyph>
<glyph name="uni17B0" format="2">
  <advance width="562"/>
  <unicode hex="17B0"/>
  <note>
uni17B0
</note>
  <anchor x="261" y="760" name="abvm"/>
  <anchor x="335" y="-217" name="blwm"/>
  <outline>
    <contour>
      <point x="405" y="37" type="line"/>
      <point x="405" y="-2" type="line"/>
      <point x="482" y="-44" type="line"/>
      <point x="482" y="37" type="line"/>
    </contour>
    <contour>
      <point x="95" y="305" type="line"/>
      <point x="172" y="305" type="line"/>
      <point x="172" y="499" type="line"/>
      <point x="147" y="526"/>
      <point x="133" y="547"/>
      <point x="133" y="558" type="curve" smooth="yes"/>
      <point x="133" y="563"/>
      <point x="136" y="570"/>
      <point x="143" y="577" type="curve" smooth="yes"/>
      <point x="149" y="583"/>
      <point x="157" y="588"/>
      <point x="163" y="588" type="curve" smooth="yes"/>
      <point x="187" y="588"/>
      <point x="217" y="518"/>
      <point x="257" y="518" type="curve" smooth="yes"/>
      <point x="297" y="518"/>
      <point x="325" y="591"/>
      <point x="356" y="591" type="curve" smooth="yes"/>
      <point x="377" y="591"/>
      <point x="405" y="557"/>
      <point x="405" y="521" type="curve" smooth="yes"/>
      <point x="405" y="0" type="line"/>
      <point x="482" y="0" type="line"/>
      <point x="482" y="521" type="line" smooth="yes"/>
      <point x="482" y="598"/>
      <point x="422" y="682"/>
      <point x="369" y="682" type="curve" smooth="yes"/>
      <point x="350" y="682"/>
      <point x="339" y="672"/>
      <point x="316" y="644" type="curve" smooth="yes"/>
      <point x="296" y="619"/>
      <point x="282" y="602"/>
      <point x="276" y="602" type="curve" smooth="yes"/>
      <point x="271" y="602"/>
      <point x="257" y="618"/>
      <point x="239" y="639" type="curve" smooth="yes"/>
      <point x="214" y="669"/>
      <point x="196" y="682"/>
      <point x="183" y="682" type="curve" smooth="yes"/>
      <point x="165" y="682"/>
      <point x="131" y="657"/>
      <point x="105" y="628" type="curve" smooth="yes"/>
      <point x="74" y="595"/>
      <point x="52" y="558"/>
      <point x="52" y="543" type="curve" smooth="yes"/>
      <point x="52" y="530"/>
      <point x="67" y="503"/>
      <point x="95" y="469" type="curve"/>
    </contour>
    <contour>
      <point x="95" y="316" type="line"/>
      <point x="95" y="0" type="line"/>
      <point x="172" y="0" type="line"/>
      <point x="253" y="59"/>
      <point x="264" y="115"/>
      <point x="264" y="151" type="curve" smooth="yes"/>
      <point x="264" y="211"/>
      <point x="234" y="250"/>
      <point x="172" y="246" type="curve"/>
      <point x="172" y="316" type="line"/>
    </contour>
    <contour>
      <point x="172" y="181" type="line"/>
      <point x="191" y="181"/>
      <point x="205" y="175"/>
      <point x="205" y="150" type="curve" smooth="yes"/>
      <point x="205" y="127"/>
      <point x="193" y="105"/>
      <point x="172" y="89" type="curve"/>
    </contour>
    <contour>
      <point x="144" y="-149" type="curve" smooth="yes"/>
      <point x="144" y="-192"/>
      <point x="170" y="-235"/>
      <point x="228" y="-235" type="curve" smooth="yes"/>
      <point x="300" y="-235"/>
      <point x="335" y="-169"/>
      <point x="335" y="-71" type="curve"/>
      <point x="291" y="-107" type="line"/>
      <point x="291" y="-146"/>
      <point x="267" y="-178"/>
      <point x="238" y="-178" type="curve" smooth="yes"/>
      <point x="217" y="-178"/>
      <point x="207" y="-161"/>
      <point x="206" y="-145" type="curve"/>
      <point x="234" y="-136"/>
      <point x="270" y="-122"/>
      <point x="301" y="-104" type="curve" smooth="yes"/>
      <point x="349" y="-77"/>
      <point x="406" y="-28"/>
      <point x="406" y="9" type="curve" smooth="yes"/>
      <point x="406" y="25"/>
      <point x="396" y="40"/>
      <point x="374" y="40" type="curve" smooth="yes"/>
      <point x="357" y="40"/>
      <point x="347" y="30"/>
      <point x="344" y="20" type="curve"/>
      <point x="349" y="14"/>
      <point x="351" y="9"/>
      <point x="351" y="4" type="curve" smooth="yes"/>
      <point x="351" y="-31"/>
      <point x="248" y="-83"/>
      <point x="171" y="-98" type="curve" smooth="yes"/>
      <point x="151" y="-102"/>
      <point x="144" y="-126"/>
    </contour>
    <contour>
      <point x="290" y="-95" type="line"/>
      <point x="295" y="-108"/>
      <point x="316" y="-164"/>
      <point x="378" y="-164" type="curve" smooth="yes"/>
      <point x="436" y="-164"/>
      <point x="482" y="-112"/>
      <point x="482" y="-44" type="curve" smooth="yes"/>
      <point x="482" y="-13"/>
      <point x="473" y="23"/>
      <point x="440" y="23" type="curve" smooth="yes"/>
      <point x="423" y="23"/>
      <point x="409" y="13"/>
      <point x="399" y="-6" type="curve"/>
      <point x="410" y="-12"/>
      <point x="421" y="-28"/>
      <point x="421" y="-50" type="curve" smooth="yes"/>
      <point x="421" y="-82"/>
      <point x="400" y="-116"/>
      <point x="373" y="-116" type="curve" smooth="yes"/>
      <point x="351" y="-116"/>
      <point x="335" y="-94"/>
      <point x="334" y="-66" type="curve"/>
    </contour>
  </outline>
</glyph>
<glyph name="uni17B1" format="2">
  <advance width="599"/>
  <unicode hex="17B1"/>
  <note>
uni17B1
</note>
  <anchor x="296" y="1018" name="abvm"/>
  <anchor x="319" y="-49" name="blwm"/>
  <outline>
    <contour>
      <point x="122" y="513" type="line"/>
      <point x="199" y="513" type="line"/>
      <point x="199" y="536" type="line" smooth="yes"/>
      <point x="199" y="577"/>
      <point x="248" y="615"/>
      <point x="316" y="615" type="curve" smooth="yes"/>
      <point x="380" y="615"/>
      <point x="432" y="578"/>
      <point x="432" y="536" type="curve" smooth="yes"/>
      <point x="432" y="463" type="line" smooth="yes"/>
      <point x="432" y="428"/>
      <point x="394" y="386"/>
      <point x="315" y="338" type="curve" smooth="yes"/>
      <point x="122" y="219" type="line"/>
      <point x="122" y="122" type="line" smooth="yes"/>
      <point x="122" y="36"/>
      <point x="166" y="0"/>
      <point x="220" y="0" type="curve" smooth="yes"/>
      <point x="276" y="0"/>
      <point x="307" y="39"/>
      <point x="362" y="87" type="curve" smooth="yes"/>
      <point x="406" y="125"/>
      <point x="420" y="130"/>
      <point x="432" y="130" type="curve"/>
      <point x="432" y="49" type="line" smooth="yes"/>
      <point x="432" y="31"/>
      <point x="425" y="13"/>
      <point x="407" y="-4" type="curve"/>
      <point x="407" y="-27"/>
      <point x="425" y="-49"/>
      <point x="454" y="-49" type="curve" smooth="yes"/>
      <point x="485" y="-49"/>
      <point x="509" y="-24"/>
      <point x="509" y="24" type="curve" smooth="yes"/>
      <point x="509" y="279" type="line"/>
      <point x="432" y="235" type="line"/>
      <point x="432" y="200" type="line"/>
      <point x="381" y="195"/>
      <point x="340" y="152"/>
      <point x="280" y="91" type="curve" smooth="yes"/>
      <point x="265" y="77"/>
      <point x="250" y="70"/>
      <point x="235" y="70" type="curve" smooth="yes"/>
      <point x="212" y="70"/>
      <point x="199" y="87"/>
      <point x="199" y="122" type="curve" smooth="yes"/>
      <point x="199" y="187" type="line"/>
      <point x="354" y="282" type="line" smooth="yes"/>
      <point x="457" y="345"/>
      <point x="509" y="407"/>
      <point x="509" y="463" type="curve" smooth="yes"/>
      <point x="509" y="536" type="line" smooth="yes"/>
      <point x="509" y="612"/>
      <point x="424" y="682"/>
      <point x="315" y="682" type="curve" smooth="yes"/>
      <point x="209" y="682"/>
      <point x="122" y="614"/>
      <point x="122" y="536" type="curve" smooth="yes"/>
    </contour>
    <contour>
      <point x="199" y="526" type="line"/>
      <point x="122" y="526" type="line"/>
      <point x="122" y="412" type="line" smooth="yes"/>
      <point x="122" y="379"/>
      <point x="147" y="360"/>
      <point x="188" y="360" type="curve" smooth="yes"/>
      <point x="238" y="360"/>
      <point x="264" y="388"/>
      <point x="264" y="438" type="curve" smooth="yes"/>
      <point x="264" y="488"/>
      <point x="239" y="509"/>
      <point x="199" y="509" type="curve"/>
    </contour>
    <contour>
      <point x="199" y="470" type="line"/>
      <point x="215" y="470"/>
      <point x="223" y="459"/>
      <point x="223" y="437" type="curve" smooth="yes"/>
      <point x="223" y="416"/>
      <point x="215" y="401"/>
      <point x="199" y="401" type="curve"/>
    </contour>
    <contour>
      <point x="201" y="745" type="line"/>
      <point x="165" y="757"/>
      <point x="145" y="783"/>
      <point x="145" y="812" type="curve" smooth="yes"/>
      <point x="145" y="862"/>
      <point x="206" y="896"/>
      <point x="277" y="896" type="curve" smooth="yes"/>
      <point x="389" y="896"/>
      <point x="468" y="814"/>
      <point x="468" y="710" type="curve"/>
      <point x="502" y="733"/>
      <point x="519" y="759"/>
      <point x="519" y="795" type="curve" smooth="yes"/>
      <point x="519" y="889"/>
      <point x="406" y="961"/>
      <point x="291" y="961" type="curve" smooth="yes"/>
      <point x="183" y="961"/>
      <point x="84" y="903"/>
      <point x="84" y="808" type="curve" smooth="yes"/>
      <point x="84" y="762"/>
      <point x="107" y="726"/>
      <point x="148" y="701" type="curve"/>
    </contour>
  </outline>
</glyph>
<glyph name="uni17B2" format="2">
  <advance width="630"/>
  <unicode hex="17B2"/>
  <note>
uni17B2
</note>
  <outline>
    <contour>
      <point x="328" y="186" type="line"/>
      <point x="475" y="325"/>
      <point x="508" y="370"/>
      <point x="508" y="445" type="curve" smooth="yes"/>
      <point x="508" y="513"/>
      <point x="472" y="559"/>
      <point x="384" y="559" type="curve" smooth="yes"/>
      <point x="303" y="559"/>
      <point x="260" y="517"/>
      <point x="260" y="454" type="curve" smooth="yes"/>
      <point x="260" y="396"/>
      <point x="296" y="366"/>
      <point x="328" y="366" type="curve" smooth="yes"/>
      <point x="357" y="366"/>
      <point x="378" y="387"/>
      <point x="378" y="410" type="curve"/>
      <point x="344" y="410"/>
      <point x="325" y="424"/>
      <point x="325" y="449" type="curve" smooth="yes"/>
      <point x="325" y="477"/>
      <point x="348" y="492"/>
      <point x="384" y="492" type="curve" smooth="yes"/>
      <point x="419" y="492"/>
      <point x="441" y="479"/>
      <point x="441" y="441" type="curve" smooth="yes"/>
      <point x="441" y="386"/>
      <point x="405" y="335"/>
      <point x="289" y="234" type="curve"/>
    </contour>
    <contour>
      <point x="442" y="304" type="curve"/>
      <point x="401" y="262" type="line"/>
      <point x="423" y="257"/>
      <point x="432" y="239"/>
      <point x="432" y="190" type="curve" smooth="yes"/>
      <point x="432" y="146" type="line" smooth="yes"/>
      <point x="432" y="106"/>
      <point x="382" y="67"/>
      <point x="315" y="67" type="curve" smooth="yes"/>
      <point x="250" y="67"/>
      <point x="198" y="104"/>
      <point x="198" y="146" type="curve" smooth="yes"/>
      <point x="198" y="586" type="line" smooth="yes"/>
      <point x="198" y="626"/>
      <point x="243" y="662"/>
      <point x="318" y="662" type="curve" smooth="yes"/>
      <point x="384" y="662"/>
      <point x="423" y="633"/>
      <point x="432" y="614" type="curve"/>
      <point x="508" y="635" type="line"/>
      <point x="488" y="682"/>
      <point x="412" y="729"/>
      <point x="318" y="729" type="curve" smooth="yes"/>
      <point x="212" y="729"/>
      <point x="122" y="663"/>
      <point x="122" y="586" type="curve" smooth="yes"/>
      <point x="122" y="146" type="line" smooth="yes"/>
      <point x="122" y="70"/>
      <point x="207" y="0"/>
      <point x="315" y="0" type="curve" smooth="yes"/>
      <point x="421" y="0"/>
      <point x="508" y="68"/>
      <point x="508" y="146" type="curve" smooth="yes"/>
      <point x="508" y="190" type="line" smooth="yes"/>
      <point x="508" y="259"/>
      <point x="481" y="291"/>
    </contour>
  </outline>
</glyph>
<glyph name="uni17B5" format="2">
  <advance width="262"/>
  <unicode hex="17B5"/>
  <anchor x="39" y="740" name="abvm_a"/>
  <anchor x="39" y="740" name="abvm_high"/>
  <anchor x="2" y="0" name="blwm_a"/>
  <outline>
    <contour>
      <point x="-74" y="562" type="curve"/>
      <point x="-37" y="601"/>
      <point x="-23" y="607"/>
      <point x="-13" y="607" type="curve" smooth="yes"/>
      <point x="-4" y="607"/>
      <point x="11" y="593"/>
      <point x="35" y="571" type="curve" smooth="yes"/>
      <point x="109" y="501" type="line"/>
      <point x="109" y="0" type="line"/>
      <point x="186" y="0" type="line"/>
      <point x="186" y="501" type="line" smooth="yes"/>
      <point x="186" y="532"/>
      <point x="175" y="557"/>
      <point x="154" y="576" type="curve" smooth="yes"/>
      <point x="76" y="650" type="line" smooth="yes"/>
      <point x="52" y="672"/>
      <point x="28" y="682"/>
      <point x="5" y="682" type="curve" smooth="yes"/>
      <point x="-20" y="682"/>
      <point x="-48" y="670"/>
      <point x="-70" y="652" type="curve" smooth="yes"/>
      <point x="-89" y="636"/>
      <point x="-97" y="621"/>
      <point x="-97" y="605" type="curve" smooth="yes"/>
      <point x="-97" y="590"/>
      <point x="-90" y="574"/>
    </contour>
  </outline>
</glyph>
<glyph name="uni17B8" format="2">
  <unicode hex="17B8"/>
  <note>
uni17B8
</note>
  <anchor x="-353" y="854" name="_abvm"/>
  <anchor x="-353" y="1150" name="abvm"/>
  <outline>
    <contour>
      <point x="-169" y="879" type="line"/>
      <point x="-169" y="1099" type="line"/>
      <point x="-225" y="1099" type="line"/>
      <point x="-225" y="879" type="line"/>
    </contour>
    <contour>
      <point x="-534" y="925" type="curve" smooth="yes"/>
      <point x="-534" y="875"/>
      <point x="-514" y="854"/>
      <point x="-474" y="854" type="curve" smooth="yes"/>
      <point x="-206" y="854" type="line" smooth="yes"/>
      <point x="-179" y="854"/>
      <point x="-169" y="864"/>
      <point x="-169" y="879" type="curve" smooth="yes"/>
      <point x="-169" y="896"/>
      <point x="-181" y="916"/>
      <point x="-204" y="940" type="curve" smooth="yes"/>
      <point x="-274" y="1013"/>
      <point x="-344" y="1050"/>
      <point x="-414" y="1050" type="curve" smooth="yes"/>
      <point x="-494" y="1050"/>
      <point x="-534" y="995"/>
    </contour>
    <contour>
      <point x="-474" y="917" type="line"/>
      <point x="-474" y="956"/>
      <point x="-458" y="986"/>
      <point x="-408" y="986" type="curve" smooth="yes"/>
      <point x="-368" y="986"/>
      <point x="-324" y="967"/>
      <point x="-271" y="917" type="curve"/>
    </contour>
  </outline>
</glyph>
<glyph name="uni17B9" format="2">
  <unicode hex="17B9"/>
  <note>
uni17B9
</note>
  <anchor x="-353" y="854" name="_abvm"/>
  <anchor x="-353" y="1134" name="abvm"/>
  <outline>
    <contour>
      <point x="-326" y="1025" type="curve"/>
      <point x="-179" y="897" type="line"/>
      <point x="-165" y="909"/>
      <point x="-135" y="940"/>
      <point x="-135" y="984" type="curve" smooth="yes"/>
      <point x="-135" y="1023"/>
      <point x="-160" y="1071"/>
      <point x="-229" y="1071" type="curve" smooth="yes"/>
      <point x="-264" y="1071"/>
      <point x="-296" y="1058"/>
    </contour>
    <contour>
      <point x="-274" y="999" type="line"/>
      <point x="-257" y="1012"/>
      <point x="-246" y="1015"/>
      <point x="-236" y="1015" type="curve" smooth="yes"/>
      <point x="-211" y="1015"/>
      <point x="-195" y="998"/>
      <point x="-195" y="977" type="curve" smooth="yes"/>
      <point x="-195" y="962"/>
      <point x="-202" y="956"/>
      <point x="-212" y="945" type="curve"/>
    </contour>
    <contour>
      <point x="-534" y="925" type="curve" smooth="yes"/>
      <point x="-534" y="875"/>
      <point x="-514" y="854"/>
      <point x="-474" y="854" type="curve" smooth="yes"/>
      <point x="-206" y="854" type="line" smooth="yes"/>
      <point x="-179" y="854"/>
      <point x="-169" y="864"/>
      <point x="-169" y="879" type="curve" smooth="yes"/>
      <point x="-169" y="896"/>
      <point x="-181" y="916"/>
      <point x="-204" y="940" type="curve" smooth="yes"/>
      <point x="-274" y="1013"/>
      <point x="-344" y="1050"/>
      <point x="-414" y="1050" type="curve" smooth="yes"/>
      <point x="-494" y="1050"/>
      <point x="-534" y="995"/>
    </contour>
    <contour>
      <point x="-474" y="917" type="line"/>
      <point x="-474" y="956"/>
      <point x="-458" y="986"/>
      <point x="-408" y="986" type="curve" smooth="yes"/>
      <point x="-368" y="986"/>
      <point x="-324" y="967"/>
      <point x="-271" y="917" type="curve"/>
    </contour>
  </outline>
</glyph>
<glyph name="uni17BA" format="2">
  <unicode hex="17BA"/>
  <note>
uni17BA
</note>
  <anchor x="-353" y="854" name="_abvm"/>
  <anchor x="-353" y="1170" name="abvm"/>
  <outline>
    <contour>
      <point x="-271" y="993" type="line"/>
      <point x="-271" y="1123" type="line"/>
      <point x="-334" y="1123" type="line"/>
      <point x="-334" y="993" type="line"/>
    </contour>
    <contour>
      <point x="-169" y="879" type="line"/>
      <point x="-169" y="1099" type="line"/>
      <point x="-232" y="1099" type="line"/>
      <point x="-232" y="879" type="line"/>
    </contour>
    <contour>
      <point x="-534" y="925" type="curve" smooth="yes"/>
      <point x="-534" y="875"/>
      <point x="-514" y="854"/>
      <point x="-474" y="854" type="curve" smooth="yes"/>
      <point x="-206" y="854" type="line" smooth="yes"/>
      <point x="-179" y="854"/>
      <point x="-169" y="864"/>
      <point x="-169" y="879" type="curve" smooth="yes"/>
      <point x="-169" y="896"/>
      <point x="-181" y="916"/>
      <point x="-204" y="940" type="curve" smooth="yes"/>
      <point x="-274" y="1013"/>
      <point x="-344" y="1050"/>
      <point x="-414" y="1050" type="curve" smooth="yes"/>
      <point x="-494" y="1050"/>
      <point x="-534" y="995"/>
    </contour>
    <contour>
      <point x="-474" y="917" type="line"/>
      <point x="-474" y="956"/>
      <point x="-458" y="986"/>
      <point x="-408" y="986" type="curve" smooth="yes"/>
      <point x="-368" y="986"/>
      <point x="-324" y="967"/>
      <point x="-271" y="917" type="curve"/>
    </contour>
  </outline>
</glyph>
<glyph name="uni17BB" format="2">
  <unicode hex="17BB"/>
  <note>
uni17BB
</note>
  <anchor x="-197" y="16" name="_blwm"/>
  <outline>
    <contour>
      <point x="-195" y="-49" type="curve" smooth="yes"/>
      <point x="-225" y="-49"/>
      <point x="-240" y="-70"/>
      <point x="-240" y="-96" type="curve" smooth="yes"/>
      <point x="-240" y="-119"/>
      <point x="-229" y="-137"/>
      <point x="-209" y="-141" type="curve"/>
      <point x="-209" y="-267" type="line"/>
      <point x="-154" y="-267" type="line"/>
      <point x="-154" y="-94" type="line" smooth="yes"/>
      <point x="-154" y="-67"/>
      <point x="-167" y="-49"/>
    </contour>
  </outline>
</glyph>
<glyph name="uni17BC" format="2">
  <unicode hex="17BC"/>
  <note>
uni17BC
</note>
  <anchor x="-197" y="16" name="_blwm"/>
  <outline>
    <contour>
      <point x="-210" y="-273" type="curve" smooth="yes"/>
      <point x="-93" y="-273"/>
      <point x="-86" y="-125"/>
      <point x="-86" y="-92" type="curve" smooth="yes"/>
      <point x="-86" y="-58"/>
      <point x="-94" y="-49"/>
      <point x="-107" y="-49" type="curve" smooth="yes"/>
      <point x="-122" y="-49"/>
      <point x="-129" y="-63"/>
      <point x="-148" y="-117" type="curve" smooth="yes"/>
      <point x="-170" y="-179"/>
      <point x="-182" y="-209"/>
      <point x="-212" y="-209" type="curve" smooth="yes"/>
      <point x="-237" y="-209"/>
      <point x="-242" y="-189"/>
      <point x="-234" y="-160" type="curve" smooth="yes"/>
      <point x="-225" y="-128"/>
      <point x="-222" y="-114"/>
      <point x="-222" y="-100" type="curve" smooth="yes"/>
      <point x="-222" y="-66"/>
      <point x="-239" y="-49"/>
      <point x="-266" y="-49" type="curve" smooth="yes"/>
      <point x="-295" y="-49"/>
      <point x="-313" y="-70"/>
      <point x="-313" y="-96" type="curve" smooth="yes"/>
      <point x="-313" y="-117"/>
      <point x="-302" y="-130"/>
      <point x="-289" y="-130" type="curve"/>
      <point x="-292" y="-138" type="line" smooth="yes"/>
      <point x="-298" y="-155"/>
      <point x="-303" y="-183"/>
      <point x="-303" y="-203" type="curve" smooth="yes"/>
      <point x="-303" y="-248"/>
      <point x="-272" y="-273"/>
    </contour>
  </outline>
</glyph>
<glyph name="uni17BD" format="2">
  <unicode hex="17BD"/>
  <note>
uni17BD
</note>
  <anchor x="-197" y="16" name="_blwm"/>
  <outline>
    <contour>
      <point x="-333" y="-221" type="curve" smooth="yes"/>
      <point x="-333" y="-256"/>
      <point x="-312" y="-274"/>
      <point x="-280" y="-274" type="curve" smooth="yes"/>
      <point x="-249" y="-274"/>
      <point x="-227" y="-257"/>
      <point x="-203" y="-235" type="curve"/>
      <point x="-191" y="-257"/>
      <point x="-172" y="-274"/>
      <point x="-148" y="-274" type="curve" smooth="yes"/>
      <point x="-87" y="-274"/>
      <point x="-52" y="-168"/>
      <point x="-52" y="-99" type="curve" smooth="yes"/>
      <point x="-52" y="-37"/>
      <point x="-80" y="-33"/>
      <point x="-123" y="-49" type="curve"/>
      <point x="-116" y="-79"/>
      <point x="-112" y="-109"/>
      <point x="-115" y="-140" type="curve" smooth="yes"/>
      <point x="-120" y="-187"/>
      <point x="-139" y="-217"/>
      <point x="-154" y="-217" type="curve" smooth="yes"/>
      <point x="-167" y="-217"/>
      <point x="-182" y="-193"/>
      <point x="-188" y="-155" type="curve"/>
      <point x="-214" y="-197"/>
      <point x="-238" y="-217"/>
      <point x="-249" y="-217" type="curve" smooth="yes"/>
      <point x="-262" y="-217"/>
      <point x="-261" y="-185"/>
      <point x="-251" y="-154" type="curve" smooth="yes"/>
      <point x="-243" y="-130"/>
      <point x="-235" y="-112"/>
      <point x="-235" y="-94" type="curve" smooth="yes"/>
      <point x="-235" y="-63"/>
      <point x="-259" y="-49"/>
      <point x="-287" y="-49" type="curve" smooth="yes"/>
      <point x="-319" y="-49"/>
      <point x="-339" y="-67"/>
      <point x="-339" y="-94" type="curve" smooth="yes"/>
      <point x="-339" y="-113"/>
      <point x="-329" y="-130"/>
      <point x="-307" y="-130" type="curve"/>
      <point x="-310" y="-138" type="line" smooth="yes"/>
      <point x="-323" y="-172"/>
      <point x="-333" y="-199"/>
    </contour>
  </outline>
</glyph>
<glyph name="uni17BE" format="2">
  <unicode hex="17BE"/>
  <note>
uni17BE
</note>
  <anchor x="550" y="745" name="_abvm"/>
  <anchor x="587" y="645" name="abvm"/>
  <anchor x="587" y="45" name="blwm"/>
  <outline>
    <contour>
      <point x="734" y="770" type="line"/>
      <point x="734" y="990" type="line"/>
      <point x="678" y="990" type="line"/>
      <point x="678" y="770" type="line"/>
    </contour>
    <contour>
      <point x="369" y="816" type="curve" smooth="yes"/>
      <point x="369" y="766"/>
      <point x="389" y="745"/>
      <point x="429" y="745" type="curve" smooth="yes"/>
      <point x="697" y="745" type="line" smooth="yes"/>
      <point x="724" y="745"/>
      <point x="734" y="755"/>
      <point x="734" y="770" type="curve" smooth="yes"/>
      <point x="734" y="787"/>
      <point x="722" y="807"/>
      <point x="699" y="831" type="curve" smooth="yes"/>
      <point x="629" y="904"/>
      <point x="559" y="941"/>
      <point x="489" y="941" type="curve" smooth="yes"/>
      <point x="409" y="941"/>
      <point x="369" y="886"/>
    </contour>
    <contour>
      <point x="429" y="808" type="line"/>
      <point x="429" y="847"/>
      <point x="445" y="877"/>
      <point x="495" y="877" type="curve" smooth="yes"/>
      <point x="535" y="877"/>
      <point x="579" y="858"/>
      <point x="632" y="808" type="curve"/>
    </contour>
    <contour>
      <point x="91" y="284" type="line"/>
      <point x="168" y="284" type="line"/>
      <point x="168" y="409" type="line"/>
      <point x="91" y="409" type="line"/>
    </contour>
    <contour>
      <point x="168" y="350" type="line"/>
      <point x="168" y="447" type="line"/>
      <point x="80" y="532" type="line"/>
      <point x="116" y="590" type="line"/>
      <point x="145" y="565"/>
      <point x="161" y="557"/>
      <point x="176" y="557" type="curve" smooth="yes"/>
      <point x="208" y="557"/>
      <point x="231" y="596"/>
      <point x="231" y="629" type="curve"/>
      <point x="188" y="625"/>
      <point x="169" y="638"/>
      <point x="116" y="680" type="curve"/>
      <point x="38" y="552"/>
      <point x="20" y="534"/>
      <point x="20" y="514" type="curve" smooth="yes"/>
      <point x="20" y="499"/>
      <point x="30" y="484"/>
      <point x="91" y="424" type="curve"/>
      <point x="91" y="350" type="line"/>
    </contour>
    <contour>
      <point x="91" y="316" type="line"/>
      <point x="91" y="0" type="line"/>
      <point x="168" y="0" type="line"/>
      <point x="249" y="59"/>
      <point x="260" y="115"/>
      <point x="260" y="151" type="curve" smooth="yes"/>
      <point x="260" y="211"/>
      <point x="230" y="250"/>
      <point x="168" y="246" type="curve"/>
      <point x="168" y="316" type="line"/>
    </contour>
    <contour>
      <point x="168" y="181" type="line"/>
      <point x="187" y="181"/>
      <point x="201" y="175"/>
      <point x="201" y="150" type="curve" smooth="yes"/>
      <point x="201" y="127"/>
      <point x="189" y="105"/>
      <point x="168" y="89" type="curve"/>
    </contour>
    <contour>
      <point x="391" y="312" type="curve" smooth="yes"/>
      <point x="404" y="312"/>
      <point x="415" y="323"/>
      <point x="415" y="336" type="curve" smooth="yes"/>
      <point x="415" y="349"/>
      <point x="404" y="360"/>
      <point x="391" y="360" type="curve" smooth="yes"/>
      <point x="378" y="360"/>
      <point x="367" y="349"/>
      <point x="367" y="336" type="curve" smooth="yes"/>
      <point x="367" y="323"/>
      <point x="378" y="312"/>
    </contour>
    <contour>
      <point x="417" y="413" type="curve" smooth="yes"/>
      <point x="430" y="413"/>
      <point x="441" y="424"/>
      <point x="441" y="437" type="curve" smooth="yes"/>
      <point x="441" y="450"/>
      <point x="430" y="461"/>
      <point x="417" y="461" type="curve" smooth="yes"/>
      <point x="404" y="461"/>
      <point x="393" y="450"/>
      <point x="393" y="437" type="curve" smooth="yes"/>
      <point x="393" y="424"/>
      <point x="404" y="413"/>
    </contour>
    <contour>
      <point x="488" y="483" type="curve" smooth="yes"/>
      <point x="501" y="483"/>
      <point x="512" y="494"/>
      <point x="512" y="507" type="curve" smooth="yes"/>
      <point x="512" y="520"/>
      <point x="501" y="531"/>
      <point x="488" y="531" type="curve" smooth="yes"/>
      <point x="475" y="531"/>
      <point x="464" y="520"/>
      <point x="464" y="507" type="curve" smooth="yes"/>
      <point x="464" y="494"/>
      <point x="475" y="483"/>
    </contour>
    <contour>
      <point x="585" y="507" type="curve" smooth="yes"/>
      <point x="598" y="507"/>
      <point x="609" y="518"/>
      <point x="609" y="531" type="curve" smooth="yes"/>
      <point x="609" y="544"/>
      <point x="598" y="555"/>
      <point x="585" y="555" type="curve" smooth="yes"/>
      <point x="572" y="555"/>
      <point x="561" y="544"/>
      <point x="561" y="531" type="curve" smooth="yes"/>
      <point x="561" y="518"/>
      <point x="572" y="507"/>
    </contour>
    <contour>
      <point x="682" y="483" type="curve" smooth="yes"/>
      <point x="695" y="483"/>
      <point x="706" y="494"/>
      <point x="706" y="507" type="curve" smooth="yes"/>
      <point x="706" y="520"/>
      <point x="695" y="531"/>
      <point x="682" y="531" type="curve" smooth="yes"/>
      <point x="669" y="531"/>
      <point x="658" y="520"/>
      <point x="658" y="507" type="curve" smooth="yes"/>
      <point x="658" y="494"/>
      <point x="669" y="483"/>
    </contour>
    <contour>
      <point x="752" y="411" type="curve" smooth="yes"/>
      <point x="765" y="411"/>
      <point x="776" y="422"/>
      <point x="776" y="435" type="curve" smooth="yes"/>
      <point x="776" y="448"/>
      <point x="765" y="459"/>
      <point x="752" y="459" type="curve" smooth="yes"/>
      <point x="739" y="459"/>
      <point x="728" y="448"/>
      <point x="728" y="435" type="curve" smooth="yes"/>
      <point x="728" y="422"/>
      <point x="739" y="411"/>
    </contour>
    <contour>
      <point x="782" y="312" type="curve" smooth="yes"/>
      <point x="795" y="312"/>
      <point x="806" y="323"/>
      <point x="806" y="336" type="curve" smooth="yes"/>
      <point x="806" y="349"/>
      <point x="795" y="360"/>
      <point x="782" y="360" type="curve" smooth="yes"/>
      <point x="769" y="360"/>
      <point x="758" y="349"/>
      <point x="758" y="336" type="curve" smooth="yes"/>
      <point x="758" y="323"/>
      <point x="769" y="312"/>
    </contour>
    <contour>
      <point x="754" y="218" type="curve" smooth="yes"/>
      <point x="767" y="218"/>
      <point x="778" y="229"/>
      <point x="778" y="242" type="curve" smooth="yes"/>
      <point x="778" y="255"/>
      <point x="767" y="266"/>
      <point x="754" y="266" type="curve" smooth="yes"/>
      <point x="741" y="266"/>
      <point x="730" y="255"/>
      <point x="730" y="242" type="curve" smooth="yes"/>
      <point x="730" y="229"/>
      <point x="741" y="218"/>
    </contour>
    <contour>
      <point x="683" y="146" type="curve" smooth="yes"/>
      <point x="696" y="146"/>
      <point x="707" y="157"/>
      <point x="707" y="170" type="curve" smooth="yes"/>
      <point x="707" y="183"/>
      <point x="696" y="194"/>
      <point x="683" y="194" type="curve" smooth="yes"/>
      <point x="670" y="194"/>
      <point x="659" y="183"/>
      <point x="659" y="170" type="curve" smooth="yes"/>
      <point x="659" y="157"/>
      <point x="670" y="146"/>
    </contour>
    <contour>
      <point x="585" y="118" type="curve" smooth="yes"/>
      <point x="598" y="118"/>
      <point x="609" y="129"/>
      <point x="609" y="142" type="curve" smooth="yes"/>
      <point x="609" y="155"/>
      <point x="598" y="166"/>
      <point x="585" y="166" type="curve" smooth="yes"/>
      <point x="572" y="166"/>
      <point x="561" y="155"/>
      <point x="561" y="142" type="curve" smooth="yes"/>
      <point x="561" y="129"/>
      <point x="572" y="118"/>
    </contour>
    <contour>
      <point x="488" y="145" type="curve" smooth="yes"/>
      <point x="501" y="145"/>
      <point x="512" y="156"/>
      <point x="512" y="169" type="curve" smooth="yes"/>
      <point x="512" y="182"/>
      <point x="501" y="193"/>
      <point x="488" y="193" type="curve" smooth="yes"/>
      <point x="475" y="193"/>
      <point x="464" y="182"/>
      <point x="464" y="169" type="curve" smooth="yes"/>
      <point x="464" y="156"/>
      <point x="475" y="145"/>
    </contour>
    <contour>
      <point x="415" y="217" type="curve" smooth="yes"/>
      <point x="428" y="217"/>
      <point x="439" y="228"/>
      <point x="439" y="241" type="curve" smooth="yes"/>
      <point x="439" y="254"/>
      <point x="428" y="265"/>
      <point x="415" y="265" type="curve" smooth="yes"/>
      <point x="402" y="265"/>
      <point x="391" y="254"/>
      <point x="391" y="241" type="curve" smooth="yes"/>
      <point x="391" y="228"/>
      <point x="402" y="217"/>
    </contour>
  </outline>
</glyph>
<glyph name="uni17BF" format="2">
  <advance width="1244"/>
  <unicode hex="17BF"/>
  <note>
uni17BF
</note>
  <anchor x="955" y="1220" name="abvm"/>
  <anchor x="629" y="45" name="blwm"/>
  <outline>
    <contour>
      <point x="91" y="284" type="line"/>
      <point x="168" y="284" type="line"/>
      <point x="168" y="409" type="line"/>
      <point x="91" y="409" type="line"/>
    </contour>
    <contour>
      <point x="168" y="350" type="line"/>
      <point x="168" y="447" type="line"/>
      <point x="80" y="532" type="line"/>
      <point x="116" y="590" type="line"/>
      <point x="145" y="565"/>
      <point x="161" y="557"/>
      <point x="176" y="557" type="curve" smooth="yes"/>
      <point x="208" y="557"/>
      <point x="231" y="596"/>
      <point x="231" y="629" type="curve"/>
      <point x="188" y="625"/>
      <point x="169" y="638"/>
      <point x="116" y="680" type="curve"/>
      <point x="38" y="552"/>
      <point x="20" y="534"/>
      <point x="20" y="514" type="curve" smooth="yes"/>
      <point x="20" y="499"/>
      <point x="30" y="484"/>
      <point x="91" y="424" type="curve"/>
      <point x="91" y="350" type="line"/>
    </contour>
    <contour>
      <point x="91" y="316" type="line"/>
      <point x="91" y="0" type="line"/>
      <point x="168" y="0" type="line"/>
      <point x="249" y="59"/>
      <point x="260" y="115"/>
      <point x="260" y="151" type="curve" smooth="yes"/>
      <point x="260" y="211"/>
      <point x="230" y="250"/>
      <point x="168" y="246" type="curve"/>
      <point x="168" y="316" type="line"/>
    </contour>
    <contour>
      <point x="168" y="181" type="line"/>
      <point x="187" y="181"/>
      <point x="201" y="175"/>
      <point x="201" y="150" type="curve" smooth="yes"/>
      <point x="201" y="127"/>
      <point x="189" y="105"/>
      <point x="168" y="89" type="curve"/>
    </contour>
    <contour>
      <point x="433" y="312" type="curve" smooth="yes"/>
      <point x="446" y="312"/>
      <point x="457" y="323"/>
      <point x="457" y="336" type="curve" smooth="yes"/>
      <point x="457" y="349"/>
      <point x="446" y="360"/>
      <point x="433" y="360" type="curve" smooth="yes"/>
      <point x="420" y="360"/>
      <point x="409" y="349"/>
      <point x="409" y="336" type="curve" smooth="yes"/>
      <point x="409" y="323"/>
      <point x="420" y="312"/>
    </contour>
    <contour>
      <point x="459" y="413" type="curve" smooth="yes"/>
      <point x="472" y="413"/>
      <point x="483" y="424"/>
      <point x="483" y="437" type="curve" smooth="yes"/>
      <point x="483" y="450"/>
      <point x="472" y="461"/>
      <point x="459" y="461" type="curve" smooth="yes"/>
      <point x="446" y="461"/>
      <point x="435" y="450"/>
      <point x="435" y="437" type="curve" smooth="yes"/>
      <point x="435" y="424"/>
      <point x="446" y="413"/>
    </contour>
    <contour>
      <point x="530" y="483" type="curve" smooth="yes"/>
      <point x="543" y="483"/>
      <point x="554" y="494"/>
      <point x="554" y="507" type="curve" smooth="yes"/>
      <point x="554" y="520"/>
      <point x="543" y="531"/>
      <point x="530" y="531" type="curve" smooth="yes"/>
      <point x="517" y="531"/>
      <point x="506" y="520"/>
      <point x="506" y="507" type="curve" smooth="yes"/>
      <point x="506" y="494"/>
      <point x="517" y="483"/>
    </contour>
    <contour>
      <point x="627" y="507" type="curve" smooth="yes"/>
      <point x="640" y="507"/>
      <point x="651" y="518"/>
      <point x="651" y="531" type="curve" smooth="yes"/>
      <point x="651" y="544"/>
      <point x="640" y="555"/>
      <point x="627" y="555" type="curve" smooth="yes"/>
      <point x="614" y="555"/>
      <point x="603" y="544"/>
      <point x="603" y="531" type="curve" smooth="yes"/>
      <point x="603" y="518"/>
      <point x="614" y="507"/>
    </contour>
    <contour>
      <point x="724" y="483" type="curve" smooth="yes"/>
      <point x="737" y="483"/>
      <point x="748" y="494"/>
      <point x="748" y="507" type="curve" smooth="yes"/>
      <point x="748" y="520"/>
      <point x="737" y="531"/>
      <point x="724" y="531" type="curve" smooth="yes"/>
      <point x="711" y="531"/>
      <point x="700" y="520"/>
      <point x="700" y="507" type="curve" smooth="yes"/>
      <point x="700" y="494"/>
      <point x="711" y="483"/>
    </contour>
    <contour>
      <point x="794" y="411" type="curve" smooth="yes"/>
      <point x="807" y="411"/>
      <point x="818" y="422"/>
      <point x="818" y="435" type="curve" smooth="yes"/>
      <point x="818" y="448"/>
      <point x="807" y="459"/>
      <point x="794" y="459" type="curve" smooth="yes"/>
      <point x="781" y="459"/>
      <point x="770" y="448"/>
      <point x="770" y="435" type="curve" smooth="yes"/>
      <point x="770" y="422"/>
      <point x="781" y="411"/>
    </contour>
    <contour>
      <point x="824" y="312" type="curve" smooth="yes"/>
      <point x="837" y="312"/>
      <point x="848" y="323"/>
      <point x="848" y="336" type="curve" smooth="yes"/>
      <point x="848" y="349"/>
      <point x="837" y="360"/>
      <point x="824" y="360" type="curve" smooth="yes"/>
      <point x="811" y="360"/>
      <point x="800" y="349"/>
      <point x="800" y="336" type="curve" smooth="yes"/>
      <point x="800" y="323"/>
      <point x="811" y="312"/>
    </contour>
    <contour>
      <point x="796" y="218" type="curve" smooth="yes"/>
      <point x="809" y="218"/>
      <point x="820" y="229"/>
      <point x="820" y="242" type="curve" smooth="yes"/>
      <point x="820" y="255"/>
      <point x="809" y="266"/>
      <point x="796" y="266" type="curve" smooth="yes"/>
      <point x="783" y="266"/>
      <point x="772" y="255"/>
      <point x="772" y="242" type="curve" smooth="yes"/>
      <point x="772" y="229"/>
      <point x="783" y="218"/>
    </contour>
    <contour>
      <point x="725" y="146" type="curve" smooth="yes"/>
      <point x="738" y="146"/>
      <point x="749" y="157"/>
      <point x="749" y="170" type="curve" smooth="yes"/>
      <point x="749" y="183"/>
      <point x="738" y="194"/>
      <point x="725" y="194" type="curve" smooth="yes"/>
      <point x="712" y="194"/>
      <point x="701" y="183"/>
      <point x="701" y="170" type="curve" smooth="yes"/>
      <point x="701" y="157"/>
      <point x="712" y="146"/>
    </contour>
    <contour>
      <point x="627" y="118" type="curve" smooth="yes"/>
      <point x="640" y="118"/>
      <point x="651" y="129"/>
      <point x="651" y="142" type="curve" smooth="yes"/>
      <point x="651" y="155"/>
      <point x="640" y="166"/>
      <point x="627" y="166" type="curve" smooth="yes"/>
      <point x="614" y="166"/>
      <point x="603" y="155"/>
      <point x="603" y="142" type="curve" smooth="yes"/>
      <point x="603" y="129"/>
      <point x="614" y="118"/>
    </contour>
    <contour>
      <point x="530" y="145" type="curve" smooth="yes"/>
      <point x="543" y="145"/>
      <point x="554" y="156"/>
      <point x="554" y="169" type="curve" smooth="yes"/>
      <point x="554" y="182"/>
      <point x="543" y="193"/>
      <point x="530" y="193" type="curve" smooth="yes"/>
      <point x="517" y="193"/>
      <point x="506" y="182"/>
      <point x="506" y="169" type="curve" smooth="yes"/>
      <point x="506" y="156"/>
      <point x="517" y="145"/>
    </contour>
    <contour>
      <point x="457" y="217" type="curve" smooth="yes"/>
      <point x="470" y="217"/>
      <point x="481" y="228"/>
      <point x="481" y="241" type="curve" smooth="yes"/>
      <point x="481" y="254"/>
      <point x="470" y="265"/>
      <point x="457" y="265" type="curve" smooth="yes"/>
      <point x="444" y="265"/>
      <point x="433" y="254"/>
      <point x="433" y="241" type="curve" smooth="yes"/>
      <point x="433" y="228"/>
      <point x="444" y="217"/>
    </contour>
    <contour>
      <point x="1067" y="745" type="line"/>
      <point x="1144" y="745" type="line"/>
      <point x="1144" y="810" type="line" smooth="yes"/>
      <point x="1144" y="883"/>
      <point x="1116" y="954"/>
      <point x="1043" y="1012" type="curve" smooth="yes"/>
      <point x="959" y="1079"/>
      <point x="923" y="1098"/>
      <point x="880" y="1098" type="curve" smooth="yes"/>
      <point x="804" y="1098"/>
      <point x="774" y="1041"/>
      <point x="774" y="979" type="curve" smooth="yes"/>
      <point x="774" y="936"/>
      <point x="787" y="903"/>
      <point x="833" y="903" type="curve" smooth="yes"/>
      <point x="986" y="903" type="line" smooth="yes"/>
      <point x="1040" y="903"/>
      <point x="1067" y="872"/>
      <point x="1067" y="810" type="curve" smooth="yes"/>
    </contour>
    <contour>
      <point x="835" y="966" type="line"/>
      <point x="835" y="1011"/>
      <point x="856" y="1034"/>
      <point x="886" y="1034" type="curve" smooth="yes"/>
      <point x="919" y="1034"/>
      <point x="952" y="1007"/>
      <point x="992" y="966" type="curve"/>
    </contour>
    <contour>
      <point x="977" y="1043" type="line"/>
      <point x="977" y="1147" type="line"/>
      <point x="922" y="1147" type="line"/>
      <point x="922" y="1074" type="line"/>
    </contour>
    <contour>
      <point x="1067" y="982" type="line"/>
      <point x="1067" y="1122" type="line"/>
      <point x="1011" y="1122" type="line"/>
      <point x="1011" y="1019" type="line"/>
    </contour>
    <contour>
      <point x="1144" y="787" type="line"/>
      <point x="1067" y="787" type="line"/>
      <point x="1067" y="-185" type="line" smooth="yes"/>
      <point x="1067" y="-220"/>
      <point x="1032" y="-250"/>
      <point x="960" y="-250" type="curve" smooth="yes"/>
      <point x="889" y="-250"/>
      <point x="854" y="-220"/>
      <point x="854" y="-185" type="curve" smooth="yes"/>
      <point x="854" y="-49" type="line"/>
      <point x="777" y="-49" type="line"/>
      <point x="777" y="-195" type="line" smooth="yes"/>
      <point x="777" y="-277"/>
      <point x="839" y="-317"/>
      <point x="960" y="-317" type="curve" smooth="yes"/>
      <point x="1083" y="-317"/>
      <point x="1144" y="-277"/>
      <point x="1144" y="-195" type="curve" smooth="yes"/>
    </contour>
  </outline>
</glyph>
<glyph name="uni17C0" format="2">
  <advance width="1234"/>
  <unicode hex="17C0"/>
  <note>
uni17C0
</note>
  <anchor x="955" y="1230" name="abvm"/>
  <anchor x="629" y="45" name="blwm"/>
  <outline>
    <contour>
      <point x="91" y="284" type="line"/>
      <point x="168" y="284" type="line"/>
      <point x="168" y="409" type="line"/>
      <point x="91" y="409" type="line"/>
    </contour>
    <contour>
      <point x="168" y="350" type="line"/>
      <point x="168" y="447" type="line"/>
      <point x="80" y="532" type="line"/>
      <point x="116" y="590" type="line"/>
      <point x="145" y="565"/>
      <point x="161" y="557"/>
      <point x="176" y="557" type="curve" smooth="yes"/>
      <point x="208" y="557"/>
      <point x="231" y="596"/>
      <point x="231" y="629" type="curve"/>
      <point x="188" y="625"/>
      <point x="169" y="638"/>
      <point x="116" y="680" type="curve"/>
      <point x="38" y="552"/>
      <point x="20" y="534"/>
      <point x="20" y="514" type="curve" smooth="yes"/>
      <point x="20" y="499"/>
      <point x="30" y="484"/>
      <point x="91" y="424" type="curve"/>
      <point x="91" y="350" type="line"/>
    </contour>
    <contour>
      <point x="91" y="316" type="line"/>
      <point x="91" y="0" type="line"/>
      <point x="168" y="0" type="line"/>
      <point x="249" y="59"/>
      <point x="260" y="115"/>
      <point x="260" y="151" type="curve" smooth="yes"/>
      <point x="260" y="211"/>
      <point x="230" y="250"/>
      <point x="168" y="246" type="curve"/>
      <point x="168" y="316" type="line"/>
    </contour>
    <contour>
      <point x="168" y="181" type="line"/>
      <point x="187" y="181"/>
      <point x="201" y="175"/>
      <point x="201" y="150" type="curve" smooth="yes"/>
      <point x="201" y="127"/>
      <point x="189" y="105"/>
      <point x="168" y="89" type="curve"/>
    </contour>
    <contour>
      <point x="433" y="312" type="curve" smooth="yes"/>
      <point x="446" y="312"/>
      <point x="457" y="323"/>
      <point x="457" y="336" type="curve" smooth="yes"/>
      <point x="457" y="349"/>
      <point x="446" y="360"/>
      <point x="433" y="360" type="curve" smooth="yes"/>
      <point x="420" y="360"/>
      <point x="409" y="349"/>
      <point x="409" y="336" type="curve" smooth="yes"/>
      <point x="409" y="323"/>
      <point x="420" y="312"/>
    </contour>
    <contour>
      <point x="459" y="413" type="curve" smooth="yes"/>
      <point x="472" y="413"/>
      <point x="483" y="424"/>
      <point x="483" y="437" type="curve" smooth="yes"/>
      <point x="483" y="450"/>
      <point x="472" y="461"/>
      <point x="459" y="461" type="curve" smooth="yes"/>
      <point x="446" y="461"/>
      <point x="435" y="450"/>
      <point x="435" y="437" type="curve" smooth="yes"/>
      <point x="435" y="424"/>
      <point x="446" y="413"/>
    </contour>
    <contour>
      <point x="530" y="483" type="curve" smooth="yes"/>
      <point x="543" y="483"/>
      <point x="554" y="494"/>
      <point x="554" y="507" type="curve" smooth="yes"/>
      <point x="554" y="520"/>
      <point x="543" y="531"/>
      <point x="530" y="531" type="curve" smooth="yes"/>
      <point x="517" y="531"/>
      <point x="506" y="520"/>
      <point x="506" y="507" type="curve" smooth="yes"/>
      <point x="506" y="494"/>
      <point x="517" y="483"/>
    </contour>
    <contour>
      <point x="627" y="507" type="curve" smooth="yes"/>
      <point x="640" y="507"/>
      <point x="651" y="518"/>
      <point x="651" y="531" type="curve" smooth="yes"/>
      <point x="651" y="544"/>
      <point x="640" y="555"/>
      <point x="627" y="555" type="curve" smooth="yes"/>
      <point x="614" y="555"/>
      <point x="603" y="544"/>
      <point x="603" y="531" type="curve" smooth="yes"/>
      <point x="603" y="518"/>
      <point x="614" y="507"/>
    </contour>
    <contour>
      <point x="724" y="483" type="curve" smooth="yes"/>
      <point x="737" y="483"/>
      <point x="748" y="494"/>
      <point x="748" y="507" type="curve" smooth="yes"/>
      <point x="748" y="520"/>
      <point x="737" y="531"/>
      <point x="724" y="531" type="curve" smooth="yes"/>
      <point x="711" y="531"/>
      <point x="700" y="520"/>
      <point x="700" y="507" type="curve" smooth="yes"/>
      <point x="700" y="494"/>
      <point x="711" y="483"/>
    </contour>
    <contour>
      <point x="794" y="411" type="curve" smooth="yes"/>
      <point x="807" y="411"/>
      <point x="818" y="422"/>
      <point x="818" y="435" type="curve" smooth="yes"/>
      <point x="818" y="448"/>
      <point x="807" y="459"/>
      <point x="794" y="459" type="curve" smooth="yes"/>
      <point x="781" y="459"/>
      <point x="770" y="448"/>
      <point x="770" y="435" type="curve" smooth="yes"/>
      <point x="770" y="422"/>
      <point x="781" y="411"/>
    </contour>
    <contour>
      <point x="824" y="312" type="curve" smooth="yes"/>
      <point x="837" y="312"/>
      <point x="848" y="323"/>
      <point x="848" y="336" type="curve" smooth="yes"/>
      <point x="848" y="349"/>
      <point x="837" y="360"/>
      <point x="824" y="360" type="curve" smooth="yes"/>
      <point x="811" y="360"/>
      <point x="800" y="349"/>
      <point x="800" y="336" type="curve" smooth="yes"/>
      <point x="800" y="323"/>
      <point x="811" y="312"/>
    </contour>
    <contour>
      <point x="796" y="218" type="curve" smooth="yes"/>
      <point x="809" y="218"/>
      <point x="820" y="229"/>
      <point x="820" y="242" type="curve" smooth="yes"/>
      <point x="820" y="255"/>
      <point x="809" y="266"/>
      <point x="796" y="266" type="curve" smooth="yes"/>
      <point x="783" y="266"/>
      <point x="772" y="255"/>
      <point x="772" y="242" type="curve" smooth="yes"/>
      <point x="772" y="229"/>
      <point x="783" y="218"/>
    </contour>
    <contour>
      <point x="725" y="146" type="curve" smooth="yes"/>
      <point x="738" y="146"/>
      <point x="749" y="157"/>
      <point x="749" y="170" type="curve" smooth="yes"/>
      <point x="749" y="183"/>
      <point x="738" y="194"/>
      <point x="725" y="194" type="curve" smooth="yes"/>
      <point x="712" y="194"/>
      <point x="701" y="183"/>
      <point x="701" y="170" type="curve" smooth="yes"/>
      <point x="701" y="157"/>
      <point x="712" y="146"/>
    </contour>
    <contour>
      <point x="627" y="118" type="curve" smooth="yes"/>
      <point x="640" y="118"/>
      <point x="651" y="129"/>
      <point x="651" y="142" type="curve" smooth="yes"/>
      <point x="651" y="155"/>
      <point x="640" y="166"/>
      <point x="627" y="166" type="curve" smooth="yes"/>
      <point x="614" y="166"/>
      <point x="603" y="155"/>
      <point x="603" y="142" type="curve" smooth="yes"/>
      <point x="603" y="129"/>
      <point x="614" y="118"/>
    </contour>
    <contour>
      <point x="530" y="145" type="curve" smooth="yes"/>
      <point x="543" y="145"/>
      <point x="554" y="156"/>
      <point x="554" y="169" type="curve" smooth="yes"/>
      <point x="554" y="182"/>
      <point x="543" y="193"/>
      <point x="530" y="193" type="curve" smooth="yes"/>
      <point x="517" y="193"/>
      <point x="506" y="182"/>
      <point x="506" y="169" type="curve" smooth="yes"/>
      <point x="506" y="156"/>
      <point x="517" y="145"/>
    </contour>
    <contour>
      <point x="457" y="217" type="curve" smooth="yes"/>
      <point x="470" y="217"/>
      <point x="481" y="228"/>
      <point x="481" y="241" type="curve" smooth="yes"/>
      <point x="481" y="254"/>
      <point x="470" y="265"/>
      <point x="457" y="265" type="curve" smooth="yes"/>
      <point x="444" y="265"/>
      <point x="433" y="254"/>
      <point x="433" y="241" type="curve" smooth="yes"/>
      <point x="433" y="228"/>
      <point x="444" y="217"/>
    </contour>
    <contour>
      <point x="1057" y="715" type="line"/>
      <point x="1134" y="715" type="line"/>
      <point x="1134" y="801" type="line" smooth="yes"/>
      <point x="1134" y="932"/>
      <point x="1061" y="998"/>
      <point x="952" y="998" type="curve" smooth="yes"/>
      <point x="887" y="998"/>
      <point x="843" y="974"/>
      <point x="807" y="953" type="curve"/>
      <point x="821" y="1005"/>
      <point x="830" y="1050"/>
      <point x="830" y="1106" type="curve" smooth="yes"/>
      <point x="830" y="1181"/>
      <point x="809" y="1202"/>
      <point x="776" y="1202" type="curve" smooth="yes"/>
      <point x="738" y="1202"/>
      <point x="722" y="1174"/>
      <point x="722" y="1141" type="curve"/>
      <point x="749" y="1141"/>
      <point x="759" y="1120"/>
      <point x="759" y="1087" type="curve" smooth="yes"/>
      <point x="759" y="1048"/>
      <point x="745" y="999"/>
      <point x="745" y="958" type="curve" smooth="yes"/>
      <point x="745" y="899"/>
      <point x="776" y="882"/>
      <point x="801" y="882" type="curve" smooth="yes"/>
      <point x="845" y="882"/>
      <point x="877" y="931"/>
      <point x="945" y="931" type="curve" smooth="yes"/>
      <point x="1010" y="931"/>
      <point x="1057" y="885"/>
      <point x="1057" y="801" type="curve" smooth="yes"/>
    </contour>
    <contour>
      <point x="1134" y="787" type="line"/>
      <point x="1057" y="787" type="line"/>
      <point x="1057" y="-185" type="line" smooth="yes"/>
      <point x="1057" y="-220"/>
      <point x="1022" y="-250"/>
      <point x="950" y="-250" type="curve" smooth="yes"/>
      <point x="879" y="-250"/>
      <point x="844" y="-220"/>
      <point x="844" y="-185" type="curve" smooth="yes"/>
      <point x="844" y="-49" type="line"/>
      <point x="767" y="-49" type="line"/>
      <point x="767" y="-195" type="line" smooth="yes"/>
      <point x="767" y="-277"/>
      <point x="829" y="-317"/>
      <point x="950" y="-317" type="curve" smooth="yes"/>
      <point x="1073" y="-317"/>
      <point x="1134" y="-277"/>
      <point x="1134" y="-195" type="curve" smooth="yes"/>
    </contour>
  </outline>
</glyph>
<glyph name="uni17C1" format="2">
  <advance width="291"/>
  <unicode hex="17C1"/>
  <note>
uni17C1
</note>
  <anchor x="55" y="760" name="abvm"/>
  <outline>
    <contour>
      <point x="91" y="284" type="line"/>
      <point x="168" y="284" type="line"/>
      <point x="168" y="409" type="line"/>
      <point x="91" y="409" type="line"/>
    </contour>
    <contour>
      <point x="168" y="350" type="line"/>
      <point x="168" y="447" type="line"/>
      <point x="80" y="532" type="line"/>
      <point x="116" y="590" type="line"/>
      <point x="145" y="565"/>
      <point x="161" y="557"/>
      <point x="176" y="557" type="curve" smooth="yes"/>
      <point x="208" y="557"/>
      <point x="231" y="596"/>
      <point x="231" y="629" type="curve"/>
      <point x="188" y="625"/>
      <point x="169" y="638"/>
      <point x="116" y="680" type="curve"/>
      <point x="38" y="552"/>
      <point x="20" y="534"/>
      <point x="20" y="514" type="curve" smooth="yes"/>
      <point x="20" y="499"/>
      <point x="30" y="484"/>
      <point x="91" y="424" type="curve"/>
      <point x="91" y="350" type="line"/>
    </contour>
    <contour>
      <point x="91" y="316" type="line"/>
      <point x="91" y="0" type="line"/>
      <point x="168" y="0" type="line"/>
      <point x="249" y="59"/>
      <point x="260" y="115"/>
      <point x="260" y="151" type="curve" smooth="yes"/>
      <point x="260" y="211"/>
      <point x="230" y="250"/>
      <point x="168" y="246" type="curve"/>
      <point x="168" y="316" type="line"/>
    </contour>
    <contour>
      <point x="168" y="181" type="line"/>
      <point x="187" y="181"/>
      <point x="201" y="175"/>
      <point x="201" y="150" type="curve" smooth="yes"/>
      <point x="201" y="127"/>
      <point x="189" y="105"/>
      <point x="168" y="89" type="curve"/>
    </contour>
  </outline>
</glyph>
<glyph name="uni17C2" format="2">
  <advance width="313"/>
  <unicode hex="17C2"/>
  <note>
uni17C2
</note>
  <anchor x="55" y="760" name="abvm"/>
  <outline>
    <contour>
      <point x="142" y="857" type="curve"/>
      <point x="153" y="894"/>
      <point x="135" y="918"/>
      <point x="110" y="918" type="curve" smooth="yes"/>
      <point x="79" y="918"/>
      <point x="53" y="882"/>
      <point x="53" y="843" type="curve" smooth="yes"/>
      <point x="53" y="794"/>
      <point x="96" y="760"/>
      <point x="153" y="760" type="curve" smooth="yes"/>
      <point x="235" y="760"/>
      <point x="287" y="830"/>
      <point x="287" y="910" type="curve" smooth="yes"/>
      <point x="287" y="986"/>
      <point x="230" y="1035"/>
      <point x="191" y="1035" type="curve" smooth="yes"/>
      <point x="152" y="1035"/>
      <point x="141" y="987"/>
      <point x="161" y="951" type="curve"/>
      <point x="197" y="951"/>
      <point x="224" y="930"/>
      <point x="224" y="892" type="curve" smooth="yes"/>
      <point x="224" y="852"/>
      <point x="195" y="815"/>
      <point x="155" y="815" type="curve" smooth="yes"/>
      <point x="136" y="815"/>
      <point x="120" y="824"/>
      <point x="120" y="838" type="curve" smooth="yes"/>
      <point x="120" y="847"/>
      <point x="127" y="857"/>
    </contour>
    <contour>
      <point x="91" y="284" type="line"/>
      <point x="168" y="284" type="line"/>
      <point x="168" y="409" type="line"/>
      <point x="91" y="409" type="line"/>
    </contour>
    <contour>
      <point x="168" y="350" type="line"/>
      <point x="168" y="447" type="line"/>
      <point x="80" y="532" type="line"/>
      <point x="116" y="590" type="line"/>
      <point x="145" y="565"/>
      <point x="161" y="557"/>
      <point x="176" y="557" type="curve" smooth="yes"/>
      <point x="208" y="557"/>
      <point x="231" y="596"/>
      <point x="231" y="629" type="curve"/>
      <point x="188" y="625"/>
      <point x="169" y="638"/>
      <point x="116" y="680" type="curve"/>
      <point x="38" y="552"/>
      <point x="20" y="534"/>
      <point x="20" y="514" type="curve" smooth="yes"/>
      <point x="20" y="499"/>
      <point x="30" y="484"/>
      <point x="91" y="424" type="curve"/>
      <point x="91" y="350" type="line"/>
    </contour>
    <contour>
      <point x="91" y="316" type="line"/>
      <point x="91" y="0" type="line"/>
      <point x="168" y="0" type="line"/>
      <point x="249" y="59"/>
      <point x="260" y="115"/>
      <point x="260" y="151" type="curve" smooth="yes"/>
      <point x="260" y="211"/>
      <point x="230" y="250"/>
      <point x="168" y="246" type="curve"/>
      <point x="168" y="316" type="line"/>
    </contour>
    <contour>
      <point x="168" y="181" type="line"/>
      <point x="187" y="181"/>
      <point x="201" y="175"/>
      <point x="201" y="150" type="curve" smooth="yes"/>
      <point x="201" y="127"/>
      <point x="189" y="105"/>
      <point x="168" y="89" type="curve"/>
    </contour>
  </outline>
</glyph>
<glyph name="uni17C4" format="2">
  <advance width="1136"/>
  <unicode hex="17C4"/>
  <note>
uni17C4
</note>
  <anchor x="569" y="645" name="abvm"/>
  <anchor x="913" y="740" name="abvm_a"/>
  <anchor x="913" y="740" name="abvm_high"/>
  <anchor x="569" y="45" name="blwm"/>
  <anchor x="876" y="0" name="blwm_a"/>
  <outline>
    <contour>
      <point x="91" y="284" type="line"/>
      <point x="168" y="284" type="line"/>
      <point x="168" y="409" type="line"/>
      <point x="91" y="409" type="line"/>
    </contour>
    <contour>
      <point x="168" y="350" type="line"/>
      <point x="168" y="447" type="line"/>
      <point x="80" y="532" type="line"/>
      <point x="116" y="590" type="line"/>
      <point x="145" y="565"/>
      <point x="161" y="557"/>
      <point x="176" y="557" type="curve" smooth="yes"/>
      <point x="208" y="557"/>
      <point x="231" y="596"/>
      <point x="231" y="629" type="curve"/>
      <point x="188" y="625"/>
      <point x="169" y="638"/>
      <point x="116" y="680" type="curve"/>
      <point x="38" y="552"/>
      <point x="20" y="534"/>
      <point x="20" y="514" type="curve" smooth="yes"/>
      <point x="20" y="499"/>
      <point x="30" y="484"/>
      <point x="91" y="424" type="curve"/>
      <point x="91" y="350" type="line"/>
    </contour>
    <contour>
      <point x="91" y="316" type="line"/>
      <point x="91" y="0" type="line"/>
      <point x="168" y="0" type="line"/>
      <point x="249" y="59"/>
      <point x="260" y="115"/>
      <point x="260" y="151" type="curve" smooth="yes"/>
      <point x="260" y="211"/>
      <point x="230" y="250"/>
      <point x="168" y="246" type="curve"/>
      <point x="168" y="316" type="line"/>
    </contour>
    <contour>
      <point x="168" y="181" type="line"/>
      <point x="187" y="181"/>
      <point x="201" y="175"/>
      <point x="201" y="150" type="curve" smooth="yes"/>
      <point x="201" y="127"/>
      <point x="189" y="105"/>
      <point x="168" y="89" type="curve"/>
    </contour>
    <contour>
      <point x="373" y="312" type="curve" smooth="yes"/>
      <point x="386" y="312"/>
      <point x="397" y="323"/>
      <point x="397" y="336" type="curve" smooth="yes"/>
      <point x="397" y="349"/>
      <point x="386" y="360"/>
      <point x="373" y="360" type="curve" smooth="yes"/>
      <point x="360" y="360"/>
      <point x="349" y="349"/>
      <point x="349" y="336" type="curve" smooth="yes"/>
      <point x="349" y="323"/>
      <point x="360" y="312"/>
    </contour>
    <contour>
      <point x="399" y="413" type="curve" smooth="yes"/>
      <point x="412" y="413"/>
      <point x="423" y="424"/>
      <point x="423" y="437" type="curve" smooth="yes"/>
      <point x="423" y="450"/>
      <point x="412" y="461"/>
      <point x="399" y="461" type="curve" smooth="yes"/>
      <point x="386" y="461"/>
      <point x="375" y="450"/>
      <point x="375" y="437" type="curve" smooth="yes"/>
      <point x="375" y="424"/>
      <point x="386" y="413"/>
    </contour>
    <contour>
      <point x="470" y="483" type="curve" smooth="yes"/>
      <point x="483" y="483"/>
      <point x="494" y="494"/>
      <point x="494" y="507" type="curve" smooth="yes"/>
      <point x="494" y="520"/>
      <point x="483" y="531"/>
      <point x="470" y="531" type="curve" smooth="yes"/>
      <point x="457" y="531"/>
      <point x="446" y="520"/>
      <point x="446" y="507" type="curve" smooth="yes"/>
      <point x="446" y="494"/>
      <point x="457" y="483"/>
    </contour>
    <contour>
      <point x="567" y="507" type="curve" smooth="yes"/>
      <point x="580" y="507"/>
      <point x="591" y="518"/>
      <point x="591" y="531" type="curve" smooth="yes"/>
      <point x="591" y="544"/>
      <point x="580" y="555"/>
      <point x="567" y="555" type="curve" smooth="yes"/>
      <point x="554" y="555"/>
      <point x="543" y="544"/>
      <point x="543" y="531" type="curve" smooth="yes"/>
      <point x="543" y="518"/>
      <point x="554" y="507"/>
    </contour>
    <contour>
      <point x="664" y="483" type="curve" smooth="yes"/>
      <point x="677" y="483"/>
      <point x="688" y="494"/>
      <point x="688" y="507" type="curve" smooth="yes"/>
      <point x="688" y="520"/>
      <point x="677" y="531"/>
      <point x="664" y="531" type="curve" smooth="yes"/>
      <point x="651" y="531"/>
      <point x="640" y="520"/>
      <point x="640" y="507" type="curve" smooth="yes"/>
      <point x="640" y="494"/>
      <point x="651" y="483"/>
    </contour>
    <contour>
      <point x="734" y="411" type="curve" smooth="yes"/>
      <point x="747" y="411"/>
      <point x="758" y="422"/>
      <point x="758" y="435" type="curve" smooth="yes"/>
      <point x="758" y="448"/>
      <point x="747" y="459"/>
      <point x="734" y="459" type="curve" smooth="yes"/>
      <point x="721" y="459"/>
      <point x="710" y="448"/>
      <point x="710" y="435" type="curve" smooth="yes"/>
      <point x="710" y="422"/>
      <point x="721" y="411"/>
    </contour>
    <contour>
      <point x="764" y="312" type="curve" smooth="yes"/>
      <point x="777" y="312"/>
      <point x="788" y="323"/>
      <point x="788" y="336" type="curve" smooth="yes"/>
      <point x="788" y="349"/>
      <point x="777" y="360"/>
      <point x="764" y="360" type="curve" smooth="yes"/>
      <point x="751" y="360"/>
      <point x="740" y="349"/>
      <point x="740" y="336" type="curve" smooth="yes"/>
      <point x="740" y="323"/>
      <point x="751" y="312"/>
    </contour>
    <contour>
      <point x="736" y="218" type="curve" smooth="yes"/>
      <point x="749" y="218"/>
      <point x="760" y="229"/>
      <point x="760" y="242" type="curve" smooth="yes"/>
      <point x="760" y="255"/>
      <point x="749" y="266"/>
      <point x="736" y="266" type="curve" smooth="yes"/>
      <point x="723" y="266"/>
      <point x="712" y="255"/>
      <point x="712" y="242" type="curve" smooth="yes"/>
      <point x="712" y="229"/>
      <point x="723" y="218"/>
    </contour>
    <contour>
      <point x="665" y="146" type="curve" smooth="yes"/>
      <point x="678" y="146"/>
      <point x="689" y="157"/>
      <point x="689" y="170" type="curve" smooth="yes"/>
      <point x="689" y="183"/>
      <point x="678" y="194"/>
      <point x="665" y="194" type="curve" smooth="yes"/>
      <point x="652" y="194"/>
      <point x="641" y="183"/>
      <point x="641" y="170" type="curve" smooth="yes"/>
      <point x="641" y="157"/>
      <point x="652" y="146"/>
    </contour>
    <contour>
      <point x="567" y="118" type="curve" smooth="yes"/>
      <point x="580" y="118"/>
      <point x="591" y="129"/>
      <point x="591" y="142" type="curve" smooth="yes"/>
      <point x="591" y="155"/>
      <point x="580" y="166"/>
      <point x="567" y="166" type="curve" smooth="yes"/>
      <point x="554" y="166"/>
      <point x="543" y="155"/>
      <point x="543" y="142" type="curve" smooth="yes"/>
      <point x="543" y="129"/>
      <point x="554" y="118"/>
    </contour>
    <contour>
      <point x="470" y="145" type="curve" smooth="yes"/>
      <point x="483" y="145"/>
      <point x="494" y="156"/>
      <point x="494" y="169" type="curve" smooth="yes"/>
      <point x="494" y="182"/>
      <point x="483" y="193"/>
      <point x="470" y="193" type="curve" smooth="yes"/>
      <point x="457" y="193"/>
      <point x="446" y="182"/>
      <point x="446" y="169" type="curve" smooth="yes"/>
      <point x="446" y="156"/>
      <point x="457" y="145"/>
    </contour>
    <contour>
      <point x="397" y="217" type="curve" smooth="yes"/>
      <point x="410" y="217"/>
      <point x="421" y="228"/>
      <point x="421" y="241" type="curve" smooth="yes"/>
      <point x="421" y="254"/>
      <point x="410" y="265"/>
      <point x="397" y="265" type="curve" smooth="yes"/>
      <point x="384" y="265"/>
      <point x="373" y="254"/>
      <point x="373" y="241" type="curve" smooth="yes"/>
      <point x="373" y="228"/>
      <point x="384" y="217"/>
    </contour>
    <contour>
      <point x="800" y="562" type="curve"/>
      <point x="837" y="601"/>
      <point x="851" y="607"/>
      <point x="861" y="607" type="curve" smooth="yes"/>
      <point x="870" y="607"/>
      <point x="885" y="593"/>
      <point x="909" y="571" type="curve" smooth="yes"/>
      <point x="983" y="501" type="line"/>
      <point x="983" y="0" type="line"/>
      <point x="1060" y="0" type="line"/>
      <point x="1060" y="501" type="line" smooth="yes"/>
      <point x="1060" y="532"/>
      <point x="1049" y="557"/>
      <point x="1028" y="576" type="curve" smooth="yes"/>
      <point x="950" y="650" type="line" smooth="yes"/>
      <point x="926" y="672"/>
      <point x="902" y="682"/>
      <point x="879" y="682" type="curve" smooth="yes"/>
      <point x="854" y="682"/>
      <point x="826" y="670"/>
      <point x="804" y="652" type="curve" smooth="yes"/>
      <point x="785" y="636"/>
      <point x="777" y="621"/>
      <point x="777" y="605" type="curve" smooth="yes"/>
      <point x="777" y="590"/>
      <point x="784" y="574"/>
    </contour>
  </outline>
</glyph>
<glyph name="uni17C7" format="2">
  <advance width="350"/>
  <unicode hex="17C7"/>
  <note>
uni17C7
</note>
  <anchor x="175" y="454" name="_abvm"/>
  <anchor x="175" y="331" name="abvm"/>
  <outline>
    <contour>
      <point x="175" y="454" type="curve" smooth="yes"/>
      <point x="231" y="454"/>
      <point x="278" y="501"/>
      <point x="278" y="557" type="curve" smooth="yes"/>
      <point x="278" y="613"/>
      <point x="231" y="660"/>
      <point x="175" y="660" type="curve" smooth="yes"/>
      <point x="119" y="660"/>
      <point x="72" y="613"/>
      <point x="72" y="557" type="curve" smooth="yes"/>
      <point x="72" y="501"/>
      <point x="119" y="454"/>
    </contour>
    <contour>
      <point x="174" y="510" type="curve" smooth="yes"/>
      <point x="149" y="510"/>
      <point x="127" y="531"/>
      <point x="127" y="557" type="curve" smooth="yes"/>
      <point x="127" y="585"/>
      <point x="148" y="606"/>
      <point x="174" y="606" type="curve" smooth="yes"/>
      <point x="201" y="606"/>
      <point x="222" y="583"/>
      <point x="222" y="557" type="curve" smooth="yes"/>
      <point x="222" y="530"/>
      <point x="200" y="510"/>
    </contour>
    <contour>
      <point x="175" y="22" type="curve" smooth="yes"/>
      <point x="231" y="22"/>
      <point x="278" y="69"/>
      <point x="278" y="125" type="curve" smooth="yes"/>
      <point x="278" y="181"/>
      <point x="231" y="228"/>
      <point x="175" y="228" type="curve" smooth="yes"/>
      <point x="119" y="228"/>
      <point x="72" y="181"/>
      <point x="72" y="125" type="curve" smooth="yes"/>
      <point x="72" y="69"/>
      <point x="119" y="22"/>
    </contour>
    <contour>
      <point x="174" y="78" type="curve" smooth="yes"/>
      <point x="149" y="78"/>
      <point x="127" y="99"/>
      <point x="127" y="125" type="curve" smooth="yes"/>
      <point x="127" y="153"/>
      <point x="148" y="174"/>
      <point x="174" y="174" type="curve" smooth="yes"/>
      <point x="201" y="174"/>
      <point x="222" y="151"/>
      <point x="222" y="125" type="curve" smooth="yes"/>
      <point x="222" y="98"/>
      <point x="200" y="78"/>
    </contour>
  </outline>
</glyph>
